{"glyphs":{":":{"x_min":0,"x_max":180,"ha":180,"o":"m 134 97 b 112 97 77 75 67 48 b 58 21 63 -1 85 -1 b 107 -1 141 22 146 48 b 154 76 156 97 134 97 z m 197 307 b 219 307 253 329 259 356 b 266 384 268 405 246 405 b 224 405 189 383 180 356 b 170 329 175 307 197 307 z"},"$":{"x_min":0,"x_max":1631,"ha":1631,"o":"m 911 59 b 914 67 939 134 946 155 b 952 174 962 198 987 198 b 1003 198 1006 211 991 208 b 968 205 969 217 951 227 b 943 232 934 235 925 235 b 913 235 900 231 883 224 b 863 215 832 204 817 163 b 804 126 835 114 847 113 b 850 112 853 112 855 112 b 864 112 870 114 875 118 b 882 123 879 132 870 129 b 864 128 863 121 854 121 b 841 121 839 141 848 167 b 857 190 866 206 888 216 b 892 217 895 218 900 218 b 910 218 922 214 931 208 b 940 204 946 200 952 198 b 929 192 909 171 901 150 b 894 130 872 63 868 54 b 858 26 847 -4 838 -18 b 831 -30 825 -35 817 -35 b 814 -35 811 -35 808 -33 b 801 -31 795 -48 802 -48 b 822 -48 831 -38 856 -38 b 872 -38 883 -48 895 -48 b 906 -48 911 -32 903 -33 b 899 -34 896 -34 894 -34 b 884 -34 882 -30 887 -14 b 891 0 902 32 911 59 z m 1143 -9 b 1142 -9 1141 -10 1140 -11 b 1127 -23 1118 -27 1111 -27 b 1100 -27 1096 -14 1098 -3 b 1101 20 1115 64 1147 124 b 1153 136 1145 156 1103 156 b 1088 156 1057 139 1036 117 b 1039 126 1043 134 1046 141 b 1049 147 1041 155 1034 156 b 1033 156 1033 156 1031 156 b 1020 156 1012 145 995 145 b 989 145 981 147 971 151 b 965 153 953 129 963 129 b 970 129 980 132 986 132 b 992 132 995 130 992 124 b 986 104 981 90 971 60 b 957 20 945 -3 933 -37 b 930 -44 941 -48 954 -48 b 965 -48 977 -45 980 -38 b 991 -9 1007 44 1025 92 b 1025 92 1025 92 1025 93 b 1035 107 1058 132 1081 132 b 1094 132 1097 120 1092 105 b 1082 79 1086 90 1076 60 b 1065 29 1059 20 1049 -7 b 1041 -29 1045 -47 1077 -47 b 1105 -47 1121 -40 1142 -28 b 1152 -22 1149 -9 1143 -9 z m 1363 277 b 1327 277 1292 255 1258 213 b 1233 227 1203 246 1176 258 b 1162 264 1148 266 1136 266 b 1092 266 1056 236 1036 214 b 1026 201 1021 190 1024 185 b 1025 183 1027 182 1029 182 b 1035 182 1044 186 1042 191 b 1040 197 1040 205 1045 210 b 1054 220 1075 227 1101 227 b 1119 227 1139 223 1160 214 b 1183 205 1213 192 1238 185 b 1236 181 1233 176 1232 173 b 1228 165 1191 68 1191 68 b 1177 27 1163 1 1150 -34 b 1147 -42 1158 -46 1171 -46 b 1182 -46 1195 -43 1198 -35 b 1204 -18 1206 0 1217 33 b 1227 36 1240 40 1253 45 b 1247 14 1234 -47 1265 -46 b 1285 -46 1298 -43 1318 -32 b 1328 -27 1324 -13 1319 -13 b 1318 -13 1317 -14 1316 -15 b 1309 -24 1303 -27 1299 -27 b 1284 -27 1283 17 1285 59 b 1309 71 1329 84 1335 93 b 1343 107 1345 112 1350 123 b 1356 135 1356 159 1315 159 b 1301 159 1271 144 1251 124 b 1259 144 1267 163 1273 177 b 1291 174 1311 172 1332 172 b 1441 172 1485 277 1363 277 z m 1294 135 b 1309 135 1310 127 1306 117 b 1296 88 1253 62 1222 50 l 1226 61 b 1229 71 1233 82 1238 94 b 1249 109 1277 135 1294 135 z m 1336 185 b 1335 185 1335 185 1334 185 b 1318 185 1303 191 1285 199 b 1303 233 1332 266 1371 266 b 1430 266 1397 188 1336 185 z m 254 381 b 252 381 249 379 248 377 b 243 369 235 357 224 357 b 219 357 215 360 211 362 b 201 370 210 396 209 427 b 208 462 191 472 171 472 b 225 503 281 549 293 592 b 297 611 288 620 274 620 b 267 620 260 618 253 614 b 270 578 199 501 140 471 b 149 495 162 530 167 544 b 173 563 183 587 208 587 b 224 588 227 600 212 598 b 189 595 190 607 172 617 b 164 622 155 625 146 625 b 134 625 121 620 104 613 b 84 604 53 593 38 553 b 24 515 56 504 68 502 b 71 502 74 502 77 502 b 85 502 91 504 96 507 b 103 513 100 521 91 519 b 85 517 84 511 75 511 b 62 511 60 531 69 557 b 77 579 87 596 109 605 b 112 607 116 607 121 607 b 131 607 142 603 152 598 b 161 593 167 589 173 587 b 150 582 130 560 122 539 b 115 520 92 453 89 443 b 79 415 68 385 59 371 b 52 360 45 354 38 354 b 35 354 32 355 29 356 b 22 359 15 341 23 341 b 43 341 52 351 77 351 b 92 351 104 341 115 341 b 127 341 132 357 124 356 b 120 355 117 355 115 355 b 105 355 103 360 108 376 b 112 390 123 421 132 449 l 134 454 b 137 456 142 457 145 457 b 161 457 167 439 165 404 b 163 380 156 341 197 341 b 218 341 229 347 236 351 b 248 357 258 364 262 370 b 266 375 260 381 254 381 z m 294 519 b 301 519 310 521 316 521 b 321 521 324 519 323 513 b 314 478 297 441 275 382 b 268 360 271 342 304 342 b 331 342 347 350 368 362 b 379 367 375 380 370 380 b 369 380 368 380 367 379 b 354 366 345 362 338 362 b 327 362 323 375 324 386 b 326 407 335 431 347 463 b 356 489 373 523 377 531 b 379 536 372 545 365 545 b 364 545 363 545 362 545 b 350 545 343 535 326 535 b 320 535 312 536 302 540 b 295 543 283 519 294 519 z m 370 570 b 379 570 394 580 396 591 b 399 603 400 612 391 612 b 382 612 367 603 362 591 b 358 580 360 570 370 570 z m 406 519 b 413 519 423 522 429 522 b 435 522 438 520 435 513 b 429 493 424 480 414 450 b 400 410 388 387 376 353 b 373 345 384 341 397 341 b 408 341 420 345 423 352 b 434 380 450 434 468 481 b 468 482 468 482 468 482 b 478 496 501 522 524 522 b 537 522 540 510 535 495 b 525 468 529 480 519 450 b 508 418 502 410 492 382 b 484 360 488 342 520 342 b 548 342 564 350 585 362 b 595 367 592 380 586 380 b 585 380 584 380 583 379 b 570 366 561 362 554 362 b 543 362 539 375 541 386 b 544 409 558 454 590 514 b 596 525 588 546 546 546 b 531 546 500 528 479 507 b 482 516 486 524 489 531 b 492 536 484 545 477 545 b 476 545 476 545 474 545 b 463 545 456 535 438 535 b 432 535 424 536 414 540 b 408 543 396 519 406 519 z m 763 510 b 763 531 754 548 726 548 b 675 548 634 527 605 445 b 586 389 587 343 652 343 b 664 343 677 350 689 359 b 685 349 682 340 679 331 b 659 279 645 246 613 232 b 609 230 604 229 599 229 b 558 229 497 287 438 298 b 422 301 407 302 394 302 b 338 302 309 278 285 254 b 272 242 267 231 271 225 b 273 223 276 223 279 223 b 287 223 297 227 294 232 b 291 238 289 245 296 251 b 306 260 334 267 363 267 b 384 267 406 263 423 254 b 476 226 518 208 557 208 b 578 208 598 213 619 225 b 662 250 704 271 725 331 b 736 360 747 400 757 428 b 764 451 777 484 782 498 b 785 505 775 510 763 510 z m 737 503 b 730 491 723 452 716 431 b 711 413 703 396 696 376 b 685 363 673 359 659 358 b 635 358 641 396 657 445 b 670 489 692 536 722 536 b 739 536 740 519 737 503 z m 874 360 b 877 350 886 344 905 344 b 932 344 948 352 969 364 b 980 369 976 382 971 382 b 970 382 969 382 968 381 b 955 369 946 364 939 364 b 928 364 924 378 925 388 b 927 400 941 442 946 457 b 952 477 968 517 981 548 b 983 552 984 556 986 560 b 997 600 977 612 957 626 b 948 632 940 636 929 636 b 911 636 884 627 827 607 b 796 596 769 590 748 590 b 729 590 714 595 708 607 b 705 612 712 619 720 626 b 726 631 719 635 711 635 b 708 635 704 634 702 632 b 693 627 693 617 693 603 b 695 581 714 563 758 563 b 775 563 796 566 822 573 b 875 587 920 618 941 618 b 944 618 946 617 948 616 b 957 611 951 585 943 562 b 941 556 936 543 935 541 b 929 545 922 548 913 548 b 861 548 817 527 789 445 b 770 389 771 343 835 343 b 848 343 862 350 874 360 z m 840 445 b 854 489 875 536 905 536 b 923 536 925 522 922 507 b 916 489 909 470 904 457 b 897 440 884 406 876 384 b 875 379 874 375 873 370 b 864 362 855 359 843 358 b 818 358 825 396 840 445 z m 1038 341 b 1112 341 1150 393 1170 443 b 1198 511 1174 546 1121 546 b 1050 546 1016 507 991 444 b 968 384 977 341 1038 341 z m 1044 452 b 1071 516 1101 539 1125 534 b 1155 528 1132 475 1119 443 b 1092 376 1058 350 1037 354 b 1003 360 1029 417 1044 452 z m 1544 528 b 1539 530 1535 530 1530 530 b 1526 530 1521 530 1517 529 b 1503 526 1500 501 1513 506 b 1521 509 1527 515 1536 516 b 1554 520 1568 507 1546 444 b 1534 413 1500 352 1461 352 b 1436 352 1437 376 1439 386 b 1440 395 1443 406 1447 420 b 1449 426 1473 487 1487 514 b 1493 525 1485 546 1443 546 b 1430 546 1401 531 1380 511 b 1381 512 1381 513 1382 514 b 1388 525 1380 546 1338 546 b 1323 546 1292 528 1271 507 b 1274 516 1278 524 1281 531 b 1284 536 1276 545 1269 545 b 1269 545 1268 545 1266 545 b 1255 545 1248 535 1230 535 b 1224 535 1216 536 1206 540 b 1200 543 1188 519 1198 519 b 1206 519 1215 522 1221 522 b 1227 522 1230 520 1227 513 b 1221 493 1216 480 1206 450 b 1192 410 1180 387 1168 353 b 1165 345 1176 341 1189 341 b 1200 341 1213 345 1215 352 b 1226 380 1242 434 1260 481 b 1260 482 1260 482 1260 482 b 1270 496 1293 522 1316 522 b 1329 522 1332 510 1327 495 b 1317 468 1303 428 1301 420 b 1291 396 1282 378 1273 353 b 1270 345 1282 341 1294 341 b 1306 341 1318 345 1321 352 b 1328 370 1337 399 1348 431 b 1350 437 1361 465 1370 487 b 1380 501 1401 522 1421 522 b 1434 522 1437 510 1432 495 b 1423 468 1411 435 1410 431 b 1403 413 1398 403 1390 382 b 1383 362 1390 341 1447 341 b 1513 341 1568 382 1590 444 b 1612 503 1567 523 1544 528 z"},"?":{"x_min":0,"x_max":466,"ha":466,"o":"m 262 97 b 240 97 205 75 195 48 b 186 21 191 -1 213 -1 b 235 -1 269 22 274 48 b 281 76 284 97 262 97 z m 471 661 b 377 661 275 618 238 517 b 197 403 291 383 324 383 b 341 383 348 382 356 382 b 360 382 364 382 369 383 b 392 387 397 428 376 420 b 363 416 354 406 339 403 b 308 397 291 449 316 517 b 346 598 407 639 462 639 b 535 639 553 558 455 420 b 358 283 287 261 246 146 b 242 134 248 129 256 129 b 266 129 280 136 283 146 b 326 264 491 296 563 420 b 635 545 606 661 471 661 z"},"<":{"x_min":0,"x_max":289,"ha":289,"o":"m 339 297 b 311 296 268 305 225 341 b 298 408 353 418 387 418 b 395 418 400 440 396 459 b 393 470 388 474 381 474 b 370 474 357 465 345 459 b 314 441 302 423 213 402 b 187 395 161 327 194 314 b 242 296 271 285 297 265 b 304 260 309 255 315 255 b 320 255 324 258 331 265 b 345 279 347 297 340 297 b 339 297 339 297 339 297 z"},"'":{"x_min":0,"x_max":170,"ha":170,"o":"m 341 661 b 315 663 285 645 278 626 b 271 606 280 588 271 562 b 267 551 274 547 281 547 b 288 547 295 550 296 553 b 316 588 345 619 353 639 b 357 651 350 661 341 661 z"},"=":{"x_min":0,"x_max":296,"ha":296,"o":"m 213 368 b 245 380 273 384 295 384 b 329 384 353 375 369 368 b 375 368 386 382 391 398 b 397 424 381 434 364 429 b 336 420 321 416 302 416 b 286 416 267 419 233 423 b 203 427 172 365 200 365 b 203 365 208 366 213 368 z m 336 352 b 308 343 293 339 274 339 b 258 339 239 342 205 346 b 175 350 144 288 172 288 b 175 288 180 289 185 291 b 217 303 245 307 267 307 b 301 307 325 298 341 291 b 347 291 358 305 363 321 b 370 348 353 357 336 352 z"},"a":{"x_min":0,"x_max":486,"ha":486,"o":"m 393 230 b 377 191 360 147 341 97 l 339 90 b 311 51 281 37 244 35 b 186 35 201 125 238 240 b 270 341 320 451 390 451 b 438 451 437 414 430 373 b 418 338 416 304 393 230 z m 333 53 b 336 24 355 3 408 3 b 472 3 509 21 559 49 b 583 62 575 92 562 92 b 560 92 557 91 555 89 b 526 60 504 50 488 50 b 462 50 453 81 456 106 b 459 134 467 166 480 203 b 488 227 533 353 547 387 b 555 410 512 419 476 413 b 473 451 453 479 408 480 b 287 481 185 431 118 240 b 72 107 75 1 226 1 b 262 1 302 24 333 53 z"},"L":{"x_min":0,"x_max":431,"ha":431,"o":"m 238 386 b 221 342 159 136 116 70 b 100 45 86 31 68 31 b 61 31 55 33 47 36 b 32 41 16 1 34 1 b 76 1 109 16 146 23 b 156 25 165 26 174 26 b 219 26 253 2 299 2 b 359 2 427 19 466 68 b 474 79 459 91 446 91 b 440 91 435 89 431 83 b 421 66 401 38 378 38 b 361 38 347 55 301 62 b 276 65 246 53 226 51 b 225 58 228 68 231 81 b 251 139 313 328 328 366 b 352 426 381 496 401 544 b 430 613 462 645 494 645 b 543 645 530 549 511 496 b 489 436 449 390 420 390 b 406 390 401 398 391 400 b 373 404 356 362 377 362 b 392 362 398 366 424 371 b 459 378 547 398 578 487 b 609 578 590 664 487 664 b 413 664 329 607 295 544 b 266 489 268 470 238 386 z"},"3":{"x_min":0,"x_max":964,"ha":964,"o":"m 29 642 l 29 599 l 39 599 l 39 610 l 48 610 b 59 610 66 616 66 626 b 66 636 59 642 48 642 z m 56 626 b 56 621 53 619 47 619 l 39 619 l 39 634 l 47 634 b 53 634 56 631 56 626 z m 119 634 l 119 642 l 87 642 l 87 599 l 119 599 l 119 607 l 97 607 l 97 616 l 116 616 l 116 624 l 97 624 l 97 634 z m 178 626 b 178 636 171 642 160 642 l 142 642 l 142 599 l 151 599 l 151 611 l 160 611 l 168 599 l 178 599 l 169 613 b 175 615 178 619 178 626 z m 159 619 l 151 619 l 151 634 l 159 634 b 165 634 168 631 168 626 b 168 621 165 619 159 619 z m 214 606 b 209 606 203 608 200 610 l 197 603 b 200 600 207 598 213 598 b 226 598 232 604 232 611 b 232 627 207 622 207 630 b 207 632 209 634 215 634 b 219 634 223 633 227 631 l 230 639 b 226 641 221 642 215 642 b 203 642 198 636 198 629 b 198 613 222 619 222 610 b 222 608 219 606 214 606 z m 250 620 b 250 607 260 598 273 598 b 286 598 296 607 296 620 b 296 633 286 642 273 642 b 260 642 250 633 250 620 z m 286 620 b 286 612 280 607 273 607 b 265 607 260 612 260 620 b 260 628 265 634 273 634 b 280 634 286 628 286 620 z m 326 642 l 318 642 l 318 599 l 327 599 l 327 625 l 348 599 l 356 599 l 356 642 l 347 642 l 347 616 z m 375 599 l 385 599 l 388 608 l 408 608 l 412 599 l 422 599 l 403 642 l 394 642 z m 405 616 l 392 616 l 398 632 z m 441 642 l 441 599 l 471 599 l 471 607 l 450 607 l 450 642 z m 522 642 l 522 617 b 522 605 529 598 541 598 b 553 598 560 605 560 617 l 560 642 l 550 642 l 550 618 b 550 610 547 607 541 607 b 535 607 532 610 532 618 l 532 642 z m 598 606 b 593 606 588 608 584 610 l 581 603 b 585 600 591 598 598 598 b 610 598 615 604 615 611 b 615 627 591 622 591 630 b 591 632 594 634 599 634 b 603 634 607 633 611 631 l 614 639 b 610 641 605 642 599 642 b 587 642 582 636 582 629 b 582 613 606 619 606 610 b 606 608 604 606 598 606 z m 669 634 l 669 642 l 637 642 l 637 599 l 669 599 l 669 607 l 646 607 l 646 616 l 666 616 l 666 624 l 646 624 l 646 634 z m 720 620 b 720 607 730 598 743 598 b 756 598 766 607 766 620 b 766 633 756 642 743 642 b 730 642 720 633 720 620 z m 756 620 b 756 612 750 607 743 607 b 735 607 730 612 730 620 b 730 628 735 634 743 634 b 750 634 756 628 756 620 z m 796 642 l 788 642 l 788 599 l 797 599 l 797 625 l 818 599 l 826 599 l 826 642 l 817 642 l 817 616 z m 851 642 l 851 599 l 881 599 l 881 607 l 860 607 l 860 642 z m 917 599 l 917 614 l 933 642 l 923 642 l 913 622 l 901 642 l 891 642 l 907 614 l 907 599 z m 37 138 l 27 138 l 28 147 l 40 147 l 41 149 l 27 149 l 23 127 l 24 127 l 26 137 l 37 137 z m 43 133 b 43 130 45 127 50 127 b 55 127 59 131 59 137 b 59 141 56 143 52 143 b 47 143 43 139 43 133 z m 57 137 b 57 132 54 129 50 129 b 47 129 44 130 44 133 b 44 138 47 142 51 142 b 55 142 57 140 57 137 z m 67 143 l 64 127 l 65 127 l 67 135 b 68 140 70 141 74 141 b 74 141 74 141 74 141 l 74 143 b 71 143 69 142 68 140 l 68 143 z m 101 147 b 104 147 106 146 107 144 l 109 146 b 107 147 104 149 101 149 b 94 149 89 143 89 136 b 89 130 92 127 98 127 b 101 127 104 128 106 130 l 105 131 b 104 129 101 129 98 129 b 93 129 91 132 91 136 b 91 142 95 147 101 147 z m 127 137 b 127 141 124 143 120 143 b 115 143 111 139 111 133 b 111 130 114 127 118 127 b 123 127 127 131 127 137 z m 118 129 b 115 129 113 130 113 133 b 113 138 116 142 120 142 b 123 142 125 140 125 137 b 125 132 122 129 118 129 z m 135 143 l 132 127 l 134 127 l 135 136 b 136 140 139 142 142 142 b 145 142 146 140 146 138 b 146 137 146 137 146 137 l 144 127 l 145 127 l 147 136 b 148 140 150 142 154 142 b 156 142 158 140 158 138 b 158 137 158 137 158 137 l 156 127 l 157 127 l 159 137 b 159 137 159 138 159 138 b 159 141 157 143 154 143 b 151 143 149 142 147 140 b 147 142 145 143 142 143 b 140 143 138 142 136 140 l 137 143 z m 188 143 b 185 143 183 142 182 140 b 181 142 179 143 176 143 b 174 143 171 142 170 140 l 171 143 l 169 143 l 166 127 l 168 127 l 169 136 b 170 140 172 142 175 142 b 178 142 180 140 180 138 b 180 137 180 137 180 137 l 178 127 l 180 127 l 181 136 b 182 140 185 142 188 142 b 191 142 192 140 192 138 b 192 137 192 137 192 137 l 190 127 l 191 127 l 193 137 b 193 137 193 138 193 138 b 193 141 191 143 188 143 z m 215 135 b 215 135 215 136 215 137 b 215 141 212 143 208 143 b 203 143 200 139 200 133 b 200 129 203 127 207 127 b 209 127 212 128 213 129 l 212 130 b 211 129 209 129 207 129 b 203 129 201 130 201 133 b 201 134 201 134 201 135 z m 208 142 b 211 142 213 140 213 137 b 213 137 213 136 213 136 l 201 136 b 202 140 205 142 208 142 z m 223 143 l 220 127 l 222 127 l 223 135 b 224 140 226 141 230 141 b 230 141 230 141 230 141 l 230 143 b 227 143 226 142 224 140 l 225 143 z m 242 142 b 245 142 246 141 247 140 l 248 140 b 247 142 245 143 242 143 b 238 143 234 139 234 133 b 234 130 236 127 241 127 b 243 127 245 128 247 130 l 246 130 b 245 129 243 129 241 129 b 238 129 235 130 235 133 b 235 138 238 142 242 142 z m 259 148 b 259 149 259 149 258 149 b 257 149 256 149 256 148 b 256 147 257 147 257 147 b 259 147 259 147 259 148 z m 253 127 l 254 127 l 257 143 l 256 143 z m 277 127 l 280 143 l 279 143 l 278 139 b 277 141 275 143 272 143 b 266 143 263 139 263 133 b 263 129 266 127 270 127 b 273 127 275 128 276 130 l 276 127 z m 270 129 b 266 129 265 130 265 133 b 265 138 268 142 272 142 b 275 142 277 140 277 137 b 277 132 274 129 270 129 z m 287 127 l 292 150 l 290 150 l 286 127 z m 295 123 l 297 127 b 297 127 297 128 297 129 b 297 129 297 130 296 130 b 295 130 295 129 295 128 b 295 128 295 127 295 127 l 294 123 z m 324 134 b 330 134 334 137 334 143 b 334 146 331 149 327 149 l 320 149 l 315 127 l 317 127 l 318 134 z m 321 147 l 327 147 b 330 147 332 146 332 143 b 332 138 329 135 324 135 l 318 135 z m 340 127 l 344 150 l 343 150 l 338 127 z m 363 135 b 364 135 364 136 364 137 b 364 141 361 143 357 143 b 352 143 348 139 348 133 b 348 129 351 127 356 127 b 358 127 360 128 362 129 l 361 130 b 360 129 358 129 356 129 b 352 129 350 130 350 133 b 350 134 350 134 350 135 z m 357 142 b 360 142 362 140 362 137 b 362 137 362 136 362 136 l 350 136 b 351 140 353 142 357 142 z m 384 143 l 383 139 b 383 141 380 143 377 143 b 373 143 369 139 369 133 b 369 129 371 127 376 127 b 378 127 380 128 382 130 l 381 127 l 383 127 l 386 143 z m 376 129 b 372 129 370 130 370 133 b 370 138 373 142 377 142 b 381 142 383 140 383 137 b 383 132 380 129 376 129 z m 395 129 b 394 129 392 129 391 130 l 389 129 b 391 128 393 127 395 127 b 400 127 402 129 402 132 b 402 137 393 134 393 138 b 393 140 395 142 398 142 b 400 142 402 141 403 140 l 403 141 b 402 143 400 143 398 143 b 394 143 392 141 392 138 b 392 133 401 136 401 132 b 401 130 399 129 395 129 z m 423 135 b 423 135 423 136 423 137 b 423 141 420 143 416 143 b 411 143 408 139 408 133 b 408 129 411 127 415 127 b 417 127 420 128 421 129 l 420 130 b 419 129 417 129 415 129 b 411 129 409 130 409 133 b 409 134 409 134 409 135 z m 416 142 b 419 142 421 140 421 137 b 421 137 421 136 421 136 l 409 136 b 411 140 413 142 416 142 z m 446 127 l 459 149 l 458 149 l 446 129 l 441 149 l 439 149 l 445 127 z m 467 148 b 467 149 466 149 465 149 b 465 149 464 149 464 148 b 464 147 465 147 465 147 b 466 147 467 147 467 148 z m 461 127 l 462 127 l 465 143 l 464 143 z m 478 142 b 479 142 481 141 482 140 l 483 141 b 482 143 480 143 478 143 b 474 143 471 141 471 138 b 471 133 480 136 480 132 b 480 130 479 129 476 129 b 473 129 471 129 470 130 l 469 129 b 470 128 473 127 475 127 b 479 127 482 129 482 132 b 482 137 473 134 473 138 b 473 140 475 142 478 142 z m 488 127 l 489 127 l 493 143 l 491 143 z m 494 148 b 494 149 493 149 493 149 b 492 149 491 149 491 148 b 491 147 492 147 493 147 b 493 147 494 147 494 148 z m 502 146 l 502 143 l 499 143 l 499 141 l 501 141 l 499 132 b 499 131 499 131 499 130 b 499 128 500 127 503 127 b 504 127 505 127 506 128 l 505 129 b 505 129 504 128 503 128 b 502 128 500 129 500 130 b 500 131 500 131 501 132 l 503 141 l 508 141 l 508 143 l 503 143 l 503 146 z m 942 573 l 29 573 l 29 570 l 942 570 z m 942 671 l 29 671 l 29 668 l 942 668 z m 942 681 l 29 681 l 29 679 l 942 679 z m 30 25 l 943 25 l 943 27 l 30 27 z m 30 36 l 943 36 l 943 38 l 30 38 z m 517 135 l 517 133 l 943 133 l 943 135 z m 603 212 b 608 212 612 226 612 246 b 612 259 611 263 606 264 b 602 266 600 263 601 244 b 601 225 600 221 594 220 b 588 219 588 220 590 231 b 591 240 591 241 585 241 b 579 241 577 239 577 231 b 577 225 580 218 584 216 b 587 212 588 208 587 201 b 585 192 586 191 594 191 b 599 191 603 192 605 194 b 606 196 605 198 603 198 b 601 198 599 201 599 205 b 599 209 601 212 603 212 z m 569 255 b 573 256 576 256 577 253 b 579 245 585 249 585 258 b 585 265 584 267 579 265 b 576 264 566 264 557 264 b 543 264 541 262 541 256 b 541 250 543 249 549 251 b 556 253 556 252 555 222 b 554 191 554 191 562 191 b 570 191 573 196 567 200 b 565 201 563 213 563 228 b 563 248 564 253 569 255 z m 643 218 b 654 223 658 230 658 243 b 658 256 648 264 633 264 l 620 264 l 621 227 b 621 194 623 191 629 191 b 632 191 637 192 638 194 b 639 196 638 198 636 198 b 628 198 633 212 643 218 z m 631 235 b 628 252 628 256 635 256 b 649 256 656 238 646 228 b 639 220 634 223 631 235 z m 722 283 b 737 278 741 278 759 281 b 784 286 800 297 812 316 b 841 361 817 404 766 401 b 741 400 737 395 755 390 b 773 385 780 375 780 351 b 779 335 777 326 770 314 b 754 287 736 281 725 298 b 720 306 719 313 721 344 l 724 380 l 714 384 b 699 390 690 388 688 380 b 687 375 684 373 680 375 b 677 376 667 378 659 379 b 646 381 643 379 632 370 b 621 360 620 357 618 335 b 616 300 609 300 604 335 b 600 366 592 378 573 382 b 565 384 561 382 552 373 l 541 363 l 541 374 b 540 381 540 393 541 401 b 542 415 543 417 552 417 b 557 417 570 421 581 426 b 605 438 615 455 613 475 b 611 493 602 503 585 508 b 551 518 513 487 506 442 b 504 429 503 428 495 428 l 485 428 l 488 454 b 490 480 490 481 482 484 b 461 489 459 487 454 462 b 450 440 449 438 441 440 b 437 441 424 443 411 444 b 387 447 353 439 344 429 b 336 420 355 419 375 428 b 389 434 398 435 418 434 b 432 433 444 431 444 431 b 445 430 445 403 444 371 b 441 305 434 292 433 348 l 432 384 l 418 387 b 406 390 395 389 395 384 b 395 382 388 382 379 383 b 367 384 360 383 353 378 b 334 366 327 330 341 308 b 352 289 348 249 336 249 b 327 249 326 264 327 356 b 328 436 327 445 321 458 b 302 496 265 489 251 444 b 248 434 246 423 246 420 b 246 405 242 402 233 411 b 214 430 175 432 149 414 b 127 400 117 383 115 356 b 114 334 115 332 127 320 b 136 311 144 307 156 305 b 184 301 210 311 184 316 b 166 319 159 330 159 353 b 159 386 179 420 199 420 b 210 420 214 404 216 344 b 218 311 220 288 222 285 b 225 283 233 280 241 279 l 256 277 l 258 340 b 259 375 262 412 264 422 b 269 444 283 473 288 471 b 290 470 291 456 291 438 b 289 298 289 287 295 268 b 298 257 304 246 310 242 b 315 238 325 234 332 234 b 350 234 359 248 359 273 l 359 293 l 371 293 b 381 293 386 295 391 303 l 398 312 l 408 304 b 415 297 420 296 432 297 b 444 299 446 298 448 291 b 451 278 467 261 480 256 b 502 249 517 260 523 287 b 524 294 527 299 532 299 b 546 302 549 308 549 329 b 549 352 554 369 562 369 b 565 369 567 363 567 343 b 567 320 568 317 577 307 b 588 296 602 293 614 300 b 619 302 622 302 627 296 b 637 285 659 281 672 287 b 678 290 684 296 685 300 b 688 309 692 309 699 299 b 702 294 712 287 722 283 z m 551 464 b 562 499 584 513 591 490 b 599 469 587 447 562 434 b 539 422 538 425 551 464 z m 386 318 b 379 303 374 305 371 323 b 367 352 377 378 388 371 b 394 367 392 330 386 318 z m 496 275 b 488 288 483 326 483 376 b 483 420 484 425 496 417 b 499 416 501 397 502 376 b 503 355 506 323 507 305 b 509 270 506 260 496 275 z m 672 303 b 666 292 658 295 656 309 b 653 326 656 346 664 357 b 670 367 670 367 675 360 b 681 352 679 316 672 303 z m 697 252 b 698 251 700 255 700 259 b 702 267 700 268 693 265 b 689 264 680 264 674 264 l 663 264 l 663 227 b 663 192 664 190 670 192 b 675 193 683 194 690 194 b 699 194 700 196 699 202 b 697 207 696 208 693 205 b 691 203 685 202 681 202 b 673 202 672 203 672 215 b 672 228 673 228 684 226 b 693 224 694 225 694 232 b 694 241 689 244 685 238 b 681 231 672 234 672 244 b 672 256 681 259 697 252 z m 84 58 l 91 76 b 92 81 93 85 94 89 b 95 85 97 81 98 77 l 104 58 l 110 58 l 123 97 l 116 97 l 110 77 b 109 73 108 68 107 64 b 106 68 105 73 104 77 l 98 97 l 92 97 l 85 77 b 84 73 82 68 81 64 b 80 68 79 73 78 77 l 73 97 l 65 97 l 77 58 z m 154 58 l 160 76 b 162 81 163 85 164 89 b 165 85 166 81 168 77 l 174 58 l 180 58 l 193 97 l 186 97 l 180 77 b 179 73 178 68 177 64 b 176 68 175 73 174 77 l 167 97 l 161 97 l 155 77 b 153 73 152 68 151 64 b 150 68 149 73 148 77 l 143 97 l 135 97 l 147 58 z m 224 58 l 230 76 b 232 81 233 85 234 89 b 235 85 236 81 238 77 l 244 58 l 250 58 l 263 97 l 256 97 l 250 77 b 249 73 248 68 247 64 b 246 68 245 73 243 77 l 237 97 l 231 97 l 224 77 b 223 73 222 68 221 64 b 220 68 219 73 218 77 l 212 97 l 205 97 l 217 58 z m 279 57 b 282 57 283 59 283 62 b 283 65 281 67 279 67 b 276 67 274 65 274 62 b 274 59 276 57 279 57 z m 335 58 l 335 81 b 335 95 326 99 320 99 b 314 99 309 94 307 91 l 306 97 l 300 97 b 300 94 300 91 300 86 l 300 58 l 307 58 l 307 82 b 307 83 308 84 308 85 b 309 89 313 93 318 93 b 325 93 327 87 327 80 l 327 58 z m 351 68 b 351 62 355 57 364 57 b 369 57 373 59 376 62 l 376 58 l 383 58 b 382 61 382 64 382 67 l 382 82 b 382 90 379 99 367 99 b 362 99 358 97 354 95 l 356 90 b 359 92 362 93 366 93 b 374 93 375 87 375 83 b 360 83 351 77 351 68 z m 376 78 l 376 71 b 376 70 375 70 375 68 b 374 65 370 62 365 62 b 362 62 359 64 359 69 b 359 77 367 78 376 78 z m 421 92 l 421 97 l 411 97 l 411 109 l 403 107 l 403 97 l 397 97 l 397 92 l 403 92 l 403 70 b 403 65 405 62 406 60 b 408 58 411 57 414 57 b 417 57 419 57 421 58 l 420 63 b 420 63 418 62 416 62 b 412 62 411 65 411 70 l 411 92 z m 471 58 l 471 81 b 471 95 463 99 458 99 b 455 99 452 97 450 96 b 448 95 446 93 445 91 l 445 116 l 437 116 l 437 58 l 445 58 l 445 82 b 445 83 445 84 445 85 b 447 89 450 93 455 93 b 462 93 464 87 464 80 l 464 58 z m 504 99 b 499 99 494 97 491 95 l 493 90 b 496 92 499 93 503 93 b 511 93 512 87 512 83 b 497 83 488 77 488 68 b 488 62 493 57 500 57 b 506 57 510 59 512 62 l 513 62 l 514 58 l 520 58 b 520 61 519 64 519 67 l 519 82 b 519 90 516 99 504 99 z m 512 71 b 512 70 512 70 512 68 b 511 65 508 62 502 62 b 499 62 496 64 496 69 b 496 77 505 78 512 78 z m 541 107 l 541 97 l 534 97 l 534 92 l 541 92 l 541 70 b 541 65 541 62 543 60 b 545 58 548 57 551 57 b 554 57 556 57 558 58 l 557 63 b 556 63 555 62 553 62 b 549 62 547 65 547 70 l 547 92 l 558 92 l 558 97 l 547 97 l 547 109 z m 578 49 b 576 47 574 46 572 45 l 574 39 b 576 39 579 41 583 44 b 588 49 591 55 596 69 l 607 97 l 600 97 l 591 74 b 591 71 590 68 589 66 b 588 68 587 71 587 74 l 577 97 l 570 97 l 585 61 b 585 60 585 59 585 59 b 585 58 585 58 584 57 b 583 53 581 50 578 49 z m 629 41 l 629 63 b 632 59 637 57 641 57 b 651 57 659 64 659 78 b 659 90 652 99 643 99 b 637 99 632 96 629 91 l 628 97 l 621 97 b 622 94 622 89 622 85 l 622 41 z m 629 80 b 629 82 629 83 630 83 b 631 89 636 93 641 93 b 648 93 652 86 652 77 b 652 68 648 62 640 62 b 635 62 631 66 629 71 b 629 71 629 73 629 74 z m 709 79 b 709 87 706 99 693 99 b 681 99 674 89 674 77 b 674 65 682 57 694 57 b 700 57 705 58 707 59 l 706 64 b 703 63 700 62 695 62 b 688 62 681 67 681 76 l 709 76 b 709 77 709 78 709 79 z m 681 81 b 682 86 685 93 692 93 b 700 93 702 86 702 81 z m 734 62 b 734 65 732 67 729 67 b 726 67 724 65 724 62 b 724 59 726 57 729 57 b 732 57 734 59 734 62 z m 769 93 b 773 93 776 91 778 91 l 779 96 b 778 97 773 98 769 98 b 756 98 748 89 748 77 b 748 65 756 57 768 57 b 773 57 778 58 779 59 l 778 64 b 776 64 773 62 769 62 b 761 62 755 68 755 77 b 755 86 760 93 769 93 z m 831 78 b 831 90 824 99 813 99 b 801 99 793 91 793 77 b 793 65 801 57 811 57 b 821 57 831 63 831 78 z m 800 77 b 800 85 804 93 812 93 b 820 93 824 84 824 77 b 824 68 819 62 812 62 b 805 62 800 68 800 77 z m 906 58 l 906 81 b 906 95 898 99 893 99 b 889 99 886 97 884 96 b 882 94 881 93 879 90 b 878 95 873 99 868 99 b 861 99 858 95 855 91 l 855 97 l 849 97 b 849 94 849 91 849 86 l 849 58 l 856 58 l 856 82 b 856 83 856 84 857 85 b 858 89 861 93 866 93 b 871 93 874 88 874 82 l 874 58 l 881 58 l 881 82 b 881 83 881 85 881 86 b 882 89 886 93 890 93 b 896 93 899 88 899 80 l 899 58 z"},";":{"x_min":0,"x_max":191,"ha":191,"o":"m 197 307 b 219 307 253 329 259 356 b 266 384 268 405 246 405 b 224 405 189 383 180 356 b 170 329 175 307 197 307 z m 65 42 b 60 16 75 -2 97 0 b 95 -12 89 -22 76 -33 b 63 -44 75 -49 85 -49 b 105 -49 136 -6 144 10 b 162 48 167 93 133 93 b 106 93 72 68 65 42 z"},"J":{"x_min":0,"x_max":393,"ha":393,"o":"m 193 43 b 164 43 156 59 166 87 b 173 108 187 105 195 117 b 204 131 198 143 188 143 b 163 143 147 96 142 78 b 134 47 139 1 207 1 b 309 1 354 63 384 153 b 391 174 487 427 502 476 b 517 521 539 577 599 577 b 636 578 642 607 608 602 b 553 594 557 622 515 646 b 495 658 475 664 453 664 b 425 664 395 654 355 638 b 308 617 235 591 201 496 b 168 408 242 381 271 378 b 278 377 284 377 290 377 b 310 377 325 381 337 390 b 352 402 345 422 324 417 b 311 413 308 398 287 398 b 257 398 252 445 274 505 b 293 558 315 597 367 619 b 375 622 384 624 394 624 b 418 624 445 614 467 602 b 489 591 503 582 517 577 b 463 564 415 514 397 465 b 381 419 299 175 291 153 b 276 112 245 43 193 43 z"},"V":{"x_min":0,"x_max":653,"ha":653,"o":"m 787 663 b 760 662 745 615 764 619 b 774 621 782 622 788 622 b 795 622 800 621 804 616 b 812 605 807 586 798 561 b 776 499 721 388 630 230 b 587 156 517 45 493 45 b 452 45 468 203 486 354 b 492 408 495 457 517 494 b 536 528 561 574 612 575 b 649 575 654 605 621 599 b 548 588 570 651 508 662 b 496 665 482 666 468 666 b 366 666 236 591 200 494 b 168 406 241 380 270 376 b 277 375 284 375 290 375 b 309 375 324 379 336 388 b 352 400 344 420 323 415 b 310 411 307 397 286 397 b 256 397 251 443 273 503 b 292 556 312 603 360 625 b 380 634 397 638 412 638 b 432 638 449 631 467 619 b 494 599 506 582 529 575 b 422 546 380 415 371 318 b 361 207 349 87 388 23 b 398 7 424 1 452 1 b 484 1 518 10 533 23 b 594 77 636 171 673 230 b 755 364 835 535 856 575 b 862 584 867 593 871 599 b 920 610 966 646 989 642 b 1007 638 1004 624 1006 608 b 1006 604 1009 603 1014 603 b 1028 603 1054 618 1052 628 b 1043 657 994 671 966 671 b 952 671 937 669 918 662 b 891 652 871 633 838 633 b 807 633 802 663 787 663 z"},"\"":{"x_min":0,"x_max":244,"ha":244,"o":"m 341 661 b 315 663 285 645 278 626 b 271 606 280 588 271 562 b 267 551 274 547 281 547 b 288 547 295 550 296 553 b 316 588 345 619 353 639 b 357 651 350 661 341 661 z m 415 661 b 389 663 359 645 352 626 b 345 606 354 588 345 562 b 341 551 348 547 355 547 b 362 547 369 550 370 553 b 390 588 419 619 427 639 b 431 651 424 661 415 661 z"},"7":{"x_min":0,"x_max":964,"ha":964,"o":"m 29 642 l 29 599 l 39 599 l 39 610 l 48 610 b 59 610 66 616 66 626 b 66 636 59 642 48 642 z m 56 626 b 56 621 53 619 47 619 l 39 619 l 39 634 l 47 634 b 53 634 56 631 56 626 z m 119 634 l 119 642 l 87 642 l 87 599 l 119 599 l 119 607 l 97 607 l 97 616 l 116 616 l 116 624 l 97 624 l 97 634 z m 178 626 b 178 636 171 642 160 642 l 142 642 l 142 599 l 151 599 l 151 611 l 160 611 l 168 599 l 178 599 l 169 613 b 175 615 178 619 178 626 z m 159 619 l 151 619 l 151 634 l 159 634 b 165 634 168 631 168 626 b 168 621 165 619 159 619 z m 214 606 b 209 606 203 608 200 610 l 197 603 b 200 600 207 598 213 598 b 226 598 232 604 232 611 b 232 627 207 622 207 630 b 207 632 209 634 215 634 b 219 634 223 633 227 631 l 230 639 b 226 641 221 642 215 642 b 203 642 198 636 198 629 b 198 613 222 619 222 610 b 222 608 219 606 214 606 z m 250 620 b 250 607 260 598 273 598 b 286 598 296 607 296 620 b 296 633 286 642 273 642 b 260 642 250 633 250 620 z m 286 620 b 286 612 280 607 273 607 b 265 607 260 612 260 620 b 260 628 265 634 273 634 b 280 634 286 628 286 620 z m 326 642 l 318 642 l 318 599 l 327 599 l 327 625 l 348 599 l 356 599 l 356 642 l 347 642 l 347 616 z m 375 599 l 385 599 l 388 608 l 408 608 l 412 599 l 422 599 l 403 642 l 394 642 z m 405 616 l 392 616 l 398 632 z m 441 642 l 441 599 l 471 599 l 471 607 l 450 607 l 450 642 z m 522 642 l 522 617 b 522 605 529 598 541 598 b 553 598 560 605 560 617 l 560 642 l 550 642 l 550 618 b 550 610 547 607 541 607 b 535 607 532 610 532 618 l 532 642 z m 598 606 b 593 606 588 608 584 610 l 581 603 b 585 600 591 598 598 598 b 610 598 615 604 615 611 b 615 627 591 622 591 630 b 591 632 594 634 599 634 b 603 634 607 633 611 631 l 614 639 b 610 641 605 642 599 642 b 587 642 582 636 582 629 b 582 613 606 619 606 610 b 606 608 604 606 598 606 z m 669 634 l 669 642 l 637 642 l 637 599 l 669 599 l 669 607 l 646 607 l 646 616 l 666 616 l 666 624 l 646 624 l 646 634 z m 720 620 b 720 607 730 598 743 598 b 756 598 766 607 766 620 b 766 633 756 642 743 642 b 730 642 720 633 720 620 z m 756 620 b 756 612 750 607 743 607 b 735 607 730 612 730 620 b 730 628 735 634 743 634 b 750 634 756 628 756 620 z m 796 642 l 788 642 l 788 599 l 797 599 l 797 625 l 818 599 l 826 599 l 826 642 l 817 642 l 817 616 z m 851 642 l 851 599 l 881 599 l 881 607 l 860 607 l 860 642 z m 917 599 l 917 614 l 933 642 l 923 642 l 913 622 l 901 642 l 891 642 l 907 614 l 907 599 z m 37 138 l 27 138 l 28 147 l 40 147 l 41 149 l 27 149 l 23 127 l 24 127 l 26 137 l 37 137 z m 43 133 b 43 130 45 127 50 127 b 55 127 59 131 59 137 b 59 141 56 143 52 143 b 47 143 43 139 43 133 z m 57 137 b 57 132 54 129 50 129 b 47 129 44 130 44 133 b 44 138 47 142 51 142 b 55 142 57 140 57 137 z m 67 143 l 64 127 l 65 127 l 67 135 b 68 140 70 141 74 141 b 74 141 74 141 74 141 l 74 143 b 71 143 69 142 68 140 l 68 143 z m 101 147 b 104 147 106 146 107 144 l 109 146 b 107 147 104 149 101 149 b 94 149 89 143 89 136 b 89 130 92 127 98 127 b 101 127 104 128 106 130 l 105 131 b 104 129 101 129 98 129 b 93 129 91 132 91 136 b 91 142 95 147 101 147 z m 127 137 b 127 141 124 143 120 143 b 115 143 111 139 111 133 b 111 130 114 127 118 127 b 123 127 127 131 127 137 z m 118 129 b 115 129 113 130 113 133 b 113 138 116 142 120 142 b 123 142 125 140 125 137 b 125 132 122 129 118 129 z m 135 143 l 132 127 l 134 127 l 135 136 b 136 140 139 142 142 142 b 145 142 146 140 146 138 b 146 137 146 137 146 137 l 144 127 l 145 127 l 147 136 b 148 140 150 142 154 142 b 156 142 158 140 158 138 b 158 137 158 137 158 137 l 156 127 l 157 127 l 159 137 b 159 137 159 138 159 138 b 159 141 157 143 154 143 b 151 143 149 142 147 140 b 147 142 145 143 142 143 b 140 143 138 142 136 140 l 137 143 z m 188 143 b 185 143 183 142 182 140 b 181 142 179 143 176 143 b 174 143 171 142 170 140 l 171 143 l 169 143 l 166 127 l 168 127 l 169 136 b 170 140 172 142 175 142 b 178 142 180 140 180 138 b 180 137 180 137 180 137 l 178 127 l 180 127 l 181 136 b 182 140 185 142 188 142 b 191 142 192 140 192 138 b 192 137 192 137 192 137 l 190 127 l 191 127 l 193 137 b 193 137 193 138 193 138 b 193 141 191 143 188 143 z m 215 135 b 215 135 215 136 215 137 b 215 141 212 143 208 143 b 203 143 200 139 200 133 b 200 129 203 127 207 127 b 209 127 212 128 213 129 l 212 130 b 211 129 209 129 207 129 b 203 129 201 130 201 133 b 201 134 201 134 201 135 z m 208 142 b 211 142 213 140 213 137 b 213 137 213 136 213 136 l 201 136 b 202 140 205 142 208 142 z m 223 143 l 220 127 l 222 127 l 223 135 b 224 140 226 141 230 141 b 230 141 230 141 230 141 l 230 143 b 227 143 226 142 224 140 l 225 143 z m 242 142 b 245 142 246 141 247 140 l 248 140 b 247 142 245 143 242 143 b 238 143 234 139 234 133 b 234 130 236 127 241 127 b 243 127 245 128 247 130 l 246 130 b 245 129 243 129 241 129 b 238 129 235 130 235 133 b 235 138 238 142 242 142 z m 259 148 b 259 149 259 149 258 149 b 257 149 256 149 256 148 b 256 147 257 147 257 147 b 259 147 259 147 259 148 z m 253 127 l 254 127 l 257 143 l 256 143 z m 277 127 l 280 143 l 279 143 l 278 139 b 277 141 275 143 272 143 b 266 143 263 139 263 133 b 263 129 266 127 270 127 b 273 127 275 128 276 130 l 276 127 z m 270 129 b 266 129 265 130 265 133 b 265 138 268 142 272 142 b 275 142 277 140 277 137 b 277 132 274 129 270 129 z m 287 127 l 292 150 l 290 150 l 286 127 z m 295 123 l 297 127 b 297 127 297 128 297 129 b 297 129 297 130 296 130 b 295 130 295 129 295 128 b 295 128 295 127 295 127 l 294 123 z m 324 134 b 330 134 334 137 334 143 b 334 146 331 149 327 149 l 320 149 l 315 127 l 317 127 l 318 134 z m 321 147 l 327 147 b 330 147 332 146 332 143 b 332 138 329 135 324 135 l 318 135 z m 340 127 l 344 150 l 343 150 l 338 127 z m 363 135 b 364 135 364 136 364 137 b 364 141 361 143 357 143 b 352 143 348 139 348 133 b 348 129 351 127 356 127 b 358 127 360 128 362 129 l 361 130 b 360 129 358 129 356 129 b 352 129 350 130 350 133 b 350 134 350 134 350 135 z m 357 142 b 360 142 362 140 362 137 b 362 137 362 136 362 136 l 350 136 b 351 140 353 142 357 142 z m 384 143 l 383 139 b 383 141 380 143 377 143 b 373 143 369 139 369 133 b 369 129 371 127 376 127 b 378 127 380 128 382 130 l 381 127 l 383 127 l 386 143 z m 376 129 b 372 129 370 130 370 133 b 370 138 373 142 377 142 b 381 142 383 140 383 137 b 383 132 380 129 376 129 z m 395 129 b 394 129 392 129 391 130 l 389 129 b 391 128 393 127 395 127 b 400 127 402 129 402 132 b 402 137 393 134 393 138 b 393 140 395 142 398 142 b 400 142 402 141 403 140 l 403 141 b 402 143 400 143 398 143 b 394 143 392 141 392 138 b 392 133 401 136 401 132 b 401 130 399 129 395 129 z m 423 135 b 423 135 423 136 423 137 b 423 141 420 143 416 143 b 411 143 408 139 408 133 b 408 129 411 127 415 127 b 417 127 420 128 421 129 l 420 130 b 419 129 417 129 415 129 b 411 129 409 130 409 133 b 409 134 409 134 409 135 z m 416 142 b 419 142 421 140 421 137 b 421 137 421 136 421 136 l 409 136 b 411 140 413 142 416 142 z m 446 127 l 459 149 l 458 149 l 446 129 l 441 149 l 439 149 l 445 127 z m 467 148 b 467 149 466 149 465 149 b 465 149 464 149 464 148 b 464 147 465 147 465 147 b 466 147 467 147 467 148 z m 461 127 l 462 127 l 465 143 l 464 143 z m 478 142 b 479 142 481 141 482 140 l 483 141 b 482 143 480 143 478 143 b 474 143 471 141 471 138 b 471 133 480 136 480 132 b 480 130 479 129 476 129 b 473 129 471 129 470 130 l 469 129 b 470 128 473 127 475 127 b 479 127 482 129 482 132 b 482 137 473 134 473 138 b 473 140 475 142 478 142 z m 488 127 l 489 127 l 493 143 l 491 143 z m 494 148 b 494 149 493 149 493 149 b 492 149 491 149 491 148 b 491 147 492 147 493 147 b 493 147 494 147 494 148 z m 502 146 l 502 143 l 499 143 l 499 141 l 501 141 l 499 132 b 499 131 499 131 499 130 b 499 128 500 127 503 127 b 504 127 505 127 506 128 l 505 129 b 505 129 504 128 503 128 b 502 128 500 129 500 130 b 500 131 500 131 501 132 l 503 141 l 508 141 l 508 143 l 503 143 l 503 146 z m 942 573 l 29 573 l 29 570 l 942 570 z m 942 671 l 29 671 l 29 668 l 942 668 z m 942 681 l 29 681 l 29 679 l 942 679 z m 30 25 l 943 25 l 943 27 l 30 27 z m 30 36 l 943 36 l 943 38 l 30 38 z m 517 135 l 517 133 l 943 133 l 943 135 z m 603 212 b 608 212 612 226 612 246 b 612 259 611 263 606 264 b 602 266 600 263 601 244 b 601 225 600 221 594 220 b 588 219 588 220 590 231 b 591 240 591 241 585 241 b 579 241 577 239 577 231 b 577 225 580 218 584 216 b 587 212 588 208 587 201 b 585 192 586 191 594 191 b 599 191 603 192 605 194 b 606 196 605 198 603 198 b 601 198 599 201 599 205 b 599 209 601 212 603 212 z m 569 255 b 573 256 576 256 577 253 b 579 245 585 249 585 258 b 585 265 584 267 579 265 b 576 264 566 264 557 264 b 543 264 541 262 541 256 b 541 250 543 249 549 251 b 556 253 556 252 555 222 b 554 191 554 191 562 191 b 570 191 573 196 567 200 b 565 201 563 213 563 228 b 563 248 564 253 569 255 z m 643 218 b 654 223 658 230 658 243 b 658 256 648 264 633 264 l 620 264 l 621 227 b 621 194 623 191 629 191 b 632 191 637 192 638 194 b 639 196 638 198 636 198 b 628 198 633 212 643 218 z m 631 235 b 628 252 628 256 635 256 b 649 256 656 238 646 228 b 639 220 634 223 631 235 z m 722 283 b 737 278 741 278 759 281 b 784 286 800 297 812 316 b 841 361 817 404 766 401 b 741 400 737 395 755 390 b 773 385 780 375 780 351 b 779 335 777 326 770 314 b 754 287 736 281 725 298 b 720 306 719 313 721 344 l 724 380 l 714 384 b 699 390 690 388 688 380 b 687 375 684 373 680 375 b 677 376 667 378 659 379 b 646 381 643 379 632 370 b 621 360 620 357 618 335 b 616 300 609 300 604 335 b 600 366 592 378 573 382 b 565 384 561 382 552 373 l 541 363 l 541 374 b 540 381 540 393 541 401 b 542 415 543 417 552 417 b 557 417 570 421 581 426 b 605 438 615 455 613 475 b 611 493 602 503 585 508 b 551 518 513 487 506 442 b 504 429 503 428 495 428 l 485 428 l 488 454 b 490 480 490 481 482 484 b 461 489 459 487 454 462 b 450 440 449 438 441 440 b 437 441 424 443 411 444 b 387 447 353 439 344 429 b 336 420 355 419 375 428 b 389 434 398 435 418 434 b 432 433 444 431 444 431 b 445 430 445 403 444 371 b 441 305 434 292 433 348 l 432 384 l 418 387 b 406 390 395 389 395 384 b 395 382 388 382 379 383 b 367 384 360 383 353 378 b 334 366 327 330 341 308 b 352 289 348 249 336 249 b 327 249 326 264 327 356 b 328 436 327 445 321 458 b 302 496 265 489 251 444 b 248 434 246 423 246 420 b 246 405 242 402 233 411 b 214 430 175 432 149 414 b 127 400 117 383 115 356 b 114 334 115 332 127 320 b 136 311 144 307 156 305 b 184 301 210 311 184 316 b 166 319 159 330 159 353 b 159 386 179 420 199 420 b 210 420 214 404 216 344 b 218 311 220 288 222 285 b 225 283 233 280 241 279 l 256 277 l 258 340 b 259 375 262 412 264 422 b 269 444 283 473 288 471 b 290 470 291 456 291 438 b 289 298 289 287 295 268 b 298 257 304 246 310 242 b 315 238 325 234 332 234 b 350 234 359 248 359 273 l 359 293 l 371 293 b 381 293 386 295 391 303 l 398 312 l 408 304 b 415 297 420 296 432 297 b 444 299 446 298 448 291 b 451 278 467 261 480 256 b 502 249 517 260 523 287 b 524 294 527 299 532 299 b 546 302 549 308 549 329 b 549 352 554 369 562 369 b 565 369 567 363 567 343 b 567 320 568 317 577 307 b 588 296 602 293 614 300 b 619 302 622 302 627 296 b 637 285 659 281 672 287 b 678 290 684 296 685 300 b 688 309 692 309 699 299 b 702 294 712 287 722 283 z m 551 464 b 562 499 584 513 591 490 b 599 469 587 447 562 434 b 539 422 538 425 551 464 z m 386 318 b 379 303 374 305 371 323 b 367 352 377 378 388 371 b 394 367 392 330 386 318 z m 496 275 b 488 288 483 326 483 376 b 483 420 484 425 496 417 b 499 416 501 397 502 376 b 503 355 506 323 507 305 b 509 270 506 260 496 275 z m 672 303 b 666 292 658 295 656 309 b 653 326 656 346 664 357 b 670 367 670 367 675 360 b 681 352 679 316 672 303 z m 697 252 b 698 251 700 255 700 259 b 702 267 700 268 693 265 b 689 264 680 264 674 264 l 663 264 l 663 227 b 663 192 664 190 670 192 b 675 193 683 194 690 194 b 699 194 700 196 699 202 b 697 207 696 208 693 205 b 691 203 685 202 681 202 b 673 202 672 203 672 215 b 672 228 673 228 684 226 b 693 224 694 225 694 232 b 694 241 689 244 685 238 b 681 231 672 234 672 244 b 672 256 681 259 697 252 z m 84 58 l 91 76 b 92 81 93 85 94 89 b 95 85 97 81 98 77 l 104 58 l 110 58 l 123 97 l 116 97 l 110 77 b 109 73 108 68 107 64 b 106 68 105 73 104 77 l 98 97 l 92 97 l 85 77 b 84 73 82 68 81 64 b 80 68 79 73 78 77 l 73 97 l 65 97 l 77 58 z m 154 58 l 160 76 b 162 81 163 85 164 89 b 165 85 166 81 168 77 l 174 58 l 180 58 l 193 97 l 186 97 l 180 77 b 179 73 178 68 177 64 b 176 68 175 73 174 77 l 167 97 l 161 97 l 155 77 b 153 73 152 68 151 64 b 150 68 149 73 148 77 l 143 97 l 135 97 l 147 58 z m 224 58 l 230 76 b 232 81 233 85 234 89 b 235 85 236 81 238 77 l 244 58 l 250 58 l 263 97 l 256 97 l 250 77 b 249 73 248 68 247 64 b 246 68 245 73 243 77 l 237 97 l 231 97 l 224 77 b 223 73 222 68 221 64 b 220 68 219 73 218 77 l 212 97 l 205 97 l 217 58 z m 279 57 b 282 57 283 59 283 62 b 283 65 281 67 279 67 b 276 67 274 65 274 62 b 274 59 276 57 279 57 z m 335 58 l 335 81 b 335 95 326 99 320 99 b 314 99 309 94 307 91 l 306 97 l 300 97 b 300 94 300 91 300 86 l 300 58 l 307 58 l 307 82 b 307 83 308 84 308 85 b 309 89 313 93 318 93 b 325 93 327 87 327 80 l 327 58 z m 351 68 b 351 62 355 57 364 57 b 369 57 373 59 376 62 l 376 58 l 383 58 b 382 61 382 64 382 67 l 382 82 b 382 90 379 99 367 99 b 362 99 358 97 354 95 l 356 90 b 359 92 362 93 366 93 b 374 93 375 87 375 83 b 360 83 351 77 351 68 z m 376 78 l 376 71 b 376 70 375 70 375 68 b 374 65 370 62 365 62 b 362 62 359 64 359 69 b 359 77 367 78 376 78 z m 421 92 l 421 97 l 411 97 l 411 109 l 403 107 l 403 97 l 397 97 l 397 92 l 403 92 l 403 70 b 403 65 405 62 406 60 b 408 58 411 57 414 57 b 417 57 419 57 421 58 l 420 63 b 420 63 418 62 416 62 b 412 62 411 65 411 70 l 411 92 z m 471 58 l 471 81 b 471 95 463 99 458 99 b 455 99 452 97 450 96 b 448 95 446 93 445 91 l 445 116 l 437 116 l 437 58 l 445 58 l 445 82 b 445 83 445 84 445 85 b 447 89 450 93 455 93 b 462 93 464 87 464 80 l 464 58 z m 504 99 b 499 99 494 97 491 95 l 493 90 b 496 92 499 93 503 93 b 511 93 512 87 512 83 b 497 83 488 77 488 68 b 488 62 493 57 500 57 b 506 57 510 59 512 62 l 513 62 l 514 58 l 520 58 b 520 61 519 64 519 67 l 519 82 b 519 90 516 99 504 99 z m 512 71 b 512 70 512 70 512 68 b 511 65 508 62 502 62 b 499 62 496 64 496 69 b 496 77 505 78 512 78 z m 541 107 l 541 97 l 534 97 l 534 92 l 541 92 l 541 70 b 541 65 541 62 543 60 b 545 58 548 57 551 57 b 554 57 556 57 558 58 l 557 63 b 556 63 555 62 553 62 b 549 62 547 65 547 70 l 547 92 l 558 92 l 558 97 l 547 97 l 547 109 z m 578 49 b 576 47 574 46 572 45 l 574 39 b 576 39 579 41 583 44 b 588 49 591 55 596 69 l 607 97 l 600 97 l 591 74 b 591 71 590 68 589 66 b 588 68 587 71 587 74 l 577 97 l 570 97 l 585 61 b 585 60 585 59 585 59 b 585 58 585 58 584 57 b 583 53 581 50 578 49 z m 629 41 l 629 63 b 632 59 637 57 641 57 b 651 57 659 64 659 78 b 659 90 652 99 643 99 b 637 99 632 96 629 91 l 628 97 l 621 97 b 622 94 622 89 622 85 l 622 41 z m 629 80 b 629 82 629 83 630 83 b 631 89 636 93 641 93 b 648 93 652 86 652 77 b 652 68 648 62 640 62 b 635 62 631 66 629 71 b 629 71 629 73 629 74 z m 709 79 b 709 87 706 99 693 99 b 681 99 674 89 674 77 b 674 65 682 57 694 57 b 700 57 705 58 707 59 l 706 64 b 703 63 700 62 695 62 b 688 62 681 67 681 76 l 709 76 b 709 77 709 78 709 79 z m 681 81 b 682 86 685 93 692 93 b 700 93 702 86 702 81 z m 734 62 b 734 65 732 67 729 67 b 726 67 724 65 724 62 b 724 59 726 57 729 57 b 732 57 734 59 734 62 z m 769 93 b 773 93 776 91 778 91 l 779 96 b 778 97 773 98 769 98 b 756 98 748 89 748 77 b 748 65 756 57 768 57 b 773 57 778 58 779 59 l 778 64 b 776 64 773 62 769 62 b 761 62 755 68 755 77 b 755 86 760 93 769 93 z m 831 78 b 831 90 824 99 813 99 b 801 99 793 91 793 77 b 793 65 801 57 811 57 b 821 57 831 63 831 78 z m 800 77 b 800 85 804 93 812 93 b 820 93 824 84 824 77 b 824 68 819 62 812 62 b 805 62 800 68 800 77 z m 906 58 l 906 81 b 906 95 898 99 893 99 b 889 99 886 97 884 96 b 882 94 881 93 879 90 b 878 95 873 99 868 99 b 861 99 858 95 855 91 l 855 97 l 849 97 b 849 94 849 91 849 86 l 849 58 l 856 58 l 856 82 b 856 83 856 84 857 85 b 858 89 861 93 866 93 b 871 93 874 88 874 82 l 874 58 l 881 58 l 881 82 b 881 83 881 85 881 86 b 882 89 886 93 890 93 b 896 93 899 88 899 80 l 899 58 z"},"S":{"x_min":0,"x_max":408,"ha":408,"o":"m 208 38 b 134 38 127 107 124 146 b 136 183 146 193 165 212 b 176 223 160 233 142 233 b 128 233 113 227 109 212 b 99 174 84 136 56 91 b 40 63 103 1 183 1 b 309 1 417 38 463 164 b 530 349 258 349 316 508 b 340 574 388 622 447 622 b 498 622 508 594 510 555 b 500 518 489 508 470 489 b 459 478 474 468 491 468 b 504 468 518 474 522 489 b 532 527 548 565 575 610 b 591 638 545 663 465 663 b 339 663 238 600 198 489 b 116 264 402 303 341 135 b 315 63 267 38 208 38 z"},"}":{"x_min":0,"x_max":290,"ha":290,"o":"m 332 354 b 298 348 286 408 361 523 b 404 590 400 628 383 643 b 367 658 347 661 311 661 b 284 661 266 606 287 605 b 299 605 323 631 344 631 b 350 631 356 629 361 623 b 372 608 328 561 313 533 b 255 422 230 358 285 336 b 214 314 189 243 166 130 b 161 102 171 54 148 39 b 139 33 132 31 126 31 b 105 31 99 57 88 57 b 65 56 43 0 70 0 b 106 0 129 3 156 18 b 183 34 216 72 222 141 b 231 262 286 317 316 311 b 321 309 326 308 330 308 b 362 308 375 358 347 358 b 343 358 338 357 332 354 z"},"Z":{"x_min":0,"x_max":588,"ha":588,"o":"m 544 654 b 523 660 502 663 481 663 b 373 663 238 599 200 494 b 168 406 241 380 271 376 b 278 375 284 375 290 375 b 309 375 324 379 336 388 b 352 400 344 420 323 415 b 311 411 308 397 287 397 b 258 397 251 443 273 503 b 296 566 342 628 415 628 b 443 628 472 621 499 611 b 512 607 528 605 547 605 b 560 605 574 606 589 608 b 564 588 541 562 517 528 b 465 453 419 388 379 332 b 286 203 218 85 152 50 b 140 44 125 39 114 39 b 109 39 104 40 101 42 b 89 50 90 66 92 85 b 92 90 88 93 83 93 b 69 93 46 80 46 69 b 46 31 100 1 134 1 b 166 1 214 20 241 38 b 275 41 291 19 345 6 b 362 2 377 0 391 0 b 427 0 456 11 491 24 b 535 41 607 79 641 173 b 673 261 607 288 579 291 b 572 292 566 292 560 292 b 543 292 530 289 519 279 b 503 267 510 247 530 252 b 542 256 545 271 564 271 b 592 271 595 225 573 164 b 549 101 524 39 447 39 b 430 39 414 43 393 51 b 370 60 332 75 281 71 b 350 135 407 228 452 287 b 496 344 549 416 590 471 b 677 584 725 635 788 639 b 821 642 830 659 775 663 b 732 666 690 662 648 644 b 638 642 628 641 617 641 b 595 641 572 646 544 654 z"},"x":{"x_min":0,"x_max":483,"ha":483,"o":"m 274 188 b 235 143 184 94 148 94 b 128 94 113 108 106 146 b 103 164 23 55 40 36 b 63 12 87 0 120 1 b 174 3 216 58 278 152 b 281 134 282 116 282 97 b 284 50 273 3 349 3 b 413 3 450 21 501 49 b 524 62 516 92 503 92 b 501 92 498 91 496 89 b 468 62 450 52 438 52 b 414 52 409 88 397 106 b 383 125 372 199 365 273 b 406 323 467 387 508 387 b 528 387 543 373 550 335 b 553 317 632 426 616 444 b 593 469 569 481 536 480 b 477 478 434 414 362 306 b 356 375 354 437 358 445 b 365 458 346 477 330 479 b 328 479 326 479 323 479 b 296 479 279 454 239 454 b 224 454 205 458 182 467 b 167 473 139 417 164 417 b 180 417 196 421 209 421 b 221 421 230 418 232 404 b 243 340 263 272 274 188 z"},")":{"x_min":0,"x_max":322,"ha":322,"o":"m 308 662 b 292 662 282 637 299 637 b 390 639 324 440 289 337 b 225 157 130 32 79 32 b 68 32 31 0 76 0 b 125 0 310 105 392 331 b 476 561 352 662 308 662 z"},"&":{"x_min":0,"x_max":964,"ha":964,"o":"m 29 642 l 29 599 l 39 599 l 39 610 l 48 610 b 59 610 66 616 66 626 b 66 636 59 642 48 642 z m 56 626 b 56 621 53 619 47 619 l 39 619 l 39 634 l 47 634 b 53 634 56 631 56 626 z m 119 634 l 119 642 l 87 642 l 87 599 l 119 599 l 119 607 l 97 607 l 97 616 l 116 616 l 116 624 l 97 624 l 97 634 z m 178 626 b 178 636 171 642 160 642 l 142 642 l 142 599 l 151 599 l 151 611 l 160 611 l 168 599 l 178 599 l 169 613 b 175 615 178 619 178 626 z m 159 619 l 151 619 l 151 634 l 159 634 b 165 634 168 631 168 626 b 168 621 165 619 159 619 z m 214 606 b 209 606 203 608 200 610 l 197 603 b 200 600 207 598 213 598 b 226 598 232 604 232 611 b 232 627 207 622 207 630 b 207 632 209 634 215 634 b 219 634 223 633 227 631 l 230 639 b 226 641 221 642 215 642 b 203 642 198 636 198 629 b 198 613 222 619 222 610 b 222 608 219 606 214 606 z m 250 620 b 250 607 260 598 273 598 b 286 598 296 607 296 620 b 296 633 286 642 273 642 b 260 642 250 633 250 620 z m 286 620 b 286 612 280 607 273 607 b 265 607 260 612 260 620 b 260 628 265 634 273 634 b 280 634 286 628 286 620 z m 326 642 l 318 642 l 318 599 l 327 599 l 327 625 l 348 599 l 356 599 l 356 642 l 347 642 l 347 616 z m 375 599 l 385 599 l 388 608 l 408 608 l 412 599 l 422 599 l 403 642 l 394 642 z m 405 616 l 392 616 l 398 632 z m 441 642 l 441 599 l 471 599 l 471 607 l 450 607 l 450 642 z m 522 642 l 522 617 b 522 605 529 598 541 598 b 553 598 560 605 560 617 l 560 642 l 550 642 l 550 618 b 550 610 547 607 541 607 b 535 607 532 610 532 618 l 532 642 z m 598 606 b 593 606 588 608 584 610 l 581 603 b 585 600 591 598 598 598 b 610 598 615 604 615 611 b 615 627 591 622 591 630 b 591 632 594 634 599 634 b 603 634 607 633 611 631 l 614 639 b 610 641 605 642 599 642 b 587 642 582 636 582 629 b 582 613 606 619 606 610 b 606 608 604 606 598 606 z m 669 634 l 669 642 l 637 642 l 637 599 l 669 599 l 669 607 l 646 607 l 646 616 l 666 616 l 666 624 l 646 624 l 646 634 z m 720 620 b 720 607 730 598 743 598 b 756 598 766 607 766 620 b 766 633 756 642 743 642 b 730 642 720 633 720 620 z m 756 620 b 756 612 750 607 743 607 b 735 607 730 612 730 620 b 730 628 735 634 743 634 b 750 634 756 628 756 620 z m 796 642 l 788 642 l 788 599 l 797 599 l 797 625 l 818 599 l 826 599 l 826 642 l 817 642 l 817 616 z m 851 642 l 851 599 l 881 599 l 881 607 l 860 607 l 860 642 z m 917 599 l 917 614 l 933 642 l 923 642 l 913 622 l 901 642 l 891 642 l 907 614 l 907 599 z m 37 138 l 27 138 l 28 147 l 40 147 l 41 149 l 27 149 l 23 127 l 24 127 l 26 137 l 37 137 z m 43 133 b 43 130 45 127 50 127 b 55 127 59 131 59 137 b 59 141 56 143 52 143 b 47 143 43 139 43 133 z m 57 137 b 57 132 54 129 50 129 b 47 129 44 130 44 133 b 44 138 47 142 51 142 b 55 142 57 140 57 137 z m 67 143 l 64 127 l 65 127 l 67 135 b 68 140 70 141 74 141 b 74 141 74 141 74 141 l 74 143 b 71 143 69 142 68 140 l 68 143 z m 101 147 b 104 147 106 146 107 144 l 109 146 b 107 147 104 149 101 149 b 94 149 89 143 89 136 b 89 130 92 127 98 127 b 101 127 104 128 106 130 l 105 131 b 104 129 101 129 98 129 b 93 129 91 132 91 136 b 91 142 95 147 101 147 z m 127 137 b 127 141 124 143 120 143 b 115 143 111 139 111 133 b 111 130 114 127 118 127 b 123 127 127 131 127 137 z m 118 129 b 115 129 113 130 113 133 b 113 138 116 142 120 142 b 123 142 125 140 125 137 b 125 132 122 129 118 129 z m 135 143 l 132 127 l 134 127 l 135 136 b 136 140 139 142 142 142 b 145 142 146 140 146 138 b 146 137 146 137 146 137 l 144 127 l 145 127 l 147 136 b 148 140 150 142 154 142 b 156 142 158 140 158 138 b 158 137 158 137 158 137 l 156 127 l 157 127 l 159 137 b 159 137 159 138 159 138 b 159 141 157 143 154 143 b 151 143 149 142 147 140 b 147 142 145 143 142 143 b 140 143 138 142 136 140 l 137 143 z m 188 143 b 185 143 183 142 182 140 b 181 142 179 143 176 143 b 174 143 171 142 170 140 l 171 143 l 169 143 l 166 127 l 168 127 l 169 136 b 170 140 172 142 175 142 b 178 142 180 140 180 138 b 180 137 180 137 180 137 l 178 127 l 180 127 l 181 136 b 182 140 185 142 188 142 b 191 142 192 140 192 138 b 192 137 192 137 192 137 l 190 127 l 191 127 l 193 137 b 193 137 193 138 193 138 b 193 141 191 143 188 143 z m 215 135 b 215 135 215 136 215 137 b 215 141 212 143 208 143 b 203 143 200 139 200 133 b 200 129 203 127 207 127 b 209 127 212 128 213 129 l 212 130 b 211 129 209 129 207 129 b 203 129 201 130 201 133 b 201 134 201 134 201 135 z m 208 142 b 211 142 213 140 213 137 b 213 137 213 136 213 136 l 201 136 b 202 140 205 142 208 142 z m 223 143 l 220 127 l 222 127 l 223 135 b 224 140 226 141 230 141 b 230 141 230 141 230 141 l 230 143 b 227 143 226 142 224 140 l 225 143 z m 242 142 b 245 142 246 141 247 140 l 248 140 b 247 142 245 143 242 143 b 238 143 234 139 234 133 b 234 130 236 127 241 127 b 243 127 245 128 247 130 l 246 130 b 245 129 243 129 241 129 b 238 129 235 130 235 133 b 235 138 238 142 242 142 z m 259 148 b 259 149 259 149 258 149 b 257 149 256 149 256 148 b 256 147 257 147 257 147 b 259 147 259 147 259 148 z m 253 127 l 254 127 l 257 143 l 256 143 z m 277 127 l 280 143 l 279 143 l 278 139 b 277 141 275 143 272 143 b 266 143 263 139 263 133 b 263 129 266 127 270 127 b 273 127 275 128 276 130 l 276 127 z m 270 129 b 266 129 265 130 265 133 b 265 138 268 142 272 142 b 275 142 277 140 277 137 b 277 132 274 129 270 129 z m 287 127 l 292 150 l 290 150 l 286 127 z m 295 123 l 297 127 b 297 127 297 128 297 129 b 297 129 297 130 296 130 b 295 130 295 129 295 128 b 295 128 295 127 295 127 l 294 123 z m 324 134 b 330 134 334 137 334 143 b 334 146 331 149 327 149 l 320 149 l 315 127 l 317 127 l 318 134 z m 321 147 l 327 147 b 330 147 332 146 332 143 b 332 138 329 135 324 135 l 318 135 z m 340 127 l 344 150 l 343 150 l 338 127 z m 363 135 b 364 135 364 136 364 137 b 364 141 361 143 357 143 b 352 143 348 139 348 133 b 348 129 351 127 356 127 b 358 127 360 128 362 129 l 361 130 b 360 129 358 129 356 129 b 352 129 350 130 350 133 b 350 134 350 134 350 135 z m 357 142 b 360 142 362 140 362 137 b 362 137 362 136 362 136 l 350 136 b 351 140 353 142 357 142 z m 384 143 l 383 139 b 383 141 380 143 377 143 b 373 143 369 139 369 133 b 369 129 371 127 376 127 b 378 127 380 128 382 130 l 381 127 l 383 127 l 386 143 z m 376 129 b 372 129 370 130 370 133 b 370 138 373 142 377 142 b 381 142 383 140 383 137 b 383 132 380 129 376 129 z m 395 129 b 394 129 392 129 391 130 l 389 129 b 391 128 393 127 395 127 b 400 127 402 129 402 132 b 402 137 393 134 393 138 b 393 140 395 142 398 142 b 400 142 402 141 403 140 l 403 141 b 402 143 400 143 398 143 b 394 143 392 141 392 138 b 392 133 401 136 401 132 b 401 130 399 129 395 129 z m 423 135 b 423 135 423 136 423 137 b 423 141 420 143 416 143 b 411 143 408 139 408 133 b 408 129 411 127 415 127 b 417 127 420 128 421 129 l 420 130 b 419 129 417 129 415 129 b 411 129 409 130 409 133 b 409 134 409 134 409 135 z m 416 142 b 419 142 421 140 421 137 b 421 137 421 136 421 136 l 409 136 b 411 140 413 142 416 142 z m 446 127 l 459 149 l 458 149 l 446 129 l 441 149 l 439 149 l 445 127 z m 467 148 b 467 149 466 149 465 149 b 465 149 464 149 464 148 b 464 147 465 147 465 147 b 466 147 467 147 467 148 z m 461 127 l 462 127 l 465 143 l 464 143 z m 478 142 b 479 142 481 141 482 140 l 483 141 b 482 143 480 143 478 143 b 474 143 471 141 471 138 b 471 133 480 136 480 132 b 480 130 479 129 476 129 b 473 129 471 129 470 130 l 469 129 b 470 128 473 127 475 127 b 479 127 482 129 482 132 b 482 137 473 134 473 138 b 473 140 475 142 478 142 z m 488 127 l 489 127 l 493 143 l 491 143 z m 494 148 b 494 149 493 149 493 149 b 492 149 491 149 491 148 b 491 147 492 147 493 147 b 493 147 494 147 494 148 z m 502 146 l 502 143 l 499 143 l 499 141 l 501 141 l 499 132 b 499 131 499 131 499 130 b 499 128 500 127 503 127 b 504 127 505 127 506 128 l 505 129 b 505 129 504 128 503 128 b 502 128 500 129 500 130 b 500 131 500 131 501 132 l 503 141 l 508 141 l 508 143 l 503 143 l 503 146 z m 942 573 l 29 573 l 29 570 l 942 570 z m 942 671 l 29 671 l 29 668 l 942 668 z m 942 681 l 29 681 l 29 679 l 942 679 z m 30 25 l 943 25 l 943 27 l 30 27 z m 30 36 l 943 36 l 943 38 l 30 38 z m 517 135 l 517 133 l 943 133 l 943 135 z m 603 212 b 608 212 612 226 612 246 b 612 259 611 263 606 264 b 602 266 600 263 601 244 b 601 225 600 221 594 220 b 588 219 588 220 590 231 b 591 240 591 241 585 241 b 579 241 577 239 577 231 b 577 225 580 218 584 216 b 587 212 588 208 587 201 b 585 192 586 191 594 191 b 599 191 603 192 605 194 b 606 196 605 198 603 198 b 601 198 599 201 599 205 b 599 209 601 212 603 212 z m 569 255 b 573 256 576 256 577 253 b 579 245 585 249 585 258 b 585 265 584 267 579 265 b 576 264 566 264 557 264 b 543 264 541 262 541 256 b 541 250 543 249 549 251 b 556 253 556 252 555 222 b 554 191 554 191 562 191 b 570 191 573 196 567 200 b 565 201 563 213 563 228 b 563 248 564 253 569 255 z m 643 218 b 654 223 658 230 658 243 b 658 256 648 264 633 264 l 620 264 l 621 227 b 621 194 623 191 629 191 b 632 191 637 192 638 194 b 639 196 638 198 636 198 b 628 198 633 212 643 218 z m 631 235 b 628 252 628 256 635 256 b 649 256 656 238 646 228 b 639 220 634 223 631 235 z m 722 283 b 737 278 741 278 759 281 b 784 286 800 297 812 316 b 841 361 817 404 766 401 b 741 400 737 395 755 390 b 773 385 780 375 780 351 b 779 335 777 326 770 314 b 754 287 736 281 725 298 b 720 306 719 313 721 344 l 724 380 l 714 384 b 699 390 690 388 688 380 b 687 375 684 373 680 375 b 677 376 667 378 659 379 b 646 381 643 379 632 370 b 621 360 620 357 618 335 b 616 300 609 300 604 335 b 600 366 592 378 573 382 b 565 384 561 382 552 373 l 541 363 l 541 374 b 540 381 540 393 541 401 b 542 415 543 417 552 417 b 557 417 570 421 581 426 b 605 438 615 455 613 475 b 611 493 602 503 585 508 b 551 518 513 487 506 442 b 504 429 503 428 495 428 l 485 428 l 488 454 b 490 480 490 481 482 484 b 461 489 459 487 454 462 b 450 440 449 438 441 440 b 437 441 424 443 411 444 b 387 447 353 439 344 429 b 336 420 355 419 375 428 b 389 434 398 435 418 434 b 432 433 444 431 444 431 b 445 430 445 403 444 371 b 441 305 434 292 433 348 l 432 384 l 418 387 b 406 390 395 389 395 384 b 395 382 388 382 379 383 b 367 384 360 383 353 378 b 334 366 327 330 341 308 b 352 289 348 249 336 249 b 327 249 326 264 327 356 b 328 436 327 445 321 458 b 302 496 265 489 251 444 b 248 434 246 423 246 420 b 246 405 242 402 233 411 b 214 430 175 432 149 414 b 127 400 117 383 115 356 b 114 334 115 332 127 320 b 136 311 144 307 156 305 b 184 301 210 311 184 316 b 166 319 159 330 159 353 b 159 386 179 420 199 420 b 210 420 214 404 216 344 b 218 311 220 288 222 285 b 225 283 233 280 241 279 l 256 277 l 258 340 b 259 375 262 412 264 422 b 269 444 283 473 288 471 b 290 470 291 456 291 438 b 289 298 289 287 295 268 b 298 257 304 246 310 242 b 315 238 325 234 332 234 b 350 234 359 248 359 273 l 359 293 l 371 293 b 381 293 386 295 391 303 l 398 312 l 408 304 b 415 297 420 296 432 297 b 444 299 446 298 448 291 b 451 278 467 261 480 256 b 502 249 517 260 523 287 b 524 294 527 299 532 299 b 546 302 549 308 549 329 b 549 352 554 369 562 369 b 565 369 567 363 567 343 b 567 320 568 317 577 307 b 588 296 602 293 614 300 b 619 302 622 302 627 296 b 637 285 659 281 672 287 b 678 290 684 296 685 300 b 688 309 692 309 699 299 b 702 294 712 287 722 283 z m 551 464 b 562 499 584 513 591 490 b 599 469 587 447 562 434 b 539 422 538 425 551 464 z m 386 318 b 379 303 374 305 371 323 b 367 352 377 378 388 371 b 394 367 392 330 386 318 z m 496 275 b 488 288 483 326 483 376 b 483 420 484 425 496 417 b 499 416 501 397 502 376 b 503 355 506 323 507 305 b 509 270 506 260 496 275 z m 672 303 b 666 292 658 295 656 309 b 653 326 656 346 664 357 b 670 367 670 367 675 360 b 681 352 679 316 672 303 z m 697 252 b 698 251 700 255 700 259 b 702 267 700 268 693 265 b 689 264 680 264 674 264 l 663 264 l 663 227 b 663 192 664 190 670 192 b 675 193 683 194 690 194 b 699 194 700 196 699 202 b 697 207 696 208 693 205 b 691 203 685 202 681 202 b 673 202 672 203 672 215 b 672 228 673 228 684 226 b 693 224 694 225 694 232 b 694 241 689 244 685 238 b 681 231 672 234 672 244 b 672 256 681 259 697 252 z m 84 58 l 91 76 b 92 81 93 85 94 89 b 95 85 97 81 98 77 l 104 58 l 110 58 l 123 97 l 116 97 l 110 77 b 109 73 108 68 107 64 b 106 68 105 73 104 77 l 98 97 l 92 97 l 85 77 b 84 73 82 68 81 64 b 80 68 79 73 78 77 l 73 97 l 65 97 l 77 58 z m 154 58 l 160 76 b 162 81 163 85 164 89 b 165 85 166 81 168 77 l 174 58 l 180 58 l 193 97 l 186 97 l 180 77 b 179 73 178 68 177 64 b 176 68 175 73 174 77 l 167 97 l 161 97 l 155 77 b 153 73 152 68 151 64 b 150 68 149 73 148 77 l 143 97 l 135 97 l 147 58 z m 224 58 l 230 76 b 232 81 233 85 234 89 b 235 85 236 81 238 77 l 244 58 l 250 58 l 263 97 l 256 97 l 250 77 b 249 73 248 68 247 64 b 246 68 245 73 243 77 l 237 97 l 231 97 l 224 77 b 223 73 222 68 221 64 b 220 68 219 73 218 77 l 212 97 l 205 97 l 217 58 z m 279 57 b 282 57 283 59 283 62 b 283 65 281 67 279 67 b 276 67 274 65 274 62 b 274 59 276 57 279 57 z m 335 58 l 335 81 b 335 95 326 99 320 99 b 314 99 309 94 307 91 l 306 97 l 300 97 b 300 94 300 91 300 86 l 300 58 l 307 58 l 307 82 b 307 83 308 84 308 85 b 309 89 313 93 318 93 b 325 93 327 87 327 80 l 327 58 z m 351 68 b 351 62 355 57 364 57 b 369 57 373 59 376 62 l 376 58 l 383 58 b 382 61 382 64 382 67 l 382 82 b 382 90 379 99 367 99 b 362 99 358 97 354 95 l 356 90 b 359 92 362 93 366 93 b 374 93 375 87 375 83 b 360 83 351 77 351 68 z m 376 78 l 376 71 b 376 70 375 70 375 68 b 374 65 370 62 365 62 b 362 62 359 64 359 69 b 359 77 367 78 376 78 z m 421 92 l 421 97 l 411 97 l 411 109 l 403 107 l 403 97 l 397 97 l 397 92 l 403 92 l 403 70 b 403 65 405 62 406 60 b 408 58 411 57 414 57 b 417 57 419 57 421 58 l 420 63 b 420 63 418 62 416 62 b 412 62 411 65 411 70 l 411 92 z m 471 58 l 471 81 b 471 95 463 99 458 99 b 455 99 452 97 450 96 b 448 95 446 93 445 91 l 445 116 l 437 116 l 437 58 l 445 58 l 445 82 b 445 83 445 84 445 85 b 447 89 450 93 455 93 b 462 93 464 87 464 80 l 464 58 z m 504 99 b 499 99 494 97 491 95 l 493 90 b 496 92 499 93 503 93 b 511 93 512 87 512 83 b 497 83 488 77 488 68 b 488 62 493 57 500 57 b 506 57 510 59 512 62 l 513 62 l 514 58 l 520 58 b 520 61 519 64 519 67 l 519 82 b 519 90 516 99 504 99 z m 512 71 b 512 70 512 70 512 68 b 511 65 508 62 502 62 b 499 62 496 64 496 69 b 496 77 505 78 512 78 z m 541 107 l 541 97 l 534 97 l 534 92 l 541 92 l 541 70 b 541 65 541 62 543 60 b 545 58 548 57 551 57 b 554 57 556 57 558 58 l 557 63 b 556 63 555 62 553 62 b 549 62 547 65 547 70 l 547 92 l 558 92 l 558 97 l 547 97 l 547 109 z m 578 49 b 576 47 574 46 572 45 l 574 39 b 576 39 579 41 583 44 b 588 49 591 55 596 69 l 607 97 l 600 97 l 591 74 b 591 71 590 68 589 66 b 588 68 587 71 587 74 l 577 97 l 570 97 l 585 61 b 585 60 585 59 585 59 b 585 58 585 58 584 57 b 583 53 581 50 578 49 z m 629 41 l 629 63 b 632 59 637 57 641 57 b 651 57 659 64 659 78 b 659 90 652 99 643 99 b 637 99 632 96 629 91 l 628 97 l 621 97 b 622 94 622 89 622 85 l 622 41 z m 629 80 b 629 82 629 83 630 83 b 631 89 636 93 641 93 b 648 93 652 86 652 77 b 652 68 648 62 640 62 b 635 62 631 66 629 71 b 629 71 629 73 629 74 z m 709 79 b 709 87 706 99 693 99 b 681 99 674 89 674 77 b 674 65 682 57 694 57 b 700 57 705 58 707 59 l 706 64 b 703 63 700 62 695 62 b 688 62 681 67 681 76 l 709 76 b 709 77 709 78 709 79 z m 681 81 b 682 86 685 93 692 93 b 700 93 702 86 702 81 z m 734 62 b 734 65 732 67 729 67 b 726 67 724 65 724 62 b 724 59 726 57 729 57 b 732 57 734 59 734 62 z m 769 93 b 773 93 776 91 778 91 l 779 96 b 778 97 773 98 769 98 b 756 98 748 89 748 77 b 748 65 756 57 768 57 b 773 57 778 58 779 59 l 778 64 b 776 64 773 62 769 62 b 761 62 755 68 755 77 b 755 86 760 93 769 93 z m 831 78 b 831 90 824 99 813 99 b 801 99 793 91 793 77 b 793 65 801 57 811 57 b 821 57 831 63 831 78 z m 800 77 b 800 85 804 93 812 93 b 820 93 824 84 824 77 b 824 68 819 62 812 62 b 805 62 800 68 800 77 z m 906 58 l 906 81 b 906 95 898 99 893 99 b 889 99 886 97 884 96 b 882 94 881 93 879 90 b 878 95 873 99 868 99 b 861 99 858 95 855 91 l 855 97 l 849 97 b 849 94 849 91 849 86 l 849 58 l 856 58 l 856 82 b 856 83 856 84 857 85 b 858 89 861 93 866 93 b 871 93 874 88 874 82 l 874 58 l 881 58 l 881 82 b 881 83 881 85 881 86 b 882 89 886 93 890 93 b 896 93 899 88 899 80 l 899 58 z"},"_":{"x_min":0,"x_max":296,"ha":296,"o":"m 258 33 b 265 60 248 69 231 64 b 203 55 188 51 169 51 b 153 51 134 54 100 58 b 71 62 39 0 67 0 b 70 0 75 1 80 3 b 112 15 140 19 162 19 b 196 19 220 10 236 3 b 242 3 253 17 258 33 z"},"v":{"x_min":0,"x_max":431,"ha":431,"o":"m 214 397 b 208 363 155 189 130 129 b 118 102 117 1 228 1 b 390 1 554 345 552 445 b 552 457 541 479 522 479 b 496 479 475 450 449 450 b 439 450 429 455 417 467 b 408 477 374 417 399 417 b 415 417 429 420 441 420 b 453 420 462 417 467 404 b 503 311 361 41 262 41 b 198 41 236 133 244 167 b 255 221 312 381 345 445 b 352 458 333 477 317 479 b 315 479 313 479 310 479 b 282 479 260 454 216 454 b 200 454 180 458 157 467 b 142 473 114 417 138 417 b 152 417 169 419 184 419 b 204 419 219 415 214 397 z"},"O":{"x_min":0,"x_max":558,"ha":558,"o":"m 658 333 b 741 576 686 652 535 663 b 374 674 217 560 142 332 b 90 169 82 1 294 1 b 472 1 593 141 658 333 z m 327 28 b 244 14 195 101 269 332 b 303 437 355 618 470 638 b 479 640 487 640 494 640 b 574 640 605 559 546 361 b 511 243 460 50 327 28 z"},"(":{"x_min":0,"x_max":322,"ha":322,"o":"m 267 32 b 216 32 211 157 280 337 b 318 440 398 639 487 637 b 504 637 512 662 496 662 b 452 662 254 561 170 331 b 88 105 198 0 246 0 b 291 0 278 32 267 32 z"},"C":{"x_min":0,"x_max":502,"ha":502,"o":"m 389 20 b 446 39 475 61 510 91 b 531 108 515 130 502 130 b 499 130 495 129 493 125 b 460 76 419 50 361 50 b 216 50 212 176 270 335 b 346 544 429 640 515 640 b 574 640 602 590 601 543 b 600 509 586 497 572 478 b 564 467 576 460 592 460 b 607 460 624 467 627 484 b 633 520 644 557 663 603 b 672 620 615 671 508 671 b 361 671 214 551 143 336 b 91 173 101 4 265 2 b 327 1 363 11 389 20 z"},"W":{"x_min":0,"x_max":884,"ha":884,"o":"m 1051 633 b 1029 633 1012 663 997 663 b 971 662 955 615 974 619 b 982 621 988 621 994 621 b 1002 621 1008 620 1014 616 b 1025 608 1017 586 1008 561 b 980 481 798 45 725 45 b 665 45 747 381 812 561 b 817 575 802 578 796 587 b 795 589 792 590 789 590 b 771 590 729 558 721 536 b 681 426 542 45 447 33 b 376 24 440 231 480 376 b 499 444 517 503 543 536 b 559 557 580 574 612 575 b 649 575 654 605 621 599 b 548 588 570 651 508 662 b 496 665 482 666 468 666 b 366 666 236 591 200 494 b 168 406 241 380 270 376 b 277 375 284 375 290 375 b 309 375 324 379 336 388 b 352 400 344 420 323 415 b 310 411 307 397 286 397 b 256 397 251 443 273 503 b 292 556 312 603 360 625 b 380 634 397 638 412 638 b 432 638 449 631 467 619 b 494 599 506 582 529 575 b 435 549 403 459 373 376 b 326 247 296 76 363 18 b 377 7 400 2 423 2 b 450 2 476 8 490 18 b 529 47 568 104 604 169 b 597 109 603 43 633 18 b 644 9 668 1 697 1 b 724 1 754 9 778 33 b 881 138 1045 535 1066 575 b 1072 584 1076 593 1081 599 b 1127 609 1178 642 1196 642 b 1212 642 1215 619 1216 608 b 1216 604 1219 603 1224 603 b 1237 603 1264 618 1262 628 b 1254 655 1204 672 1178 672 b 1165 672 1148 670 1127 662 b 1101 652 1072 633 1051 633 z"},"A":{"x_min":0,"x_max":651,"ha":651,"o":"m 334 245 b 401 356 481 486 496 501 b 506 510 513 517 520 523 b 521 505 521 486 519 464 b 517 425 503 334 501 243 b 464 235 434 232 409 232 b 376 232 352 238 334 245 z m 725 85 b 713 66 695 39 669 39 b 658 39 647 44 639 50 b 599 85 627 356 635 521 b 640 639 546 661 453 663 b 350 664 241 607 201 497 b 157 375 231 355 264 355 b 289 355 294 352 309 355 b 332 359 337 400 315 392 b 303 388 294 378 279 375 b 248 369 245 409 277 497 b 307 579 375 639 432 639 b 480 639 509 617 518 554 b 508 550 496 548 485 548 b 453 548 456 571 429 571 b 404 571 392 536 407 536 b 417 537 423 538 428 538 b 450 538 451 525 434 491 b 419 463 222 130 189 84 b 166 54 146 33 123 33 b 118 33 112 34 107 36 b 92 41 76 1 94 1 b 139 1 131 24 190 24 b 226 24 231 1 259 1 b 285 1 297 39 278 36 b 269 34 261 33 254 33 b 231 33 222 44 240 81 b 247 95 273 140 305 196 b 337 200 380 208 422 208 b 451 208 479 204 502 193 b 507 91 535 1 621 1 b 662 1 735 36 759 69 b 767 80 753 93 739 93 b 734 93 728 90 725 85 z"},"f":{"x_min":0,"x_max":251,"ha":251,"o":"m 169 464 b 153 469 127 423 154 423 b 166 423 198 422 236 422 b 227 395 189 289 183 268 b 150 172 116 112 85 29 b 78 11 106 1 137 1 b 167 1 199 9 205 27 b 224 77 227 132 270 253 b 278 278 320 389 332 419 b 335 420 338 420 340 420 b 368 419 386 416 399 416 b 432 416 440 470 417 464 b 399 459 376 457 344 454 b 276 467 292 606 369 606 b 408 606 423 583 426 555 b 422 544 415 537 402 524 b 393 516 409 509 426 509 b 439 509 453 513 456 524 b 463 551 465 551 485 584 b 498 604 458 635 393 635 b 247 635 208 508 239 454 b 221 456 187 459 169 464 z"},"Q":{"x_min":0,"x_max":587,"ha":587,"o":"m 321 28 b 307 33 291 37 275 37 l 273 37 b 227 67 213 159 270 335 b 304 442 357 624 473 645 b 482 647 490 647 497 647 b 577 647 608 566 548 365 b 512 245 459 50 327 28 z m 514 41 b 502 20 468 -36 440 -36 b 422 -36 395 -12 360 8 b 502 39 602 168 660 337 b 743 582 689 659 538 670 b 377 681 219 565 143 336 b 99 201 87 62 200 17 b 176 5 151 -12 131 -35 b 112 -57 131 -71 146 -71 b 150 -71 154 -69 157 -67 b 182 -43 199 -34 213 -34 b 242 -34 258 -72 309 -90 b 329 -97 348 -100 366 -100 b 436 -100 528 -48 569 7 b 583 27 558 54 536 54 b 527 54 519 50 514 41 z"},"w":{"x_min":0,"x_max":637,"ha":637,"o":"m 360 50 b 369 23 393 1 445 1 b 623 1 751 345 750 445 b 749 457 738 479 720 479 b 694 479 682 450 662 450 b 655 450 646 455 634 467 b 624 477 591 417 616 417 b 631 417 644 420 656 420 b 668 420 678 417 684 404 b 719 331 579 45 479 41 b 478 41 476 41 475 41 b 418 41 431 104 455 167 b 483 243 543 379 560 416 b 567 429 550 450 533 450 b 531 450 529 450 527 450 b 457 450 445 416 442 397 b 440 348 378 161 330 89 b 308 55 277 38 249 38 b 199 38 206 82 220 125 b 241 188 280 298 356 445 b 363 458 344 477 328 479 b 326 479 324 479 321 479 b 293 479 271 454 227 454 b 211 454 191 458 168 467 b 153 473 125 417 150 417 b 163 417 180 419 195 419 b 214 419 229 415 225 397 b 211 326 152 215 125 139 b 91 47 147 1 224 1 b 275 1 322 22 360 50 z"},"-":{"x_min":0,"x_max":278,"ha":278,"o":"m 376 354 b 382 380 364 390 346 385 b 315 376 299 372 277 372 b 259 372 238 375 200 379 b 167 383 134 321 165 321 b 169 321 174 322 180 324 b 214 336 244 340 270 340 b 308 340 335 331 353 324 b 360 324 372 338 376 354 z"},"E":{"x_min":0,"x_max":561,"ha":561,"o":"m 464 557 b 464 557 433 470 403 386 b 386 342 323 136 281 70 b 265 45 250 31 232 31 b 226 31 219 33 212 36 b 197 41 181 1 199 1 b 240 1 274 16 310 23 b 320 25 328 26 336 26 b 380 26 403 1 454 1 b 507 1 601 32 635 78 b 643 89 628 102 615 102 b 609 102 604 99 600 94 b 588 75 577 59 561 51 b 556 49 551 48 547 48 b 531 48 516 61 464 61 b 438 61 410 53 391 51 b 390 58 392 68 396 81 b 408 116 436 200 459 269 b 495 275 520 255 539 252 b 564 247 606 326 576 326 b 547 326 516 306 468 298 b 480 329 488 354 492 366 b 521 440 558 528 579 573 b 611 563 639 559 664 559 b 717 559 789 585 824 628 b 832 639 817 651 803 651 b 797 651 792 649 788 643 b 776 625 766 609 749 601 b 744 598 738 597 732 597 b 710 597 681 614 626 641 b 598 655 552 664 502 664 b 386 664 243 612 200 494 b 168 406 241 380 271 376 b 278 375 284 375 290 375 b 309 375 324 379 336 388 b 352 400 344 420 323 415 b 311 411 308 397 287 397 b 258 397 251 443 273 503 b 294 563 342 628 411 628 b 440 628 470 619 498 607 b 481 592 468 572 464 557 z"},"s":{"x_min":0,"x_max":349,"ha":349,"o":"m 172 28 b 112 28 108 78 107 106 b 114 132 122 140 136 153 b 144 161 129 168 114 168 b 101 168 89 164 86 153 b 79 126 68 99 47 66 b 35 46 94 1 153 1 b 248 1 360 15 394 131 b 428 249 227 272 264 375 b 275 403 307 451 351 451 b 388 451 406 430 407 402 b 399 375 392 368 378 354 b 370 346 384 340 400 340 b 412 340 425 344 428 354 b 435 382 446 409 467 442 b 479 462 423 480 364 480 b 269 480 178 437 153 356 b 114 233 314 186 280 106 b 258 54 216 28 172 28 z"},">":{"x_min":0,"x_max":289,"ha":289,"o":"m 361 416 b 314 434 284 445 257 465 b 251 470 246 474 240 474 b 236 474 231 472 224 465 b 211 450 208 432 216 432 b 245 434 287 424 330 389 b 256 322 202 312 169 312 b 161 312 154 289 160 271 b 163 260 168 256 175 256 b 185 256 198 265 210 271 b 241 288 252 306 341 328 b 368 334 394 403 361 416 z"},"l":{"x_min":0,"x_max":214,"ha":214,"o":"m 245 557 b 245 557 174 356 140 268 b 124 228 94 147 75 97 b 57 47 65 3 142 3 b 206 3 242 21 293 49 b 317 62 309 92 296 92 b 294 92 291 91 289 89 b 259 60 237 50 222 50 b 195 50 187 81 190 106 b 192 134 226 231 239 268 b 263 346 353 562 371 600 b 377 612 359 633 344 635 b 342 635 340 635 338 635 b 309 635 292 608 251 608 b 236 608 218 612 195 622 b 181 628 151 570 176 570 b 193 570 215 576 230 576 b 242 576 250 572 245 557 z"},"8":{"x_min":0,"x_max":964,"ha":964,"o":"m 29 642 l 29 599 l 39 599 l 39 610 l 48 610 b 59 610 66 616 66 626 b 66 636 59 642 48 642 z m 56 626 b 56 621 53 619 47 619 l 39 619 l 39 634 l 47 634 b 53 634 56 631 56 626 z m 119 634 l 119 642 l 87 642 l 87 599 l 119 599 l 119 607 l 97 607 l 97 616 l 116 616 l 116 624 l 97 624 l 97 634 z m 178 626 b 178 636 171 642 160 642 l 142 642 l 142 599 l 151 599 l 151 611 l 160 611 l 168 599 l 178 599 l 169 613 b 175 615 178 619 178 626 z m 159 619 l 151 619 l 151 634 l 159 634 b 165 634 168 631 168 626 b 168 621 165 619 159 619 z m 214 606 b 209 606 203 608 200 610 l 197 603 b 200 600 207 598 213 598 b 226 598 232 604 232 611 b 232 627 207 622 207 630 b 207 632 209 634 215 634 b 219 634 223 633 227 631 l 230 639 b 226 641 221 642 215 642 b 203 642 198 636 198 629 b 198 613 222 619 222 610 b 222 608 219 606 214 606 z m 250 620 b 250 607 260 598 273 598 b 286 598 296 607 296 620 b 296 633 286 642 273 642 b 260 642 250 633 250 620 z m 286 620 b 286 612 280 607 273 607 b 265 607 260 612 260 620 b 260 628 265 634 273 634 b 280 634 286 628 286 620 z m 326 642 l 318 642 l 318 599 l 327 599 l 327 625 l 348 599 l 356 599 l 356 642 l 347 642 l 347 616 z m 375 599 l 385 599 l 388 608 l 408 608 l 412 599 l 422 599 l 403 642 l 394 642 z m 405 616 l 392 616 l 398 632 z m 441 642 l 441 599 l 471 599 l 471 607 l 450 607 l 450 642 z m 522 642 l 522 617 b 522 605 529 598 541 598 b 553 598 560 605 560 617 l 560 642 l 550 642 l 550 618 b 550 610 547 607 541 607 b 535 607 532 610 532 618 l 532 642 z m 598 606 b 593 606 588 608 584 610 l 581 603 b 585 600 591 598 598 598 b 610 598 615 604 615 611 b 615 627 591 622 591 630 b 591 632 594 634 599 634 b 603 634 607 633 611 631 l 614 639 b 610 641 605 642 599 642 b 587 642 582 636 582 629 b 582 613 606 619 606 610 b 606 608 604 606 598 606 z m 669 634 l 669 642 l 637 642 l 637 599 l 669 599 l 669 607 l 646 607 l 646 616 l 666 616 l 666 624 l 646 624 l 646 634 z m 720 620 b 720 607 730 598 743 598 b 756 598 766 607 766 620 b 766 633 756 642 743 642 b 730 642 720 633 720 620 z m 756 620 b 756 612 750 607 743 607 b 735 607 730 612 730 620 b 730 628 735 634 743 634 b 750 634 756 628 756 620 z m 796 642 l 788 642 l 788 599 l 797 599 l 797 625 l 818 599 l 826 599 l 826 642 l 817 642 l 817 616 z m 851 642 l 851 599 l 881 599 l 881 607 l 860 607 l 860 642 z m 917 599 l 917 614 l 933 642 l 923 642 l 913 622 l 901 642 l 891 642 l 907 614 l 907 599 z m 37 138 l 27 138 l 28 147 l 40 147 l 41 149 l 27 149 l 23 127 l 24 127 l 26 137 l 37 137 z m 43 133 b 43 130 45 127 50 127 b 55 127 59 131 59 137 b 59 141 56 143 52 143 b 47 143 43 139 43 133 z m 57 137 b 57 132 54 129 50 129 b 47 129 44 130 44 133 b 44 138 47 142 51 142 b 55 142 57 140 57 137 z m 67 143 l 64 127 l 65 127 l 67 135 b 68 140 70 141 74 141 b 74 141 74 141 74 141 l 74 143 b 71 143 69 142 68 140 l 68 143 z m 101 147 b 104 147 106 146 107 144 l 109 146 b 107 147 104 149 101 149 b 94 149 89 143 89 136 b 89 130 92 127 98 127 b 101 127 104 128 106 130 l 105 131 b 104 129 101 129 98 129 b 93 129 91 132 91 136 b 91 142 95 147 101 147 z m 127 137 b 127 141 124 143 120 143 b 115 143 111 139 111 133 b 111 130 114 127 118 127 b 123 127 127 131 127 137 z m 118 129 b 115 129 113 130 113 133 b 113 138 116 142 120 142 b 123 142 125 140 125 137 b 125 132 122 129 118 129 z m 135 143 l 132 127 l 134 127 l 135 136 b 136 140 139 142 142 142 b 145 142 146 140 146 138 b 146 137 146 137 146 137 l 144 127 l 145 127 l 147 136 b 148 140 150 142 154 142 b 156 142 158 140 158 138 b 158 137 158 137 158 137 l 156 127 l 157 127 l 159 137 b 159 137 159 138 159 138 b 159 141 157 143 154 143 b 151 143 149 142 147 140 b 147 142 145 143 142 143 b 140 143 138 142 136 140 l 137 143 z m 188 143 b 185 143 183 142 182 140 b 181 142 179 143 176 143 b 174 143 171 142 170 140 l 171 143 l 169 143 l 166 127 l 168 127 l 169 136 b 170 140 172 142 175 142 b 178 142 180 140 180 138 b 180 137 180 137 180 137 l 178 127 l 180 127 l 181 136 b 182 140 185 142 188 142 b 191 142 192 140 192 138 b 192 137 192 137 192 137 l 190 127 l 191 127 l 193 137 b 193 137 193 138 193 138 b 193 141 191 143 188 143 z m 215 135 b 215 135 215 136 215 137 b 215 141 212 143 208 143 b 203 143 200 139 200 133 b 200 129 203 127 207 127 b 209 127 212 128 213 129 l 212 130 b 211 129 209 129 207 129 b 203 129 201 130 201 133 b 201 134 201 134 201 135 z m 208 142 b 211 142 213 140 213 137 b 213 137 213 136 213 136 l 201 136 b 202 140 205 142 208 142 z m 223 143 l 220 127 l 222 127 l 223 135 b 224 140 226 141 230 141 b 230 141 230 141 230 141 l 230 143 b 227 143 226 142 224 140 l 225 143 z m 242 142 b 245 142 246 141 247 140 l 248 140 b 247 142 245 143 242 143 b 238 143 234 139 234 133 b 234 130 236 127 241 127 b 243 127 245 128 247 130 l 246 130 b 245 129 243 129 241 129 b 238 129 235 130 235 133 b 235 138 238 142 242 142 z m 259 148 b 259 149 259 149 258 149 b 257 149 256 149 256 148 b 256 147 257 147 257 147 b 259 147 259 147 259 148 z m 253 127 l 254 127 l 257 143 l 256 143 z m 277 127 l 280 143 l 279 143 l 278 139 b 277 141 275 143 272 143 b 266 143 263 139 263 133 b 263 129 266 127 270 127 b 273 127 275 128 276 130 l 276 127 z m 270 129 b 266 129 265 130 265 133 b 265 138 268 142 272 142 b 275 142 277 140 277 137 b 277 132 274 129 270 129 z m 287 127 l 292 150 l 290 150 l 286 127 z m 295 123 l 297 127 b 297 127 297 128 297 129 b 297 129 297 130 296 130 b 295 130 295 129 295 128 b 295 128 295 127 295 127 l 294 123 z m 324 134 b 330 134 334 137 334 143 b 334 146 331 149 327 149 l 320 149 l 315 127 l 317 127 l 318 134 z m 321 147 l 327 147 b 330 147 332 146 332 143 b 332 138 329 135 324 135 l 318 135 z m 340 127 l 344 150 l 343 150 l 338 127 z m 363 135 b 364 135 364 136 364 137 b 364 141 361 143 357 143 b 352 143 348 139 348 133 b 348 129 351 127 356 127 b 358 127 360 128 362 129 l 361 130 b 360 129 358 129 356 129 b 352 129 350 130 350 133 b 350 134 350 134 350 135 z m 357 142 b 360 142 362 140 362 137 b 362 137 362 136 362 136 l 350 136 b 351 140 353 142 357 142 z m 384 143 l 383 139 b 383 141 380 143 377 143 b 373 143 369 139 369 133 b 369 129 371 127 376 127 b 378 127 380 128 382 130 l 381 127 l 383 127 l 386 143 z m 376 129 b 372 129 370 130 370 133 b 370 138 373 142 377 142 b 381 142 383 140 383 137 b 383 132 380 129 376 129 z m 395 129 b 394 129 392 129 391 130 l 389 129 b 391 128 393 127 395 127 b 400 127 402 129 402 132 b 402 137 393 134 393 138 b 393 140 395 142 398 142 b 400 142 402 141 403 140 l 403 141 b 402 143 400 143 398 143 b 394 143 392 141 392 138 b 392 133 401 136 401 132 b 401 130 399 129 395 129 z m 423 135 b 423 135 423 136 423 137 b 423 141 420 143 416 143 b 411 143 408 139 408 133 b 408 129 411 127 415 127 b 417 127 420 128 421 129 l 420 130 b 419 129 417 129 415 129 b 411 129 409 130 409 133 b 409 134 409 134 409 135 z m 416 142 b 419 142 421 140 421 137 b 421 137 421 136 421 136 l 409 136 b 411 140 413 142 416 142 z m 446 127 l 459 149 l 458 149 l 446 129 l 441 149 l 439 149 l 445 127 z m 467 148 b 467 149 466 149 465 149 b 465 149 464 149 464 148 b 464 147 465 147 465 147 b 466 147 467 147 467 148 z m 461 127 l 462 127 l 465 143 l 464 143 z m 478 142 b 479 142 481 141 482 140 l 483 141 b 482 143 480 143 478 143 b 474 143 471 141 471 138 b 471 133 480 136 480 132 b 480 130 479 129 476 129 b 473 129 471 129 470 130 l 469 129 b 470 128 473 127 475 127 b 479 127 482 129 482 132 b 482 137 473 134 473 138 b 473 140 475 142 478 142 z m 488 127 l 489 127 l 493 143 l 491 143 z m 494 148 b 494 149 493 149 493 149 b 492 149 491 149 491 148 b 491 147 492 147 493 147 b 493 147 494 147 494 148 z m 502 146 l 502 143 l 499 143 l 499 141 l 501 141 l 499 132 b 499 131 499 131 499 130 b 499 128 500 127 503 127 b 504 127 505 127 506 128 l 505 129 b 505 129 504 128 503 128 b 502 128 500 129 500 130 b 500 131 500 131 501 132 l 503 141 l 508 141 l 508 143 l 503 143 l 503 146 z m 942 573 l 29 573 l 29 570 l 942 570 z m 942 671 l 29 671 l 29 668 l 942 668 z m 942 681 l 29 681 l 29 679 l 942 679 z m 30 25 l 943 25 l 943 27 l 30 27 z m 30 36 l 943 36 l 943 38 l 30 38 z m 517 135 l 517 133 l 943 133 l 943 135 z m 603 212 b 608 212 612 226 612 246 b 612 259 611 263 606 264 b 602 266 600 263 601 244 b 601 225 600 221 594 220 b 588 219 588 220 590 231 b 591 240 591 241 585 241 b 579 241 577 239 577 231 b 577 225 580 218 584 216 b 587 212 588 208 587 201 b 585 192 586 191 594 191 b 599 191 603 192 605 194 b 606 196 605 198 603 198 b 601 198 599 201 599 205 b 599 209 601 212 603 212 z m 569 255 b 573 256 576 256 577 253 b 579 245 585 249 585 258 b 585 265 584 267 579 265 b 576 264 566 264 557 264 b 543 264 541 262 541 256 b 541 250 543 249 549 251 b 556 253 556 252 555 222 b 554 191 554 191 562 191 b 570 191 573 196 567 200 b 565 201 563 213 563 228 b 563 248 564 253 569 255 z m 643 218 b 654 223 658 230 658 243 b 658 256 648 264 633 264 l 620 264 l 621 227 b 621 194 623 191 629 191 b 632 191 637 192 638 194 b 639 196 638 198 636 198 b 628 198 633 212 643 218 z m 631 235 b 628 252 628 256 635 256 b 649 256 656 238 646 228 b 639 220 634 223 631 235 z m 722 283 b 737 278 741 278 759 281 b 784 286 800 297 812 316 b 841 361 817 404 766 401 b 741 400 737 395 755 390 b 773 385 780 375 780 351 b 779 335 777 326 770 314 b 754 287 736 281 725 298 b 720 306 719 313 721 344 l 724 380 l 714 384 b 699 390 690 388 688 380 b 687 375 684 373 680 375 b 677 376 667 378 659 379 b 646 381 643 379 632 370 b 621 360 620 357 618 335 b 616 300 609 300 604 335 b 600 366 592 378 573 382 b 565 384 561 382 552 373 l 541 363 l 541 374 b 540 381 540 393 541 401 b 542 415 543 417 552 417 b 557 417 570 421 581 426 b 605 438 615 455 613 475 b 611 493 602 503 585 508 b 551 518 513 487 506 442 b 504 429 503 428 495 428 l 485 428 l 488 454 b 490 480 490 481 482 484 b 461 489 459 487 454 462 b 450 440 449 438 441 440 b 437 441 424 443 411 444 b 387 447 353 439 344 429 b 336 420 355 419 375 428 b 389 434 398 435 418 434 b 432 433 444 431 444 431 b 445 430 445 403 444 371 b 441 305 434 292 433 348 l 432 384 l 418 387 b 406 390 395 389 395 384 b 395 382 388 382 379 383 b 367 384 360 383 353 378 b 334 366 327 330 341 308 b 352 289 348 249 336 249 b 327 249 326 264 327 356 b 328 436 327 445 321 458 b 302 496 265 489 251 444 b 248 434 246 423 246 420 b 246 405 242 402 233 411 b 214 430 175 432 149 414 b 127 400 117 383 115 356 b 114 334 115 332 127 320 b 136 311 144 307 156 305 b 184 301 210 311 184 316 b 166 319 159 330 159 353 b 159 386 179 420 199 420 b 210 420 214 404 216 344 b 218 311 220 288 222 285 b 225 283 233 280 241 279 l 256 277 l 258 340 b 259 375 262 412 264 422 b 269 444 283 473 288 471 b 290 470 291 456 291 438 b 289 298 289 287 295 268 b 298 257 304 246 310 242 b 315 238 325 234 332 234 b 350 234 359 248 359 273 l 359 293 l 371 293 b 381 293 386 295 391 303 l 398 312 l 408 304 b 415 297 420 296 432 297 b 444 299 446 298 448 291 b 451 278 467 261 480 256 b 502 249 517 260 523 287 b 524 294 527 299 532 299 b 546 302 549 308 549 329 b 549 352 554 369 562 369 b 565 369 567 363 567 343 b 567 320 568 317 577 307 b 588 296 602 293 614 300 b 619 302 622 302 627 296 b 637 285 659 281 672 287 b 678 290 684 296 685 300 b 688 309 692 309 699 299 b 702 294 712 287 722 283 z m 551 464 b 562 499 584 513 591 490 b 599 469 587 447 562 434 b 539 422 538 425 551 464 z m 386 318 b 379 303 374 305 371 323 b 367 352 377 378 388 371 b 394 367 392 330 386 318 z m 496 275 b 488 288 483 326 483 376 b 483 420 484 425 496 417 b 499 416 501 397 502 376 b 503 355 506 323 507 305 b 509 270 506 260 496 275 z m 672 303 b 666 292 658 295 656 309 b 653 326 656 346 664 357 b 670 367 670 367 675 360 b 681 352 679 316 672 303 z m 697 252 b 698 251 700 255 700 259 b 702 267 700 268 693 265 b 689 264 680 264 674 264 l 663 264 l 663 227 b 663 192 664 190 670 192 b 675 193 683 194 690 194 b 699 194 700 196 699 202 b 697 207 696 208 693 205 b 691 203 685 202 681 202 b 673 202 672 203 672 215 b 672 228 673 228 684 226 b 693 224 694 225 694 232 b 694 241 689 244 685 238 b 681 231 672 234 672 244 b 672 256 681 259 697 252 z m 84 58 l 91 76 b 92 81 93 85 94 89 b 95 85 97 81 98 77 l 104 58 l 110 58 l 123 97 l 116 97 l 110 77 b 109 73 108 68 107 64 b 106 68 105 73 104 77 l 98 97 l 92 97 l 85 77 b 84 73 82 68 81 64 b 80 68 79 73 78 77 l 73 97 l 65 97 l 77 58 z m 154 58 l 160 76 b 162 81 163 85 164 89 b 165 85 166 81 168 77 l 174 58 l 180 58 l 193 97 l 186 97 l 180 77 b 179 73 178 68 177 64 b 176 68 175 73 174 77 l 167 97 l 161 97 l 155 77 b 153 73 152 68 151 64 b 150 68 149 73 148 77 l 143 97 l 135 97 l 147 58 z m 224 58 l 230 76 b 232 81 233 85 234 89 b 235 85 236 81 238 77 l 244 58 l 250 58 l 263 97 l 256 97 l 250 77 b 249 73 248 68 247 64 b 246 68 245 73 243 77 l 237 97 l 231 97 l 224 77 b 223 73 222 68 221 64 b 220 68 219 73 218 77 l 212 97 l 205 97 l 217 58 z m 279 57 b 282 57 283 59 283 62 b 283 65 281 67 279 67 b 276 67 274 65 274 62 b 274 59 276 57 279 57 z m 335 58 l 335 81 b 335 95 326 99 320 99 b 314 99 309 94 307 91 l 306 97 l 300 97 b 300 94 300 91 300 86 l 300 58 l 307 58 l 307 82 b 307 83 308 84 308 85 b 309 89 313 93 318 93 b 325 93 327 87 327 80 l 327 58 z m 351 68 b 351 62 355 57 364 57 b 369 57 373 59 376 62 l 376 58 l 383 58 b 382 61 382 64 382 67 l 382 82 b 382 90 379 99 367 99 b 362 99 358 97 354 95 l 356 90 b 359 92 362 93 366 93 b 374 93 375 87 375 83 b 360 83 351 77 351 68 z m 376 78 l 376 71 b 376 70 375 70 375 68 b 374 65 370 62 365 62 b 362 62 359 64 359 69 b 359 77 367 78 376 78 z m 421 92 l 421 97 l 411 97 l 411 109 l 403 107 l 403 97 l 397 97 l 397 92 l 403 92 l 403 70 b 403 65 405 62 406 60 b 408 58 411 57 414 57 b 417 57 419 57 421 58 l 420 63 b 420 63 418 62 416 62 b 412 62 411 65 411 70 l 411 92 z m 471 58 l 471 81 b 471 95 463 99 458 99 b 455 99 452 97 450 96 b 448 95 446 93 445 91 l 445 116 l 437 116 l 437 58 l 445 58 l 445 82 b 445 83 445 84 445 85 b 447 89 450 93 455 93 b 462 93 464 87 464 80 l 464 58 z m 504 99 b 499 99 494 97 491 95 l 493 90 b 496 92 499 93 503 93 b 511 93 512 87 512 83 b 497 83 488 77 488 68 b 488 62 493 57 500 57 b 506 57 510 59 512 62 l 513 62 l 514 58 l 520 58 b 520 61 519 64 519 67 l 519 82 b 519 90 516 99 504 99 z m 512 71 b 512 70 512 70 512 68 b 511 65 508 62 502 62 b 499 62 496 64 496 69 b 496 77 505 78 512 78 z m 541 107 l 541 97 l 534 97 l 534 92 l 541 92 l 541 70 b 541 65 541 62 543 60 b 545 58 548 57 551 57 b 554 57 556 57 558 58 l 557 63 b 556 63 555 62 553 62 b 549 62 547 65 547 70 l 547 92 l 558 92 l 558 97 l 547 97 l 547 109 z m 578 49 b 576 47 574 46 572 45 l 574 39 b 576 39 579 41 583 44 b 588 49 591 55 596 69 l 607 97 l 600 97 l 591 74 b 591 71 590 68 589 66 b 588 68 587 71 587 74 l 577 97 l 570 97 l 585 61 b 585 60 585 59 585 59 b 585 58 585 58 584 57 b 583 53 581 50 578 49 z m 629 41 l 629 63 b 632 59 637 57 641 57 b 651 57 659 64 659 78 b 659 90 652 99 643 99 b 637 99 632 96 629 91 l 628 97 l 621 97 b 622 94 622 89 622 85 l 622 41 z m 629 80 b 629 82 629 83 630 83 b 631 89 636 93 641 93 b 648 93 652 86 652 77 b 652 68 648 62 640 62 b 635 62 631 66 629 71 b 629 71 629 73 629 74 z m 709 79 b 709 87 706 99 693 99 b 681 99 674 89 674 77 b 674 65 682 57 694 57 b 700 57 705 58 707 59 l 706 64 b 703 63 700 62 695 62 b 688 62 681 67 681 76 l 709 76 b 709 77 709 78 709 79 z m 681 81 b 682 86 685 93 692 93 b 700 93 702 86 702 81 z m 734 62 b 734 65 732 67 729 67 b 726 67 724 65 724 62 b 724 59 726 57 729 57 b 732 57 734 59 734 62 z m 769 93 b 773 93 776 91 778 91 l 779 96 b 778 97 773 98 769 98 b 756 98 748 89 748 77 b 748 65 756 57 768 57 b 773 57 778 58 779 59 l 778 64 b 776 64 773 62 769 62 b 761 62 755 68 755 77 b 755 86 760 93 769 93 z m 831 78 b 831 90 824 99 813 99 b 801 99 793 91 793 77 b 793 65 801 57 811 57 b 821 57 831 63 831 78 z m 800 77 b 800 85 804 93 812 93 b 820 93 824 84 824 77 b 824 68 819 62 812 62 b 805 62 800 68 800 77 z m 906 58 l 906 81 b 906 95 898 99 893 99 b 889 99 886 97 884 96 b 882 94 881 93 879 90 b 878 95 873 99 868 99 b 861 99 858 95 855 91 l 855 97 l 849 97 b 849 94 849 91 849 86 l 849 58 l 856 58 l 856 82 b 856 83 856 84 857 85 b 858 89 861 93 866 93 b 871 93 874 88 874 82 l 874 58 l 881 58 l 881 82 b 881 83 881 85 881 86 b 882 89 886 93 890 93 b 896 93 899 88 899 80 l 899 58 z"},"\\":{"x_min":0,"x_max":303,"ha":303,"o":"m 288 110 b 296 180 285 428 340 615 b 348 644 330 663 311 663 b 295 663 279 649 279 615 b 276 459 191 85 184 49 b 180 31 203 0 219 0 b 247 -1 284 65 288 110 z"},"e":{"x_min":0,"x_max":401,"ha":401,"o":"m 384 451 b 446 451 442 384 394 314 b 356 312 312 313 269 319 b 287 359 333 451 384 451 z m 402 89 b 370 58 339 34 302 34 b 294 34 285 35 276 38 b 205 62 200 124 238 240 b 242 254 249 272 257 290 b 326 294 435 287 466 284 b 488 284 497 309 501 316 b 541 406 525 472 423 480 b 414 481 405 481 396 481 b 277 481 180 418 118 240 b 72 107 107 1 252 1 b 327 1 360 24 406 49 b 430 62 422 92 409 92 b 407 92 404 91 402 89 z"},"b":{"x_min":0,"x_max":438,"ha":438,"o":"m 219 253 b 229 283 242 317 256 353 b 300 427 336 449 383 448 b 441 446 419 354 374 238 b 334 138 279 33 213 33 b 211 33 210 33 208 33 b 156 37 165 89 176 137 b 185 160 197 192 219 253 z m 219 3 b 324 3 417 54 490 229 b 545 361 551 470 404 481 b 367 484 323 460 288 429 b 318 501 348 567 364 600 b 371 612 352 633 337 635 b 335 635 333 635 331 635 b 302 635 285 608 244 608 b 229 608 211 612 188 622 b 174 628 144 570 169 570 b 186 570 208 576 223 576 b 235 576 243 572 238 557 b 215 491 166 349 139 268 b 106 172 73 112 42 29 b 33 7 50 1 65 1 b 78 1 106 24 126 45 b 143 6 182 3 219 3 z"},"%":{"x_min":0,"x_max":964,"ha":964,"o":"m 29 642 l 29 599 l 39 599 l 39 610 l 48 610 b 59 610 66 616 66 626 b 66 636 59 642 48 642 z m 56 626 b 56 621 53 619 47 619 l 39 619 l 39 634 l 47 634 b 53 634 56 631 56 626 z m 119 634 l 119 642 l 87 642 l 87 599 l 119 599 l 119 607 l 97 607 l 97 616 l 116 616 l 116 624 l 97 624 l 97 634 z m 178 626 b 178 636 171 642 160 642 l 142 642 l 142 599 l 151 599 l 151 611 l 160 611 l 168 599 l 178 599 l 169 613 b 175 615 178 619 178 626 z m 159 619 l 151 619 l 151 634 l 159 634 b 165 634 168 631 168 626 b 168 621 165 619 159 619 z m 214 606 b 209 606 203 608 200 610 l 197 603 b 200 600 207 598 213 598 b 226 598 232 604 232 611 b 232 627 207 622 207 630 b 207 632 209 634 215 634 b 219 634 223 633 227 631 l 230 639 b 226 641 221 642 215 642 b 203 642 198 636 198 629 b 198 613 222 619 222 610 b 222 608 219 606 214 606 z m 250 620 b 250 607 260 598 273 598 b 286 598 296 607 296 620 b 296 633 286 642 273 642 b 260 642 250 633 250 620 z m 286 620 b 286 612 280 607 273 607 b 265 607 260 612 260 620 b 260 628 265 634 273 634 b 280 634 286 628 286 620 z m 326 642 l 318 642 l 318 599 l 327 599 l 327 625 l 348 599 l 356 599 l 356 642 l 347 642 l 347 616 z m 375 599 l 385 599 l 388 608 l 408 608 l 412 599 l 422 599 l 403 642 l 394 642 z m 405 616 l 392 616 l 398 632 z m 441 642 l 441 599 l 471 599 l 471 607 l 450 607 l 450 642 z m 522 642 l 522 617 b 522 605 529 598 541 598 b 553 598 560 605 560 617 l 560 642 l 550 642 l 550 618 b 550 610 547 607 541 607 b 535 607 532 610 532 618 l 532 642 z m 598 606 b 593 606 588 608 584 610 l 581 603 b 585 600 591 598 598 598 b 610 598 615 604 615 611 b 615 627 591 622 591 630 b 591 632 594 634 599 634 b 603 634 607 633 611 631 l 614 639 b 610 641 605 642 599 642 b 587 642 582 636 582 629 b 582 613 606 619 606 610 b 606 608 604 606 598 606 z m 669 634 l 669 642 l 637 642 l 637 599 l 669 599 l 669 607 l 646 607 l 646 616 l 666 616 l 666 624 l 646 624 l 646 634 z m 720 620 b 720 607 730 598 743 598 b 756 598 766 607 766 620 b 766 633 756 642 743 642 b 730 642 720 633 720 620 z m 756 620 b 756 612 750 607 743 607 b 735 607 730 612 730 620 b 730 628 735 634 743 634 b 750 634 756 628 756 620 z m 796 642 l 788 642 l 788 599 l 797 599 l 797 625 l 818 599 l 826 599 l 826 642 l 817 642 l 817 616 z m 851 642 l 851 599 l 881 599 l 881 607 l 860 607 l 860 642 z m 917 599 l 917 614 l 933 642 l 923 642 l 913 622 l 901 642 l 891 642 l 907 614 l 907 599 z m 37 138 l 27 138 l 28 147 l 40 147 l 41 149 l 27 149 l 23 127 l 24 127 l 26 137 l 37 137 z m 43 133 b 43 130 45 127 50 127 b 55 127 59 131 59 137 b 59 141 56 143 52 143 b 47 143 43 139 43 133 z m 57 137 b 57 132 54 129 50 129 b 47 129 44 130 44 133 b 44 138 47 142 51 142 b 55 142 57 140 57 137 z m 67 143 l 64 127 l 65 127 l 67 135 b 68 140 70 141 74 141 b 74 141 74 141 74 141 l 74 143 b 71 143 69 142 68 140 l 68 143 z m 101 147 b 104 147 106 146 107 144 l 109 146 b 107 147 104 149 101 149 b 94 149 89 143 89 136 b 89 130 92 127 98 127 b 101 127 104 128 106 130 l 105 131 b 104 129 101 129 98 129 b 93 129 91 132 91 136 b 91 142 95 147 101 147 z m 127 137 b 127 141 124 143 120 143 b 115 143 111 139 111 133 b 111 130 114 127 118 127 b 123 127 127 131 127 137 z m 118 129 b 115 129 113 130 113 133 b 113 138 116 142 120 142 b 123 142 125 140 125 137 b 125 132 122 129 118 129 z m 135 143 l 132 127 l 134 127 l 135 136 b 136 140 139 142 142 142 b 145 142 146 140 146 138 b 146 137 146 137 146 137 l 144 127 l 145 127 l 147 136 b 148 140 150 142 154 142 b 156 142 158 140 158 138 b 158 137 158 137 158 137 l 156 127 l 157 127 l 159 137 b 159 137 159 138 159 138 b 159 141 157 143 154 143 b 151 143 149 142 147 140 b 147 142 145 143 142 143 b 140 143 138 142 136 140 l 137 143 z m 188 143 b 185 143 183 142 182 140 b 181 142 179 143 176 143 b 174 143 171 142 170 140 l 171 143 l 169 143 l 166 127 l 168 127 l 169 136 b 170 140 172 142 175 142 b 178 142 180 140 180 138 b 180 137 180 137 180 137 l 178 127 l 180 127 l 181 136 b 182 140 185 142 188 142 b 191 142 192 140 192 138 b 192 137 192 137 192 137 l 190 127 l 191 127 l 193 137 b 193 137 193 138 193 138 b 193 141 191 143 188 143 z m 215 135 b 215 135 215 136 215 137 b 215 141 212 143 208 143 b 203 143 200 139 200 133 b 200 129 203 127 207 127 b 209 127 212 128 213 129 l 212 130 b 211 129 209 129 207 129 b 203 129 201 130 201 133 b 201 134 201 134 201 135 z m 208 142 b 211 142 213 140 213 137 b 213 137 213 136 213 136 l 201 136 b 202 140 205 142 208 142 z m 223 143 l 220 127 l 222 127 l 223 135 b 224 140 226 141 230 141 b 230 141 230 141 230 141 l 230 143 b 227 143 226 142 224 140 l 225 143 z m 242 142 b 245 142 246 141 247 140 l 248 140 b 247 142 245 143 242 143 b 238 143 234 139 234 133 b 234 130 236 127 241 127 b 243 127 245 128 247 130 l 246 130 b 245 129 243 129 241 129 b 238 129 235 130 235 133 b 235 138 238 142 242 142 z m 259 148 b 259 149 259 149 258 149 b 257 149 256 149 256 148 b 256 147 257 147 257 147 b 259 147 259 147 259 148 z m 253 127 l 254 127 l 257 143 l 256 143 z m 277 127 l 280 143 l 279 143 l 278 139 b 277 141 275 143 272 143 b 266 143 263 139 263 133 b 263 129 266 127 270 127 b 273 127 275 128 276 130 l 276 127 z m 270 129 b 266 129 265 130 265 133 b 265 138 268 142 272 142 b 275 142 277 140 277 137 b 277 132 274 129 270 129 z m 287 127 l 292 150 l 290 150 l 286 127 z m 295 123 l 297 127 b 297 127 297 128 297 129 b 297 129 297 130 296 130 b 295 130 295 129 295 128 b 295 128 295 127 295 127 l 294 123 z m 324 134 b 330 134 334 137 334 143 b 334 146 331 149 327 149 l 320 149 l 315 127 l 317 127 l 318 134 z m 321 147 l 327 147 b 330 147 332 146 332 143 b 332 138 329 135 324 135 l 318 135 z m 340 127 l 344 150 l 343 150 l 338 127 z m 363 135 b 364 135 364 136 364 137 b 364 141 361 143 357 143 b 352 143 348 139 348 133 b 348 129 351 127 356 127 b 358 127 360 128 362 129 l 361 130 b 360 129 358 129 356 129 b 352 129 350 130 350 133 b 350 134 350 134 350 135 z m 357 142 b 360 142 362 140 362 137 b 362 137 362 136 362 136 l 350 136 b 351 140 353 142 357 142 z m 384 143 l 383 139 b 383 141 380 143 377 143 b 373 143 369 139 369 133 b 369 129 371 127 376 127 b 378 127 380 128 382 130 l 381 127 l 383 127 l 386 143 z m 376 129 b 372 129 370 130 370 133 b 370 138 373 142 377 142 b 381 142 383 140 383 137 b 383 132 380 129 376 129 z m 395 129 b 394 129 392 129 391 130 l 389 129 b 391 128 393 127 395 127 b 400 127 402 129 402 132 b 402 137 393 134 393 138 b 393 140 395 142 398 142 b 400 142 402 141 403 140 l 403 141 b 402 143 400 143 398 143 b 394 143 392 141 392 138 b 392 133 401 136 401 132 b 401 130 399 129 395 129 z m 423 135 b 423 135 423 136 423 137 b 423 141 420 143 416 143 b 411 143 408 139 408 133 b 408 129 411 127 415 127 b 417 127 420 128 421 129 l 420 130 b 419 129 417 129 415 129 b 411 129 409 130 409 133 b 409 134 409 134 409 135 z m 416 142 b 419 142 421 140 421 137 b 421 137 421 136 421 136 l 409 136 b 411 140 413 142 416 142 z m 446 127 l 459 149 l 458 149 l 446 129 l 441 149 l 439 149 l 445 127 z m 467 148 b 467 149 466 149 465 149 b 465 149 464 149 464 148 b 464 147 465 147 465 147 b 466 147 467 147 467 148 z m 461 127 l 462 127 l 465 143 l 464 143 z m 478 142 b 479 142 481 141 482 140 l 483 141 b 482 143 480 143 478 143 b 474 143 471 141 471 138 b 471 133 480 136 480 132 b 480 130 479 129 476 129 b 473 129 471 129 470 130 l 469 129 b 470 128 473 127 475 127 b 479 127 482 129 482 132 b 482 137 473 134 473 138 b 473 140 475 142 478 142 z m 488 127 l 489 127 l 493 143 l 491 143 z m 494 148 b 494 149 493 149 493 149 b 492 149 491 149 491 148 b 491 147 492 147 493 147 b 493 147 494 147 494 148 z m 502 146 l 502 143 l 499 143 l 499 141 l 501 141 l 499 132 b 499 131 499 131 499 130 b 499 128 500 127 503 127 b 504 127 505 127 506 128 l 505 129 b 505 129 504 128 503 128 b 502 128 500 129 500 130 b 500 131 500 131 501 132 l 503 141 l 508 141 l 508 143 l 503 143 l 503 146 z m 942 573 l 29 573 l 29 570 l 942 570 z m 942 671 l 29 671 l 29 668 l 942 668 z m 942 681 l 29 681 l 29 679 l 942 679 z m 30 25 l 943 25 l 943 27 l 30 27 z m 30 36 l 943 36 l 943 38 l 30 38 z m 517 135 l 517 133 l 943 133 l 943 135 z m 603 212 b 608 212 612 226 612 246 b 612 259 611 263 606 264 b 602 266 600 263 601 244 b 601 225 600 221 594 220 b 588 219 588 220 590 231 b 591 240 591 241 585 241 b 579 241 577 239 577 231 b 577 225 580 218 584 216 b 587 212 588 208 587 201 b 585 192 586 191 594 191 b 599 191 603 192 605 194 b 606 196 605 198 603 198 b 601 198 599 201 599 205 b 599 209 601 212 603 212 z m 569 255 b 573 256 576 256 577 253 b 579 245 585 249 585 258 b 585 265 584 267 579 265 b 576 264 566 264 557 264 b 543 264 541 262 541 256 b 541 250 543 249 549 251 b 556 253 556 252 555 222 b 554 191 554 191 562 191 b 570 191 573 196 567 200 b 565 201 563 213 563 228 b 563 248 564 253 569 255 z m 643 218 b 654 223 658 230 658 243 b 658 256 648 264 633 264 l 620 264 l 621 227 b 621 194 623 191 629 191 b 632 191 637 192 638 194 b 639 196 638 198 636 198 b 628 198 633 212 643 218 z m 631 235 b 628 252 628 256 635 256 b 649 256 656 238 646 228 b 639 220 634 223 631 235 z m 722 283 b 737 278 741 278 759 281 b 784 286 800 297 812 316 b 841 361 817 404 766 401 b 741 400 737 395 755 390 b 773 385 780 375 780 351 b 779 335 777 326 770 314 b 754 287 736 281 725 298 b 720 306 719 313 721 344 l 724 380 l 714 384 b 699 390 690 388 688 380 b 687 375 684 373 680 375 b 677 376 667 378 659 379 b 646 381 643 379 632 370 b 621 360 620 357 618 335 b 616 300 609 300 604 335 b 600 366 592 378 573 382 b 565 384 561 382 552 373 l 541 363 l 541 374 b 540 381 540 393 541 401 b 542 415 543 417 552 417 b 557 417 570 421 581 426 b 605 438 615 455 613 475 b 611 493 602 503 585 508 b 551 518 513 487 506 442 b 504 429 503 428 495 428 l 485 428 l 488 454 b 490 480 490 481 482 484 b 461 489 459 487 454 462 b 450 440 449 438 441 440 b 437 441 424 443 411 444 b 387 447 353 439 344 429 b 336 420 355 419 375 428 b 389 434 398 435 418 434 b 432 433 444 431 444 431 b 445 430 445 403 444 371 b 441 305 434 292 433 348 l 432 384 l 418 387 b 406 390 395 389 395 384 b 395 382 388 382 379 383 b 367 384 360 383 353 378 b 334 366 327 330 341 308 b 352 289 348 249 336 249 b 327 249 326 264 327 356 b 328 436 327 445 321 458 b 302 496 265 489 251 444 b 248 434 246 423 246 420 b 246 405 242 402 233 411 b 214 430 175 432 149 414 b 127 400 117 383 115 356 b 114 334 115 332 127 320 b 136 311 144 307 156 305 b 184 301 210 311 184 316 b 166 319 159 330 159 353 b 159 386 179 420 199 420 b 210 420 214 404 216 344 b 218 311 220 288 222 285 b 225 283 233 280 241 279 l 256 277 l 258 340 b 259 375 262 412 264 422 b 269 444 283 473 288 471 b 290 470 291 456 291 438 b 289 298 289 287 295 268 b 298 257 304 246 310 242 b 315 238 325 234 332 234 b 350 234 359 248 359 273 l 359 293 l 371 293 b 381 293 386 295 391 303 l 398 312 l 408 304 b 415 297 420 296 432 297 b 444 299 446 298 448 291 b 451 278 467 261 480 256 b 502 249 517 260 523 287 b 524 294 527 299 532 299 b 546 302 549 308 549 329 b 549 352 554 369 562 369 b 565 369 567 363 567 343 b 567 320 568 317 577 307 b 588 296 602 293 614 300 b 619 302 622 302 627 296 b 637 285 659 281 672 287 b 678 290 684 296 685 300 b 688 309 692 309 699 299 b 702 294 712 287 722 283 z m 551 464 b 562 499 584 513 591 490 b 599 469 587 447 562 434 b 539 422 538 425 551 464 z m 386 318 b 379 303 374 305 371 323 b 367 352 377 378 388 371 b 394 367 392 330 386 318 z m 496 275 b 488 288 483 326 483 376 b 483 420 484 425 496 417 b 499 416 501 397 502 376 b 503 355 506 323 507 305 b 509 270 506 260 496 275 z m 672 303 b 666 292 658 295 656 309 b 653 326 656 346 664 357 b 670 367 670 367 675 360 b 681 352 679 316 672 303 z m 697 252 b 698 251 700 255 700 259 b 702 267 700 268 693 265 b 689 264 680 264 674 264 l 663 264 l 663 227 b 663 192 664 190 670 192 b 675 193 683 194 690 194 b 699 194 700 196 699 202 b 697 207 696 208 693 205 b 691 203 685 202 681 202 b 673 202 672 203 672 215 b 672 228 673 228 684 226 b 693 224 694 225 694 232 b 694 241 689 244 685 238 b 681 231 672 234 672 244 b 672 256 681 259 697 252 z m 84 58 l 91 76 b 92 81 93 85 94 89 b 95 85 97 81 98 77 l 104 58 l 110 58 l 123 97 l 116 97 l 110 77 b 109 73 108 68 107 64 b 106 68 105 73 104 77 l 98 97 l 92 97 l 85 77 b 84 73 82 68 81 64 b 80 68 79 73 78 77 l 73 97 l 65 97 l 77 58 z m 154 58 l 160 76 b 162 81 163 85 164 89 b 165 85 166 81 168 77 l 174 58 l 180 58 l 193 97 l 186 97 l 180 77 b 179 73 178 68 177 64 b 176 68 175 73 174 77 l 167 97 l 161 97 l 155 77 b 153 73 152 68 151 64 b 150 68 149 73 148 77 l 143 97 l 135 97 l 147 58 z m 224 58 l 230 76 b 232 81 233 85 234 89 b 235 85 236 81 238 77 l 244 58 l 250 58 l 263 97 l 256 97 l 250 77 b 249 73 248 68 247 64 b 246 68 245 73 243 77 l 237 97 l 231 97 l 224 77 b 223 73 222 68 221 64 b 220 68 219 73 218 77 l 212 97 l 205 97 l 217 58 z m 279 57 b 282 57 283 59 283 62 b 283 65 281 67 279 67 b 276 67 274 65 274 62 b 274 59 276 57 279 57 z m 335 58 l 335 81 b 335 95 326 99 320 99 b 314 99 309 94 307 91 l 306 97 l 300 97 b 300 94 300 91 300 86 l 300 58 l 307 58 l 307 82 b 307 83 308 84 308 85 b 309 89 313 93 318 93 b 325 93 327 87 327 80 l 327 58 z m 351 68 b 351 62 355 57 364 57 b 369 57 373 59 376 62 l 376 58 l 383 58 b 382 61 382 64 382 67 l 382 82 b 382 90 379 99 367 99 b 362 99 358 97 354 95 l 356 90 b 359 92 362 93 366 93 b 374 93 375 87 375 83 b 360 83 351 77 351 68 z m 376 78 l 376 71 b 376 70 375 70 375 68 b 374 65 370 62 365 62 b 362 62 359 64 359 69 b 359 77 367 78 376 78 z m 421 92 l 421 97 l 411 97 l 411 109 l 403 107 l 403 97 l 397 97 l 397 92 l 403 92 l 403 70 b 403 65 405 62 406 60 b 408 58 411 57 414 57 b 417 57 419 57 421 58 l 420 63 b 420 63 418 62 416 62 b 412 62 411 65 411 70 l 411 92 z m 471 58 l 471 81 b 471 95 463 99 458 99 b 455 99 452 97 450 96 b 448 95 446 93 445 91 l 445 116 l 437 116 l 437 58 l 445 58 l 445 82 b 445 83 445 84 445 85 b 447 89 450 93 455 93 b 462 93 464 87 464 80 l 464 58 z m 504 99 b 499 99 494 97 491 95 l 493 90 b 496 92 499 93 503 93 b 511 93 512 87 512 83 b 497 83 488 77 488 68 b 488 62 493 57 500 57 b 506 57 510 59 512 62 l 513 62 l 514 58 l 520 58 b 520 61 519 64 519 67 l 519 82 b 519 90 516 99 504 99 z m 512 71 b 512 70 512 70 512 68 b 511 65 508 62 502 62 b 499 62 496 64 496 69 b 496 77 505 78 512 78 z m 541 107 l 541 97 l 534 97 l 534 92 l 541 92 l 541 70 b 541 65 541 62 543 60 b 545 58 548 57 551 57 b 554 57 556 57 558 58 l 557 63 b 556 63 555 62 553 62 b 549 62 547 65 547 70 l 547 92 l 558 92 l 558 97 l 547 97 l 547 109 z m 578 49 b 576 47 574 46 572 45 l 574 39 b 576 39 579 41 583 44 b 588 49 591 55 596 69 l 607 97 l 600 97 l 591 74 b 591 71 590 68 589 66 b 588 68 587 71 587 74 l 577 97 l 570 97 l 585 61 b 585 60 585 59 585 59 b 585 58 585 58 584 57 b 583 53 581 50 578 49 z m 629 41 l 629 63 b 632 59 637 57 641 57 b 651 57 659 64 659 78 b 659 90 652 99 643 99 b 637 99 632 96 629 91 l 628 97 l 621 97 b 622 94 622 89 622 85 l 622 41 z m 629 80 b 629 82 629 83 630 83 b 631 89 636 93 641 93 b 648 93 652 86 652 77 b 652 68 648 62 640 62 b 635 62 631 66 629 71 b 629 71 629 73 629 74 z m 709 79 b 709 87 706 99 693 99 b 681 99 674 89 674 77 b 674 65 682 57 694 57 b 700 57 705 58 707 59 l 706 64 b 703 63 700 62 695 62 b 688 62 681 67 681 76 l 709 76 b 709 77 709 78 709 79 z m 681 81 b 682 86 685 93 692 93 b 700 93 702 86 702 81 z m 734 62 b 734 65 732 67 729 67 b 726 67 724 65 724 62 b 724 59 726 57 729 57 b 732 57 734 59 734 62 z m 769 93 b 773 93 776 91 778 91 l 779 96 b 778 97 773 98 769 98 b 756 98 748 89 748 77 b 748 65 756 57 768 57 b 773 57 778 58 779 59 l 778 64 b 776 64 773 62 769 62 b 761 62 755 68 755 77 b 755 86 760 93 769 93 z m 831 78 b 831 90 824 99 813 99 b 801 99 793 91 793 77 b 793 65 801 57 811 57 b 821 57 831 63 831 78 z m 800 77 b 800 85 804 93 812 93 b 820 93 824 84 824 77 b 824 68 819 62 812 62 b 805 62 800 68 800 77 z m 906 58 l 906 81 b 906 95 898 99 893 99 b 889 99 886 97 884 96 b 882 94 881 93 879 90 b 878 95 873 99 868 99 b 861 99 858 95 855 91 l 855 97 l 849 97 b 849 94 849 91 849 86 l 849 58 l 856 58 l 856 82 b 856 83 856 84 857 85 b 858 89 861 93 866 93 b 871 93 874 88 874 82 l 874 58 l 881 58 l 881 82 b 881 83 881 85 881 86 b 882 89 886 93 890 93 b 896 93 899 88 899 80 l 899 58 z"},"m":{"x_min":0,"x_max":749,"ha":749,"o":"m 582 399 b 583 401 584 403 585 405 b 599 432 580 480 482 480 b 448 480 374 439 325 389 b 333 409 342 428 350 445 b 357 458 338 477 322 479 b 320 479 318 479 315 479 b 288 479 271 454 231 454 b 216 454 197 458 174 467 b 159 473 131 417 156 417 b 173 417 195 423 209 423 b 222 423 229 419 224 404 b 208 357 198 325 173 255 b 140 162 114 108 84 28 b 77 10 104 1 133 1 b 160 1 189 9 195 26 b 220 92 258 218 301 329 b 301 330 301 330 301 331 b 323 364 377 424 431 423 b 461 423 468 396 456 361 b 434 298 401 204 395 186 b 372 130 352 86 331 28 b 324 10 351 1 380 1 b 407 1 436 9 442 26 b 459 69 481 137 506 211 b 511 225 536 290 557 343 b 582 376 629 423 678 423 b 708 423 715 396 703 361 b 681 298 691 325 667 255 b 640 181 627 162 603 97 b 586 46 593 3 670 3 b 734 3 771 21 821 49 b 845 62 837 92 824 92 b 822 92 819 91 817 89 b 787 60 765 50 749 50 b 722 50 714 81 718 106 b 724 160 757 265 832 405 b 846 432 827 480 729 480 b 697 480 631 445 582 399 z"},"#":{"x_min":0,"x_max":505,"ha":505,"o":"m 403 290 b 376 292 349 295 323 298 b 335 324 348 350 361 374 b 387 373 410 369 432 365 b 424 341 414 316 403 290 z m 521 300 b 498 293 469 290 438 290 b 448 312 458 334 468 355 b 506 343 532 330 543 321 b 550 316 581 345 587 362 b 596 388 569 406 543 406 b 533 406 515 405 494 403 b 526 462 553 506 559 517 b 564 528 546 546 529 547 b 502 547 462 508 458 481 b 455 457 451 430 443 400 b 421 399 398 399 375 399 b 408 459 439 506 444 517 b 450 528 431 546 415 547 b 388 547 344 512 334 484 b 328 468 324 440 316 403 b 291 407 266 412 245 420 b 218 430 176 344 222 358 b 253 367 281 372 309 374 b 304 352 297 328 289 304 b 241 312 202 320 193 321 b 182 321 157 296 152 280 b 145 258 160 235 181 235 b 185 235 190 236 195 238 b 219 250 245 257 272 261 b 258 229 241 197 218 165 b 205 147 222 136 241 136 b 258 136 276 144 279 165 b 284 195 295 230 309 265 b 335 266 362 265 389 262 b 374 231 355 198 332 165 b 320 147 336 136 355 136 b 372 136 390 144 394 165 b 399 193 410 225 424 257 b 450 253 477 246 502 238 b 531 230 567 314 521 300 z"},",":{"x_min":0,"x_max":964,"ha":964,"o":"m 29 642 l 29 599 l 39 599 l 39 610 l 48 610 b 59 610 66 616 66 626 b 66 636 59 642 48 642 z m 56 626 b 56 621 53 619 47 619 l 39 619 l 39 634 l 47 634 b 53 634 56 631 56 626 z m 119 634 l 119 642 l 87 642 l 87 599 l 119 599 l 119 607 l 97 607 l 97 616 l 116 616 l 116 624 l 97 624 l 97 634 z m 178 626 b 178 636 171 642 160 642 l 142 642 l 142 599 l 151 599 l 151 611 l 160 611 l 168 599 l 178 599 l 169 613 b 175 615 178 619 178 626 z m 159 619 l 151 619 l 151 634 l 159 634 b 165 634 168 631 168 626 b 168 621 165 619 159 619 z m 214 606 b 209 606 203 608 200 610 l 197 603 b 200 600 207 598 213 598 b 226 598 232 604 232 611 b 232 627 207 622 207 630 b 207 632 209 634 215 634 b 219 634 223 633 227 631 l 230 639 b 226 641 221 642 215 642 b 203 642 198 636 198 629 b 198 613 222 619 222 610 b 222 608 219 606 214 606 z m 250 620 b 250 607 260 598 273 598 b 286 598 296 607 296 620 b 296 633 286 642 273 642 b 260 642 250 633 250 620 z m 286 620 b 286 612 280 607 273 607 b 265 607 260 612 260 620 b 260 628 265 634 273 634 b 280 634 286 628 286 620 z m 326 642 l 318 642 l 318 599 l 327 599 l 327 625 l 348 599 l 356 599 l 356 642 l 347 642 l 347 616 z m 375 599 l 385 599 l 388 608 l 408 608 l 412 599 l 422 599 l 403 642 l 394 642 z m 405 616 l 392 616 l 398 632 z m 441 642 l 441 599 l 471 599 l 471 607 l 450 607 l 450 642 z m 522 642 l 522 617 b 522 605 529 598 541 598 b 553 598 560 605 560 617 l 560 642 l 550 642 l 550 618 b 550 610 547 607 541 607 b 535 607 532 610 532 618 l 532 642 z m 598 606 b 593 606 588 608 584 610 l 581 603 b 585 600 591 598 598 598 b 610 598 615 604 615 611 b 615 627 591 622 591 630 b 591 632 594 634 599 634 b 603 634 607 633 611 631 l 614 639 b 610 641 605 642 599 642 b 587 642 582 636 582 629 b 582 613 606 619 606 610 b 606 608 604 606 598 606 z m 669 634 l 669 642 l 637 642 l 637 599 l 669 599 l 669 607 l 646 607 l 646 616 l 666 616 l 666 624 l 646 624 l 646 634 z m 720 620 b 720 607 730 598 743 598 b 756 598 766 607 766 620 b 766 633 756 642 743 642 b 730 642 720 633 720 620 z m 756 620 b 756 612 750 607 743 607 b 735 607 730 612 730 620 b 730 628 735 634 743 634 b 750 634 756 628 756 620 z m 796 642 l 788 642 l 788 599 l 797 599 l 797 625 l 818 599 l 826 599 l 826 642 l 817 642 l 817 616 z m 851 642 l 851 599 l 881 599 l 881 607 l 860 607 l 860 642 z m 917 599 l 917 614 l 933 642 l 923 642 l 913 622 l 901 642 l 891 642 l 907 614 l 907 599 z m 37 138 l 27 138 l 28 147 l 40 147 l 41 149 l 27 149 l 23 127 l 24 127 l 26 137 l 37 137 z m 43 133 b 43 130 45 127 50 127 b 55 127 59 131 59 137 b 59 141 56 143 52 143 b 47 143 43 139 43 133 z m 57 137 b 57 132 54 129 50 129 b 47 129 44 130 44 133 b 44 138 47 142 51 142 b 55 142 57 140 57 137 z m 67 143 l 64 127 l 65 127 l 67 135 b 68 140 70 141 74 141 b 74 141 74 141 74 141 l 74 143 b 71 143 69 142 68 140 l 68 143 z m 101 147 b 104 147 106 146 107 144 l 109 146 b 107 147 104 149 101 149 b 94 149 89 143 89 136 b 89 130 92 127 98 127 b 101 127 104 128 106 130 l 105 131 b 104 129 101 129 98 129 b 93 129 91 132 91 136 b 91 142 95 147 101 147 z m 127 137 b 127 141 124 143 120 143 b 115 143 111 139 111 133 b 111 130 114 127 118 127 b 123 127 127 131 127 137 z m 118 129 b 115 129 113 130 113 133 b 113 138 116 142 120 142 b 123 142 125 140 125 137 b 125 132 122 129 118 129 z m 135 143 l 132 127 l 134 127 l 135 136 b 136 140 139 142 142 142 b 145 142 146 140 146 138 b 146 137 146 137 146 137 l 144 127 l 145 127 l 147 136 b 148 140 150 142 154 142 b 156 142 158 140 158 138 b 158 137 158 137 158 137 l 156 127 l 157 127 l 159 137 b 159 137 159 138 159 138 b 159 141 157 143 154 143 b 151 143 149 142 147 140 b 147 142 145 143 142 143 b 140 143 138 142 136 140 l 137 143 z m 188 143 b 185 143 183 142 182 140 b 181 142 179 143 176 143 b 174 143 171 142 170 140 l 171 143 l 169 143 l 166 127 l 168 127 l 169 136 b 170 140 172 142 175 142 b 178 142 180 140 180 138 b 180 137 180 137 180 137 l 178 127 l 180 127 l 181 136 b 182 140 185 142 188 142 b 191 142 192 140 192 138 b 192 137 192 137 192 137 l 190 127 l 191 127 l 193 137 b 193 137 193 138 193 138 b 193 141 191 143 188 143 z m 215 135 b 215 135 215 136 215 137 b 215 141 212 143 208 143 b 203 143 200 139 200 133 b 200 129 203 127 207 127 b 209 127 212 128 213 129 l 212 130 b 211 129 209 129 207 129 b 203 129 201 130 201 133 b 201 134 201 134 201 135 z m 208 142 b 211 142 213 140 213 137 b 213 137 213 136 213 136 l 201 136 b 202 140 205 142 208 142 z m 223 143 l 220 127 l 222 127 l 223 135 b 224 140 226 141 230 141 b 230 141 230 141 230 141 l 230 143 b 227 143 226 142 224 140 l 225 143 z m 242 142 b 245 142 246 141 247 140 l 248 140 b 247 142 245 143 242 143 b 238 143 234 139 234 133 b 234 130 236 127 241 127 b 243 127 245 128 247 130 l 246 130 b 245 129 243 129 241 129 b 238 129 235 130 235 133 b 235 138 238 142 242 142 z m 259 148 b 259 149 259 149 258 149 b 257 149 256 149 256 148 b 256 147 257 147 257 147 b 259 147 259 147 259 148 z m 253 127 l 254 127 l 257 143 l 256 143 z m 277 127 l 280 143 l 279 143 l 278 139 b 277 141 275 143 272 143 b 266 143 263 139 263 133 b 263 129 266 127 270 127 b 273 127 275 128 276 130 l 276 127 z m 270 129 b 266 129 265 130 265 133 b 265 138 268 142 272 142 b 275 142 277 140 277 137 b 277 132 274 129 270 129 z m 287 127 l 292 150 l 290 150 l 286 127 z m 295 123 l 297 127 b 297 127 297 128 297 129 b 297 129 297 130 296 130 b 295 130 295 129 295 128 b 295 128 295 127 295 127 l 294 123 z m 324 134 b 330 134 334 137 334 143 b 334 146 331 149 327 149 l 320 149 l 315 127 l 317 127 l 318 134 z m 321 147 l 327 147 b 330 147 332 146 332 143 b 332 138 329 135 324 135 l 318 135 z m 340 127 l 344 150 l 343 150 l 338 127 z m 363 135 b 364 135 364 136 364 137 b 364 141 361 143 357 143 b 352 143 348 139 348 133 b 348 129 351 127 356 127 b 358 127 360 128 362 129 l 361 130 b 360 129 358 129 356 129 b 352 129 350 130 350 133 b 350 134 350 134 350 135 z m 357 142 b 360 142 362 140 362 137 b 362 137 362 136 362 136 l 350 136 b 351 140 353 142 357 142 z m 384 143 l 383 139 b 383 141 380 143 377 143 b 373 143 369 139 369 133 b 369 129 371 127 376 127 b 378 127 380 128 382 130 l 381 127 l 383 127 l 386 143 z m 376 129 b 372 129 370 130 370 133 b 370 138 373 142 377 142 b 381 142 383 140 383 137 b 383 132 380 129 376 129 z m 395 129 b 394 129 392 129 391 130 l 389 129 b 391 128 393 127 395 127 b 400 127 402 129 402 132 b 402 137 393 134 393 138 b 393 140 395 142 398 142 b 400 142 402 141 403 140 l 403 141 b 402 143 400 143 398 143 b 394 143 392 141 392 138 b 392 133 401 136 401 132 b 401 130 399 129 395 129 z m 423 135 b 423 135 423 136 423 137 b 423 141 420 143 416 143 b 411 143 408 139 408 133 b 408 129 411 127 415 127 b 417 127 420 128 421 129 l 420 130 b 419 129 417 129 415 129 b 411 129 409 130 409 133 b 409 134 409 134 409 135 z m 416 142 b 419 142 421 140 421 137 b 421 137 421 136 421 136 l 409 136 b 411 140 413 142 416 142 z m 446 127 l 459 149 l 458 149 l 446 129 l 441 149 l 439 149 l 445 127 z m 467 148 b 467 149 466 149 465 149 b 465 149 464 149 464 148 b 464 147 465 147 465 147 b 466 147 467 147 467 148 z m 461 127 l 462 127 l 465 143 l 464 143 z m 478 142 b 479 142 481 141 482 140 l 483 141 b 482 143 480 143 478 143 b 474 143 471 141 471 138 b 471 133 480 136 480 132 b 480 130 479 129 476 129 b 473 129 471 129 470 130 l 469 129 b 470 128 473 127 475 127 b 479 127 482 129 482 132 b 482 137 473 134 473 138 b 473 140 475 142 478 142 z m 488 127 l 489 127 l 493 143 l 491 143 z m 494 148 b 494 149 493 149 493 149 b 492 149 491 149 491 148 b 491 147 492 147 493 147 b 493 147 494 147 494 148 z m 502 146 l 502 143 l 499 143 l 499 141 l 501 141 l 499 132 b 499 131 499 131 499 130 b 499 128 500 127 503 127 b 504 127 505 127 506 128 l 505 129 b 505 129 504 128 503 128 b 502 128 500 129 500 130 b 500 131 500 131 501 132 l 503 141 l 508 141 l 508 143 l 503 143 l 503 146 z m 942 573 l 29 573 l 29 570 l 942 570 z m 942 671 l 29 671 l 29 668 l 942 668 z m 942 681 l 29 681 l 29 679 l 942 679 z m 30 25 l 943 25 l 943 27 l 30 27 z m 30 36 l 943 36 l 943 38 l 30 38 z m 517 135 l 517 133 l 943 133 l 943 135 z m 603 212 b 608 212 612 226 612 246 b 612 259 611 263 606 264 b 602 266 600 263 601 244 b 601 225 600 221 594 220 b 588 219 588 220 590 231 b 591 240 591 241 585 241 b 579 241 577 239 577 231 b 577 225 580 218 584 216 b 587 212 588 208 587 201 b 585 192 586 191 594 191 b 599 191 603 192 605 194 b 606 196 605 198 603 198 b 601 198 599 201 599 205 b 599 209 601 212 603 212 z m 569 255 b 573 256 576 256 577 253 b 579 245 585 249 585 258 b 585 265 584 267 579 265 b 576 264 566 264 557 264 b 543 264 541 262 541 256 b 541 250 543 249 549 251 b 556 253 556 252 555 222 b 554 191 554 191 562 191 b 570 191 573 196 567 200 b 565 201 563 213 563 228 b 563 248 564 253 569 255 z m 643 218 b 654 223 658 230 658 243 b 658 256 648 264 633 264 l 620 264 l 621 227 b 621 194 623 191 629 191 b 632 191 637 192 638 194 b 639 196 638 198 636 198 b 628 198 633 212 643 218 z m 631 235 b 628 252 628 256 635 256 b 649 256 656 238 646 228 b 639 220 634 223 631 235 z m 722 283 b 737 278 741 278 759 281 b 784 286 800 297 812 316 b 841 361 817 404 766 401 b 741 400 737 395 755 390 b 773 385 780 375 780 351 b 779 335 777 326 770 314 b 754 287 736 281 725 298 b 720 306 719 313 721 344 l 724 380 l 714 384 b 699 390 690 388 688 380 b 687 375 684 373 680 375 b 677 376 667 378 659 379 b 646 381 643 379 632 370 b 621 360 620 357 618 335 b 616 300 609 300 604 335 b 600 366 592 378 573 382 b 565 384 561 382 552 373 l 541 363 l 541 374 b 540 381 540 393 541 401 b 542 415 543 417 552 417 b 557 417 570 421 581 426 b 605 438 615 455 613 475 b 611 493 602 503 585 508 b 551 518 513 487 506 442 b 504 429 503 428 495 428 l 485 428 l 488 454 b 490 480 490 481 482 484 b 461 489 459 487 454 462 b 450 440 449 438 441 440 b 437 441 424 443 411 444 b 387 447 353 439 344 429 b 336 420 355 419 375 428 b 389 434 398 435 418 434 b 432 433 444 431 444 431 b 445 430 445 403 444 371 b 441 305 434 292 433 348 l 432 384 l 418 387 b 406 390 395 389 395 384 b 395 382 388 382 379 383 b 367 384 360 383 353 378 b 334 366 327 330 341 308 b 352 289 348 249 336 249 b 327 249 326 264 327 356 b 328 436 327 445 321 458 b 302 496 265 489 251 444 b 248 434 246 423 246 420 b 246 405 242 402 233 411 b 214 430 175 432 149 414 b 127 400 117 383 115 356 b 114 334 115 332 127 320 b 136 311 144 307 156 305 b 184 301 210 311 184 316 b 166 319 159 330 159 353 b 159 386 179 420 199 420 b 210 420 214 404 216 344 b 218 311 220 288 222 285 b 225 283 233 280 241 279 l 256 277 l 258 340 b 259 375 262 412 264 422 b 269 444 283 473 288 471 b 290 470 291 456 291 438 b 289 298 289 287 295 268 b 298 257 304 246 310 242 b 315 238 325 234 332 234 b 350 234 359 248 359 273 l 359 293 l 371 293 b 381 293 386 295 391 303 l 398 312 l 408 304 b 415 297 420 296 432 297 b 444 299 446 298 448 291 b 451 278 467 261 480 256 b 502 249 517 260 523 287 b 524 294 527 299 532 299 b 546 302 549 308 549 329 b 549 352 554 369 562 369 b 565 369 567 363 567 343 b 567 320 568 317 577 307 b 588 296 602 293 614 300 b 619 302 622 302 627 296 b 637 285 659 281 672 287 b 678 290 684 296 685 300 b 688 309 692 309 699 299 b 702 294 712 287 722 283 z m 551 464 b 562 499 584 513 591 490 b 599 469 587 447 562 434 b 539 422 538 425 551 464 z m 386 318 b 379 303 374 305 371 323 b 367 352 377 378 388 371 b 394 367 392 330 386 318 z m 496 275 b 488 288 483 326 483 376 b 483 420 484 425 496 417 b 499 416 501 397 502 376 b 503 355 506 323 507 305 b 509 270 506 260 496 275 z m 672 303 b 666 292 658 295 656 309 b 653 326 656 346 664 357 b 670 367 670 367 675 360 b 681 352 679 316 672 303 z m 697 252 b 698 251 700 255 700 259 b 702 267 700 268 693 265 b 689 264 680 264 674 264 l 663 264 l 663 227 b 663 192 664 190 670 192 b 675 193 683 194 690 194 b 699 194 700 196 699 202 b 697 207 696 208 693 205 b 691 203 685 202 681 202 b 673 202 672 203 672 215 b 672 228 673 228 684 226 b 693 224 694 225 694 232 b 694 241 689 244 685 238 b 681 231 672 234 672 244 b 672 256 681 259 697 252 z m 84 58 l 91 76 b 92 81 93 85 94 89 b 95 85 97 81 98 77 l 104 58 l 110 58 l 123 97 l 116 97 l 110 77 b 109 73 108 68 107 64 b 106 68 105 73 104 77 l 98 97 l 92 97 l 85 77 b 84 73 82 68 81 64 b 80 68 79 73 78 77 l 73 97 l 65 97 l 77 58 z m 154 58 l 160 76 b 162 81 163 85 164 89 b 165 85 166 81 168 77 l 174 58 l 180 58 l 193 97 l 186 97 l 180 77 b 179 73 178 68 177 64 b 176 68 175 73 174 77 l 167 97 l 161 97 l 155 77 b 153 73 152 68 151 64 b 150 68 149 73 148 77 l 143 97 l 135 97 l 147 58 z m 224 58 l 230 76 b 232 81 233 85 234 89 b 235 85 236 81 238 77 l 244 58 l 250 58 l 263 97 l 256 97 l 250 77 b 249 73 248 68 247 64 b 246 68 245 73 243 77 l 237 97 l 231 97 l 224 77 b 223 73 222 68 221 64 b 220 68 219 73 218 77 l 212 97 l 205 97 l 217 58 z m 279 57 b 282 57 283 59 283 62 b 283 65 281 67 279 67 b 276 67 274 65 274 62 b 274 59 276 57 279 57 z m 335 58 l 335 81 b 335 95 326 99 320 99 b 314 99 309 94 307 91 l 306 97 l 300 97 b 300 94 300 91 300 86 l 300 58 l 307 58 l 307 82 b 307 83 308 84 308 85 b 309 89 313 93 318 93 b 325 93 327 87 327 80 l 327 58 z m 351 68 b 351 62 355 57 364 57 b 369 57 373 59 376 62 l 376 58 l 383 58 b 382 61 382 64 382 67 l 382 82 b 382 90 379 99 367 99 b 362 99 358 97 354 95 l 356 90 b 359 92 362 93 366 93 b 374 93 375 87 375 83 b 360 83 351 77 351 68 z m 376 78 l 376 71 b 376 70 375 70 375 68 b 374 65 370 62 365 62 b 362 62 359 64 359 69 b 359 77 367 78 376 78 z m 421 92 l 421 97 l 411 97 l 411 109 l 403 107 l 403 97 l 397 97 l 397 92 l 403 92 l 403 70 b 403 65 405 62 406 60 b 408 58 411 57 414 57 b 417 57 419 57 421 58 l 420 63 b 420 63 418 62 416 62 b 412 62 411 65 411 70 l 411 92 z m 471 58 l 471 81 b 471 95 463 99 458 99 b 455 99 452 97 450 96 b 448 95 446 93 445 91 l 445 116 l 437 116 l 437 58 l 445 58 l 445 82 b 445 83 445 84 445 85 b 447 89 450 93 455 93 b 462 93 464 87 464 80 l 464 58 z m 504 99 b 499 99 494 97 491 95 l 493 90 b 496 92 499 93 503 93 b 511 93 512 87 512 83 b 497 83 488 77 488 68 b 488 62 493 57 500 57 b 506 57 510 59 512 62 l 513 62 l 514 58 l 520 58 b 520 61 519 64 519 67 l 519 82 b 519 90 516 99 504 99 z m 512 71 b 512 70 512 70 512 68 b 511 65 508 62 502 62 b 499 62 496 64 496 69 b 496 77 505 78 512 78 z m 541 107 l 541 97 l 534 97 l 534 92 l 541 92 l 541 70 b 541 65 541 62 543 60 b 545 58 548 57 551 57 b 554 57 556 57 558 58 l 557 63 b 556 63 555 62 553 62 b 549 62 547 65 547 70 l 547 92 l 558 92 l 558 97 l 547 97 l 547 109 z m 578 49 b 576 47 574 46 572 45 l 574 39 b 576 39 579 41 583 44 b 588 49 591 55 596 69 l 607 97 l 600 97 l 591 74 b 591 71 590 68 589 66 b 588 68 587 71 587 74 l 577 97 l 570 97 l 585 61 b 585 60 585 59 585 59 b 585 58 585 58 584 57 b 583 53 581 50 578 49 z m 629 41 l 629 63 b 632 59 637 57 641 57 b 651 57 659 64 659 78 b 659 90 652 99 643 99 b 637 99 632 96 629 91 l 628 97 l 621 97 b 622 94 622 89 622 85 l 622 41 z m 629 80 b 629 82 629 83 630 83 b 631 89 636 93 641 93 b 648 93 652 86 652 77 b 652 68 648 62 640 62 b 635 62 631 66 629 71 b 629 71 629 73 629 74 z m 709 79 b 709 87 706 99 693 99 b 681 99 674 89 674 77 b 674 65 682 57 694 57 b 700 57 705 58 707 59 l 706 64 b 703 63 700 62 695 62 b 688 62 681 67 681 76 l 709 76 b 709 77 709 78 709 79 z m 681 81 b 682 86 685 93 692 93 b 700 93 702 86 702 81 z m 734 62 b 734 65 732 67 729 67 b 726 67 724 65 724 62 b 724 59 726 57 729 57 b 732 57 734 59 734 62 z m 769 93 b 773 93 776 91 778 91 l 779 96 b 778 97 773 98 769 98 b 756 98 748 89 748 77 b 748 65 756 57 768 57 b 773 57 778 58 779 59 l 778 64 b 776 64 773 62 769 62 b 761 62 755 68 755 77 b 755 86 760 93 769 93 z m 831 78 b 831 90 824 99 813 99 b 801 99 793 91 793 77 b 793 65 801 57 811 57 b 821 57 831 63 831 78 z m 800 77 b 800 85 804 93 812 93 b 820 93 824 84 824 77 b 824 68 819 62 812 62 b 805 62 800 68 800 77 z m 906 58 l 906 81 b 906 95 898 99 893 99 b 889 99 886 97 884 96 b 882 94 881 93 879 90 b 878 95 873 99 868 99 b 861 99 858 95 855 91 l 855 97 l 849 97 b 849 94 849 91 849 86 l 849 58 l 856 58 l 856 82 b 856 83 856 84 857 85 b 858 89 861 93 866 93 b 871 93 874 88 874 82 l 874 58 l 881 58 l 881 82 b 881 83 881 85 881 86 b 882 89 886 93 890 93 b 896 93 899 88 899 80 l 899 58 z"},"n":{"x_min":0,"x_max":502,"ha":502,"o":"m 325 389 b 333 409 342 428 350 445 b 356 458 338 477 322 479 b 320 479 318 479 315 479 b 288 479 271 454 231 454 b 216 454 197 458 174 467 b 159 473 131 417 155 417 b 172 417 194 423 209 423 b 222 423 229 419 224 404 b 208 357 198 325 173 255 b 140 162 114 108 84 28 b 77 10 104 1 133 1 b 160 1 189 9 195 26 b 220 92 258 218 301 329 b 301 330 301 330 301 331 b 323 364 377 424 431 423 b 461 423 468 396 456 361 b 434 298 444 325 420 255 b 393 181 379 162 356 97 b 338 46 346 3 423 3 b 487 3 524 21 574 49 b 598 62 590 92 577 92 b 575 92 572 91 570 89 b 540 60 518 50 502 50 b 475 50 467 81 471 106 b 477 160 510 265 585 405 b 599 432 580 480 482 480 b 448 480 374 439 325 389 z"},"h":{"x_min":0,"x_max":448,"ha":448,"o":"m 248 329 b 273 365 324 424 382 425 b 414 425 414 396 403 363 b 380 298 391 326 366 255 b 339 181 325 161 302 96 b 283 45 294 1 368 1 b 414 1 453 22 498 47 b 523 61 514 91 502 91 b 500 91 497 90 495 88 b 465 59 445 48 433 48 b 412 48 413 80 416 105 b 423 159 456 265 532 406 b 546 433 526 482 428 482 b 396 482 324 444 274 397 b 310 480 346 562 364 600 b 371 612 352 633 337 635 b 335 635 333 635 331 635 b 302 635 285 608 244 608 b 229 608 211 612 188 622 b 174 628 144 570 169 570 b 186 570 208 576 223 576 b 235 576 243 572 238 557 b 215 491 166 349 139 268 b 106 172 73 112 42 29 b 34 11 60 1 89 1 b 117 1 147 9 153 27 b 172 77 176 132 219 253 b 226 276 237 302 248 329 z"},"z":{"x_min":0,"x_max":348,"ha":348,"o":"m 368 381 b 285 281 170 177 59 106 b -5 66 54 -1 96 -1 b 107 -1 117 3 123 14 b 141 34 157 41 172 41 b 206 41 233 2 274 2 b 300 2 338 24 350 46 b 371 88 359 117 376 164 b 378 171 373 174 365 174 b 354 174 338 167 341 152 b 348 126 331 100 309 87 b 298 81 287 78 275 78 b 242 78 206 98 166 100 b 230 188 361 314 488 429 b 504 444 480 477 455 477 b 446 477 437 473 430 463 b 404 447 383 441 365 441 b 318 441 291 481 249 481 b 224 481 184 458 174 436 b 152 393 164 365 147 318 b 144 311 150 308 157 308 b 169 308 185 315 181 330 b 176 356 191 382 215 395 b 225 401 236 404 247 404 b 283 404 323 379 368 381 z"},"B":{"x_min":0,"x_max":672,"ha":672,"o":"m 527 309 b 606 300 636 250 607 170 b 582 101 486 24 424 24 b 388 24 364 35 378 81 b 403 157 429 233 456 309 b 466 308 477 307 489 307 b 501 307 514 308 527 309 z m 532 507 b 548 533 562 547 581 547 b 587 547 594 545 601 542 b 616 536 632 577 614 577 b 569 577 548 554 489 554 b 453 554 426 577 398 577 b 371 576 359 539 378 542 b 386 543 393 544 399 544 b 422 544 429 533 417 496 b 413 485 337 248 335 239 b 311 173 285 104 263 70 b 247 45 233 31 215 31 b 208 31 202 33 194 36 b 179 41 163 1 181 1 b 226 1 248 24 307 24 b 320 24 358 1 412 1 b 543 1 679 34 728 170 b 759 255 718 313 627 334 b 693 360 757 407 783 479 b 824 590 720 671 543 671 b 400 671 244 615 196 484 b 158 380 247 342 280 341 b 305 341 310 338 325 341 b 348 345 353 387 332 380 b 319 375 310 365 295 362 b 265 356 235 379 273 484 b 319 610 416 645 534 645 b 652 645 709 570 676 479 b 649 404 554 344 469 343 b 496 414 529 503 532 507 z"},"K":{"x_min":0,"x_max":647,"ha":647,"o":"m 451 273 b 488 273 502 230 498 147 b 494 91 476 1 573 1 b 621 1 647 14 664 23 b 693 37 716 54 726 69 b 734 80 720 93 706 93 b 701 93 695 90 692 85 b 680 66 662 39 636 39 b 625 39 614 44 606 50 b 583 69 604 128 601 201 b 598 283 559 308 511 308 b 639 380 769 487 797 588 b 808 633 785 653 753 653 b 737 653 720 649 703 640 b 743 554 578 376 440 305 b 461 360 492 443 502 476 b 517 521 539 577 599 577 b 636 578 642 607 608 602 b 553 594 557 622 515 646 b 495 658 475 664 453 664 b 425 664 395 654 355 638 b 308 617 235 591 201 496 b 168 408 242 381 272 378 b 279 377 285 377 291 377 b 310 377 325 381 337 390 b 352 402 345 422 324 417 b 311 413 308 398 287 398 b 258 398 252 445 274 505 b 293 558 315 597 367 619 b 375 622 384 624 394 624 b 418 624 445 614 467 602 b 489 591 503 582 517 577 b 463 564 415 514 397 465 b 381 419 328 262 320 240 b 297 174 270 104 249 71 b 233 45 218 31 200 31 b 193 31 187 33 179 36 b 164 42 148 1 166 1 b 212 1 234 24 292 24 b 328 24 354 1 382 1 b 409 1 421 39 402 36 b 393 34 386 34 380 34 b 358 34 352 45 364 82 b 374 114 399 188 421 253 l 425 264 b 432 269 444 273 451 273 z"},"R":{"x_min":0,"x_max":666,"ha":666,"o":"m 532 507 b 548 533 562 547 581 547 b 587 547 594 545 601 542 b 616 536 632 577 614 577 b 569 577 548 554 489 554 b 453 554 426 577 398 577 b 371 576 359 539 378 542 b 386 543 393 544 399 544 b 422 544 429 533 417 496 b 413 485 337 248 335 239 b 311 173 285 104 263 70 b 247 45 233 31 215 31 b 208 31 202 33 194 36 b 179 41 163 1 181 1 b 226 1 248 24 307 24 b 343 24 369 1 397 1 b 423 1 436 39 417 36 b 408 34 401 34 395 34 b 373 34 367 45 378 81 b 389 114 414 187 436 252 l 438 259 b 446 260 463 264 475 264 b 500 264 525 221 523 147 b 519 91 501 1 598 1 b 646 1 672 14 689 23 b 717 37 741 54 751 69 b 759 80 745 93 731 93 b 726 93 720 90 717 85 b 705 66 687 39 661 39 b 650 39 639 44 631 50 b 608 69 629 128 625 201 b 624 245 611 271 590 287 b 667 315 744 371 777 462 b 824 592 717 663 540 663 b 397 663 241 608 195 480 b 158 378 247 341 280 341 b 297 340 305 339 313 339 b 316 339 320 339 325 340 b 347 344 352 386 332 378 b 319 373 309 363 294 360 b 264 355 234 377 272 480 b 318 607 424 640 549 640 b 657 640 714 584 665 447 b 626 340 543 298 456 298 l 452 298 b 479 370 529 502 532 507 z"},"T":{"x_min":0,"x_max":419,"ha":419,"o":"m 451 532 b 451 532 430 470 399 386 b 383 342 320 136 278 70 b 262 45 248 31 230 31 b 223 31 217 33 209 36 b 194 41 178 1 196 1 b 241 1 263 24 322 24 b 358 24 384 1 412 1 b 439 1 451 39 432 36 b 423 34 416 34 410 34 b 388 34 382 45 393 81 b 413 139 475 328 490 366 b 525 456 562 545 577 574 b 578 574 578 574 579 573 b 611 563 639 559 664 559 b 717 559 789 585 824 628 b 831 639 816 651 803 651 b 797 651 792 649 788 643 b 776 625 766 609 749 601 b 744 598 738 597 732 597 b 710 597 681 614 626 641 b 598 655 552 664 502 664 b 386 664 243 612 200 494 b 168 406 241 380 270 376 b 277 375 284 375 290 375 b 309 375 324 379 336 388 b 352 400 344 420 323 415 b 310 411 307 397 286 397 b 256 397 251 443 273 503 b 295 563 342 628 411 628 b 445 628 478 615 509 602 b 481 586 459 555 451 532 z"},"P":{"x_min":0,"x_max":629,"ha":629,"o":"m 532 507 b 548 533 562 547 581 547 b 587 547 594 545 601 542 b 616 536 632 577 614 577 b 568 577 548 554 489 554 b 453 554 426 577 398 577 b 371 576 359 539 378 542 b 386 543 393 544 399 544 b 422 544 429 533 417 496 b 413 485 337 248 334 239 b 311 173 285 104 263 70 b 247 45 233 31 215 31 b 208 31 202 33 194 36 b 179 41 163 1 181 1 b 226 1 248 24 307 24 b 343 24 368 1 397 1 b 423 1 436 39 416 36 b 408 34 400 34 395 34 b 373 34 367 45 378 81 b 388 110 409 173 428 232 b 512 220 716 295 767 433 b 819 577 717 663 540 663 b 397 663 241 608 195 480 b 158 378 247 341 280 341 b 297 340 305 339 313 339 b 316 339 320 339 325 340 b 347 344 352 386 332 378 b 319 373 309 363 294 360 b 264 355 234 377 272 480 b 317 604 427 640 531 640 b 650 640 712 577 660 433 b 625 337 526 266 440 264 b 459 315 527 501 532 507 z"},"|":{"x_min":0,"x_max":202,"ha":202,"o":"m 167 49 b 129 98 266 459 336 615 b 351 649 341 663 325 663 b 307 663 280 644 275 615 b 243 428 117 180 91 110 b 75 65 82 -1 109 0 b 125 0 175 37 167 49 z"},"t":{"x_min":0,"x_max":254,"ha":254,"o":"m 406 415 b 436 415 447 472 425 466 b 402 459 383 456 368 456 b 355 456 345 459 341 465 b 347 479 353 491 358 501 b 365 513 348 535 331 535 b 291 532 273 458 209 458 b 200 458 189 459 176 463 b 160 463 137 418 161 418 b 192 417 223 426 219 401 b 211 352 218 374 193 304 b 159 210 114 126 103 95 b 84 45 96 1 169 1 b 217 1 250 19 301 47 b 326 60 317 91 305 91 b 303 91 300 90 298 88 b 268 59 248 48 236 48 b 214 48 214 79 217 104 b 219 122 250 222 278 304 b 293 345 295 351 314 401 b 326 415 340 418 356 418 b 370 418 386 415 402 415 b 403 415 405 415 406 415 z"},"M":{"x_min":0,"x_max":735,"ha":735,"o":"m 758 616 b 741 584 610 349 590 314 b 573 284 554 250 534 216 b 544 301 574 458 588 519 b 616 639 546 663 453 663 b 332 663 218 565 192 471 b 165 375 243 355 276 355 b 293 355 300 354 308 354 b 312 354 316 354 321 355 b 344 359 348 400 327 392 b 314 388 305 378 290 375 b 260 369 240 417 268 494 b 287 547 369 639 425 639 b 480 639 520 636 506 523 b 488 516 471 506 448 505 b 410 502 414 528 387 528 b 360 527 348 489 367 493 b 375 494 383 495 389 495 b 412 495 418 484 406 447 b 397 419 376 349 366 318 b 340 238 298 118 268 70 b 252 45 237 31 219 31 b 212 31 206 33 198 36 b 183 41 168 1 185 1 b 231 1 223 24 281 24 b 317 24 323 1 350 1 b 377 1 389 39 370 36 b 361 34 354 34 348 34 b 326 34 320 45 331 81 b 346 125 387 247 411 318 b 419 340 449 427 469 458 b 481 477 490 488 501 494 b 501 491 500 487 499 484 b 493 452 476 313 475 301 b 467 245 452 167 454 139 b 455 126 475 121 493 121 b 507 121 520 124 523 129 b 550 183 592 249 622 302 b 635 323 735 497 786 577 b 772 532 711 347 702 318 b 676 238 634 118 604 70 b 588 45 573 31 555 31 b 548 31 542 33 534 36 b 519 41 503 1 521 1 b 567 1 589 24 647 24 b 683 24 709 1 737 1 b 764 1 776 39 757 36 b 748 34 741 34 735 34 b 713 34 707 45 719 81 b 733 125 774 247 799 318 b 806 340 884 563 903 594 b 919 620 934 634 952 634 b 959 634 965 632 973 629 b 988 623 1004 664 986 664 b 941 664 919 641 860 641 b 823 641 798 664 770 664 b 743 663 732 626 751 629 b 757 630 764 631 769 631 b 765 627 761 622 758 616 z"},"g":{"x_min":0,"x_max":430,"ha":430,"o":"m 244 35 b 186 35 201 125 238 240 b 270 341 320 451 390 451 b 430 451 433 413 427 374 b 412 348 396 260 377 207 b 367 177 352 132 335 84 b 307 50 279 37 244 35 z m 465 179 b 473 204 519 330 532 363 b 539 381 515 390 487 391 b 488 442 465 480 401 480 b 281 480 185 431 118 240 b 72 107 75 1 226 1 b 256 1 290 18 319 40 b 291 -36 261 -113 247 -142 b 214 -213 181 -280 123 -280 b 115 -280 107 -279 98 -276 b 82 -271 55 -317 83 -317 b 134 -317 297 -276 358 -142 b 373 -111 453 142 465 179 z"},"j":{"x_min":0,"x_max":208,"ha":208,"o":"m 312 586 b 302 559 307 537 329 537 b 351 537 385 560 391 586 b 397 614 401 635 379 635 b 357 635 322 613 312 586 z m 15 -142 b -18 -213 -51 -280 -109 -280 b -117 -280 -125 -279 -134 -276 b -150 -271 -176 -317 -149 -317 b -97 -317 65 -276 126 -142 b 141 -110 166 -28 212 108 b 236 176 336 427 346 445 b 352 458 334 477 317 479 b 315 479 313 479 311 479 b 283 479 267 454 227 454 b 212 454 193 458 170 467 b 155 473 126 417 151 417 b 168 417 189 422 203 422 b 216 422 223 418 220 404 b 211 371 146 198 113 108 b 63 -29 43 -84 15 -142 z"},"i":{"x_min":0,"x_max":260,"ha":260,"o":"m 313 586 b 303 559 308 537 330 537 b 352 537 387 560 392 586 b 399 614 402 635 380 635 b 358 635 323 613 313 586 z m 221 404 b 200 322 159 234 109 97 b 91 46 99 3 176 3 b 240 3 277 21 327 49 b 351 62 343 92 330 92 b 328 92 325 91 323 89 b 293 60 272 50 256 50 b 229 50 221 81 224 106 b 228 154 250 211 276 285 b 297 346 338 427 347 445 b 353 458 335 477 319 479 b 317 479 315 479 312 479 b 285 479 268 454 228 454 b 213 454 194 458 171 467 b 156 473 128 417 153 417 b 170 417 190 422 204 422 b 217 422 224 418 221 404 z"},"y":{"x_min":0,"x_max":452,"ha":452,"o":"m 261 -142 b 227 -213 195 -280 136 -280 b 128 -280 120 -279 111 -276 b 95 -271 69 -317 96 -317 b 148 -317 311 -276 372 -142 b 387 -110 411 -28 458 108 b 481 176 582 427 591 445 b 598 458 580 479 563 479 b 530 481 486 463 475 430 b 465 404 422 284 387 188 b 352 121 304 60 250 60 b 248 60 247 60 245 60 b 216 62 208 87 219 121 b 239 182 316 388 344 445 b 350 458 332 477 316 479 b 314 479 312 479 309 479 b 282 479 265 454 225 454 b 210 454 191 458 168 467 b 153 473 125 417 149 417 b 166 417 188 423 203 423 b 216 423 223 419 218 404 b 202 357 134 170 96 85 b 84 58 108 1 192 1 b 260 1 312 38 353 93 b 308 -33 288 -86 261 -142 z"},"@":{"x_min":0,"x_max":661,"ha":661,"o":"m 470 254 b 452 227 434 225 410 225 b 383 225 386 276 412 355 b 433 424 474 498 505 498 b 538 498 537 473 532 446 b 525 422 522 399 507 349 b 496 322 471 255 470 254 z m 570 607 b 562 607 555 608 548 608 b 379 608 231 521 179 355 b 141 232 155 104 387 104 b 394 104 401 104 408 104 b 422 104 436 104 445 107 b 468 115 472 139 457 139 b 448 139 424 133 407 132 b 299 125 223 191 289 361 b 337 484 385 582 535 582 b 645 582 701 521 650 371 b 635 329 598 229 571 228 b 550 228 570 305 578 330 b 584 347 615 432 624 455 b 629 470 587 476 564 472 b 560 504 546 518 514 518 b 434 518 365 483 321 355 b 289 265 292 193 394 193 b 418 193 445 209 467 228 b 468 208 482 195 518 195 b 631 195 708 266 746 371 b 803 527 737 599 570 607 z"},".":{"x_min":0,"x_max":964,"ha":964,"o":"m 29 642 l 29 599 l 39 599 l 39 610 l 48 610 b 59 610 66 616 66 626 b 66 636 59 642 48 642 z m 56 626 b 56 621 53 619 47 619 l 39 619 l 39 634 l 47 634 b 53 634 56 631 56 626 z m 119 634 l 119 642 l 87 642 l 87 599 l 119 599 l 119 607 l 97 607 l 97 616 l 116 616 l 116 624 l 97 624 l 97 634 z m 178 626 b 178 636 171 642 160 642 l 142 642 l 142 599 l 151 599 l 151 611 l 160 611 l 168 599 l 178 599 l 169 613 b 175 615 178 619 178 626 z m 159 619 l 151 619 l 151 634 l 159 634 b 165 634 168 631 168 626 b 168 621 165 619 159 619 z m 214 606 b 209 606 203 608 200 610 l 197 603 b 200 600 207 598 213 598 b 226 598 232 604 232 611 b 232 627 207 622 207 630 b 207 632 209 634 215 634 b 219 634 223 633 227 631 l 230 639 b 226 641 221 642 215 642 b 203 642 198 636 198 629 b 198 613 222 619 222 610 b 222 608 219 606 214 606 z m 250 620 b 250 607 260 598 273 598 b 286 598 296 607 296 620 b 296 633 286 642 273 642 b 260 642 250 633 250 620 z m 286 620 b 286 612 280 607 273 607 b 265 607 260 612 260 620 b 260 628 265 634 273 634 b 280 634 286 628 286 620 z m 326 642 l 318 642 l 318 599 l 327 599 l 327 625 l 348 599 l 356 599 l 356 642 l 347 642 l 347 616 z m 375 599 l 385 599 l 388 608 l 408 608 l 412 599 l 422 599 l 403 642 l 394 642 z m 405 616 l 392 616 l 398 632 z m 441 642 l 441 599 l 471 599 l 471 607 l 450 607 l 450 642 z m 522 642 l 522 617 b 522 605 529 598 541 598 b 553 598 560 605 560 617 l 560 642 l 550 642 l 550 618 b 550 610 547 607 541 607 b 535 607 532 610 532 618 l 532 642 z m 598 606 b 593 606 588 608 584 610 l 581 603 b 585 600 591 598 598 598 b 610 598 615 604 615 611 b 615 627 591 622 591 630 b 591 632 594 634 599 634 b 603 634 607 633 611 631 l 614 639 b 610 641 605 642 599 642 b 587 642 582 636 582 629 b 582 613 606 619 606 610 b 606 608 604 606 598 606 z m 669 634 l 669 642 l 637 642 l 637 599 l 669 599 l 669 607 l 646 607 l 646 616 l 666 616 l 666 624 l 646 624 l 646 634 z m 720 620 b 720 607 730 598 743 598 b 756 598 766 607 766 620 b 766 633 756 642 743 642 b 730 642 720 633 720 620 z m 756 620 b 756 612 750 607 743 607 b 735 607 730 612 730 620 b 730 628 735 634 743 634 b 750 634 756 628 756 620 z m 796 642 l 788 642 l 788 599 l 797 599 l 797 625 l 818 599 l 826 599 l 826 642 l 817 642 l 817 616 z m 851 642 l 851 599 l 881 599 l 881 607 l 860 607 l 860 642 z m 917 599 l 917 614 l 933 642 l 923 642 l 913 622 l 901 642 l 891 642 l 907 614 l 907 599 z m 37 138 l 27 138 l 28 147 l 40 147 l 41 149 l 27 149 l 23 127 l 24 127 l 26 137 l 37 137 z m 43 133 b 43 130 45 127 50 127 b 55 127 59 131 59 137 b 59 141 56 143 52 143 b 47 143 43 139 43 133 z m 57 137 b 57 132 54 129 50 129 b 47 129 44 130 44 133 b 44 138 47 142 51 142 b 55 142 57 140 57 137 z m 67 143 l 64 127 l 65 127 l 67 135 b 68 140 70 141 74 141 b 74 141 74 141 74 141 l 74 143 b 71 143 69 142 68 140 l 68 143 z m 101 147 b 104 147 106 146 107 144 l 109 146 b 107 147 104 149 101 149 b 94 149 89 143 89 136 b 89 130 92 127 98 127 b 101 127 104 128 106 130 l 105 131 b 104 129 101 129 98 129 b 93 129 91 132 91 136 b 91 142 95 147 101 147 z m 127 137 b 127 141 124 143 120 143 b 115 143 111 139 111 133 b 111 130 114 127 118 127 b 123 127 127 131 127 137 z m 118 129 b 115 129 113 130 113 133 b 113 138 116 142 120 142 b 123 142 125 140 125 137 b 125 132 122 129 118 129 z m 135 143 l 132 127 l 134 127 l 135 136 b 136 140 139 142 142 142 b 145 142 146 140 146 138 b 146 137 146 137 146 137 l 144 127 l 145 127 l 147 136 b 148 140 150 142 154 142 b 156 142 158 140 158 138 b 158 137 158 137 158 137 l 156 127 l 157 127 l 159 137 b 159 137 159 138 159 138 b 159 141 157 143 154 143 b 151 143 149 142 147 140 b 147 142 145 143 142 143 b 140 143 138 142 136 140 l 137 143 z m 188 143 b 185 143 183 142 182 140 b 181 142 179 143 176 143 b 174 143 171 142 170 140 l 171 143 l 169 143 l 166 127 l 168 127 l 169 136 b 170 140 172 142 175 142 b 178 142 180 140 180 138 b 180 137 180 137 180 137 l 178 127 l 180 127 l 181 136 b 182 140 185 142 188 142 b 191 142 192 140 192 138 b 192 137 192 137 192 137 l 190 127 l 191 127 l 193 137 b 193 137 193 138 193 138 b 193 141 191 143 188 143 z m 215 135 b 215 135 215 136 215 137 b 215 141 212 143 208 143 b 203 143 200 139 200 133 b 200 129 203 127 207 127 b 209 127 212 128 213 129 l 212 130 b 211 129 209 129 207 129 b 203 129 201 130 201 133 b 201 134 201 134 201 135 z m 208 142 b 211 142 213 140 213 137 b 213 137 213 136 213 136 l 201 136 b 202 140 205 142 208 142 z m 223 143 l 220 127 l 222 127 l 223 135 b 224 140 226 141 230 141 b 230 141 230 141 230 141 l 230 143 b 227 143 226 142 224 140 l 225 143 z m 242 142 b 245 142 246 141 247 140 l 248 140 b 247 142 245 143 242 143 b 238 143 234 139 234 133 b 234 130 236 127 241 127 b 243 127 245 128 247 130 l 246 130 b 245 129 243 129 241 129 b 238 129 235 130 235 133 b 235 138 238 142 242 142 z m 259 148 b 259 149 259 149 258 149 b 257 149 256 149 256 148 b 256 147 257 147 257 147 b 259 147 259 147 259 148 z m 253 127 l 254 127 l 257 143 l 256 143 z m 277 127 l 280 143 l 279 143 l 278 139 b 277 141 275 143 272 143 b 266 143 263 139 263 133 b 263 129 266 127 270 127 b 273 127 275 128 276 130 l 276 127 z m 270 129 b 266 129 265 130 265 133 b 265 138 268 142 272 142 b 275 142 277 140 277 137 b 277 132 274 129 270 129 z m 287 127 l 292 150 l 290 150 l 286 127 z m 295 123 l 297 127 b 297 127 297 128 297 129 b 297 129 297 130 296 130 b 295 130 295 129 295 128 b 295 128 295 127 295 127 l 294 123 z m 324 134 b 330 134 334 137 334 143 b 334 146 331 149 327 149 l 320 149 l 315 127 l 317 127 l 318 134 z m 321 147 l 327 147 b 330 147 332 146 332 143 b 332 138 329 135 324 135 l 318 135 z m 340 127 l 344 150 l 343 150 l 338 127 z m 363 135 b 364 135 364 136 364 137 b 364 141 361 143 357 143 b 352 143 348 139 348 133 b 348 129 351 127 356 127 b 358 127 360 128 362 129 l 361 130 b 360 129 358 129 356 129 b 352 129 350 130 350 133 b 350 134 350 134 350 135 z m 357 142 b 360 142 362 140 362 137 b 362 137 362 136 362 136 l 350 136 b 351 140 353 142 357 142 z m 384 143 l 383 139 b 383 141 380 143 377 143 b 373 143 369 139 369 133 b 369 129 371 127 376 127 b 378 127 380 128 382 130 l 381 127 l 383 127 l 386 143 z m 376 129 b 372 129 370 130 370 133 b 370 138 373 142 377 142 b 381 142 383 140 383 137 b 383 132 380 129 376 129 z m 395 129 b 394 129 392 129 391 130 l 389 129 b 391 128 393 127 395 127 b 400 127 402 129 402 132 b 402 137 393 134 393 138 b 393 140 395 142 398 142 b 400 142 402 141 403 140 l 403 141 b 402 143 400 143 398 143 b 394 143 392 141 392 138 b 392 133 401 136 401 132 b 401 130 399 129 395 129 z m 423 135 b 423 135 423 136 423 137 b 423 141 420 143 416 143 b 411 143 408 139 408 133 b 408 129 411 127 415 127 b 417 127 420 128 421 129 l 420 130 b 419 129 417 129 415 129 b 411 129 409 130 409 133 b 409 134 409 134 409 135 z m 416 142 b 419 142 421 140 421 137 b 421 137 421 136 421 136 l 409 136 b 411 140 413 142 416 142 z m 446 127 l 459 149 l 458 149 l 446 129 l 441 149 l 439 149 l 445 127 z m 467 148 b 467 149 466 149 465 149 b 465 149 464 149 464 148 b 464 147 465 147 465 147 b 466 147 467 147 467 148 z m 461 127 l 462 127 l 465 143 l 464 143 z m 478 142 b 479 142 481 141 482 140 l 483 141 b 482 143 480 143 478 143 b 474 143 471 141 471 138 b 471 133 480 136 480 132 b 480 130 479 129 476 129 b 473 129 471 129 470 130 l 469 129 b 470 128 473 127 475 127 b 479 127 482 129 482 132 b 482 137 473 134 473 138 b 473 140 475 142 478 142 z m 488 127 l 489 127 l 493 143 l 491 143 z m 494 148 b 494 149 493 149 493 149 b 492 149 491 149 491 148 b 491 147 492 147 493 147 b 493 147 494 147 494 148 z m 502 146 l 502 143 l 499 143 l 499 141 l 501 141 l 499 132 b 499 131 499 131 499 130 b 499 128 500 127 503 127 b 504 127 505 127 506 128 l 505 129 b 505 129 504 128 503 128 b 502 128 500 129 500 130 b 500 131 500 131 501 132 l 503 141 l 508 141 l 508 143 l 503 143 l 503 146 z m 942 573 l 29 573 l 29 570 l 942 570 z m 942 671 l 29 671 l 29 668 l 942 668 z m 942 681 l 29 681 l 29 679 l 942 679 z m 30 25 l 943 25 l 943 27 l 30 27 z m 30 36 l 943 36 l 943 38 l 30 38 z m 517 135 l 517 133 l 943 133 l 943 135 z m 603 212 b 608 212 612 226 612 246 b 612 259 611 263 606 264 b 602 266 600 263 601 244 b 601 225 600 221 594 220 b 588 219 588 220 590 231 b 591 240 591 241 585 241 b 579 241 577 239 577 231 b 577 225 580 218 584 216 b 587 212 588 208 587 201 b 585 192 586 191 594 191 b 599 191 603 192 605 194 b 606 196 605 198 603 198 b 601 198 599 201 599 205 b 599 209 601 212 603 212 z m 569 255 b 573 256 576 256 577 253 b 579 245 585 249 585 258 b 585 265 584 267 579 265 b 576 264 566 264 557 264 b 543 264 541 262 541 256 b 541 250 543 249 549 251 b 556 253 556 252 555 222 b 554 191 554 191 562 191 b 570 191 573 196 567 200 b 565 201 563 213 563 228 b 563 248 564 253 569 255 z m 643 218 b 654 223 658 230 658 243 b 658 256 648 264 633 264 l 620 264 l 621 227 b 621 194 623 191 629 191 b 632 191 637 192 638 194 b 639 196 638 198 636 198 b 628 198 633 212 643 218 z m 631 235 b 628 252 628 256 635 256 b 649 256 656 238 646 228 b 639 220 634 223 631 235 z m 722 283 b 737 278 741 278 759 281 b 784 286 800 297 812 316 b 841 361 817 404 766 401 b 741 400 737 395 755 390 b 773 385 780 375 780 351 b 779 335 777 326 770 314 b 754 287 736 281 725 298 b 720 306 719 313 721 344 l 724 380 l 714 384 b 699 390 690 388 688 380 b 687 375 684 373 680 375 b 677 376 667 378 659 379 b 646 381 643 379 632 370 b 621 360 620 357 618 335 b 616 300 609 300 604 335 b 600 366 592 378 573 382 b 565 384 561 382 552 373 l 541 363 l 541 374 b 540 381 540 393 541 401 b 542 415 543 417 552 417 b 557 417 570 421 581 426 b 605 438 615 455 613 475 b 611 493 602 503 585 508 b 551 518 513 487 506 442 b 504 429 503 428 495 428 l 485 428 l 488 454 b 490 480 490 481 482 484 b 461 489 459 487 454 462 b 450 440 449 438 441 440 b 437 441 424 443 411 444 b 387 447 353 439 344 429 b 336 420 355 419 375 428 b 389 434 398 435 418 434 b 432 433 444 431 444 431 b 445 430 445 403 444 371 b 441 305 434 292 433 348 l 432 384 l 418 387 b 406 390 395 389 395 384 b 395 382 388 382 379 383 b 367 384 360 383 353 378 b 334 366 327 330 341 308 b 352 289 348 249 336 249 b 327 249 326 264 327 356 b 328 436 327 445 321 458 b 302 496 265 489 251 444 b 248 434 246 423 246 420 b 246 405 242 402 233 411 b 214 430 175 432 149 414 b 127 400 117 383 115 356 b 114 334 115 332 127 320 b 136 311 144 307 156 305 b 184 301 210 311 184 316 b 166 319 159 330 159 353 b 159 386 179 420 199 420 b 210 420 214 404 216 344 b 218 311 220 288 222 285 b 225 283 233 280 241 279 l 256 277 l 258 340 b 259 375 262 412 264 422 b 269 444 283 473 288 471 b 290 470 291 456 291 438 b 289 298 289 287 295 268 b 298 257 304 246 310 242 b 315 238 325 234 332 234 b 350 234 359 248 359 273 l 359 293 l 371 293 b 381 293 386 295 391 303 l 398 312 l 408 304 b 415 297 420 296 432 297 b 444 299 446 298 448 291 b 451 278 467 261 480 256 b 502 249 517 260 523 287 b 524 294 527 299 532 299 b 546 302 549 308 549 329 b 549 352 554 369 562 369 b 565 369 567 363 567 343 b 567 320 568 317 577 307 b 588 296 602 293 614 300 b 619 302 622 302 627 296 b 637 285 659 281 672 287 b 678 290 684 296 685 300 b 688 309 692 309 699 299 b 702 294 712 287 722 283 z m 551 464 b 562 499 584 513 591 490 b 599 469 587 447 562 434 b 539 422 538 425 551 464 z m 386 318 b 379 303 374 305 371 323 b 367 352 377 378 388 371 b 394 367 392 330 386 318 z m 496 275 b 488 288 483 326 483 376 b 483 420 484 425 496 417 b 499 416 501 397 502 376 b 503 355 506 323 507 305 b 509 270 506 260 496 275 z m 672 303 b 666 292 658 295 656 309 b 653 326 656 346 664 357 b 670 367 670 367 675 360 b 681 352 679 316 672 303 z m 697 252 b 698 251 700 255 700 259 b 702 267 700 268 693 265 b 689 264 680 264 674 264 l 663 264 l 663 227 b 663 192 664 190 670 192 b 675 193 683 194 690 194 b 699 194 700 196 699 202 b 697 207 696 208 693 205 b 691 203 685 202 681 202 b 673 202 672 203 672 215 b 672 228 673 228 684 226 b 693 224 694 225 694 232 b 694 241 689 244 685 238 b 681 231 672 234 672 244 b 672 256 681 259 697 252 z m 84 58 l 91 76 b 92 81 93 85 94 89 b 95 85 97 81 98 77 l 104 58 l 110 58 l 123 97 l 116 97 l 110 77 b 109 73 108 68 107 64 b 106 68 105 73 104 77 l 98 97 l 92 97 l 85 77 b 84 73 82 68 81 64 b 80 68 79 73 78 77 l 73 97 l 65 97 l 77 58 z m 154 58 l 160 76 b 162 81 163 85 164 89 b 165 85 166 81 168 77 l 174 58 l 180 58 l 193 97 l 186 97 l 180 77 b 179 73 178 68 177 64 b 176 68 175 73 174 77 l 167 97 l 161 97 l 155 77 b 153 73 152 68 151 64 b 150 68 149 73 148 77 l 143 97 l 135 97 l 147 58 z m 224 58 l 230 76 b 232 81 233 85 234 89 b 235 85 236 81 238 77 l 244 58 l 250 58 l 263 97 l 256 97 l 250 77 b 249 73 248 68 247 64 b 246 68 245 73 243 77 l 237 97 l 231 97 l 224 77 b 223 73 222 68 221 64 b 220 68 219 73 218 77 l 212 97 l 205 97 l 217 58 z m 279 57 b 282 57 283 59 283 62 b 283 65 281 67 279 67 b 276 67 274 65 274 62 b 274 59 276 57 279 57 z m 335 58 l 335 81 b 335 95 326 99 320 99 b 314 99 309 94 307 91 l 306 97 l 300 97 b 300 94 300 91 300 86 l 300 58 l 307 58 l 307 82 b 307 83 308 84 308 85 b 309 89 313 93 318 93 b 325 93 327 87 327 80 l 327 58 z m 351 68 b 351 62 355 57 364 57 b 369 57 373 59 376 62 l 376 58 l 383 58 b 382 61 382 64 382 67 l 382 82 b 382 90 379 99 367 99 b 362 99 358 97 354 95 l 356 90 b 359 92 362 93 366 93 b 374 93 375 87 375 83 b 360 83 351 77 351 68 z m 376 78 l 376 71 b 376 70 375 70 375 68 b 374 65 370 62 365 62 b 362 62 359 64 359 69 b 359 77 367 78 376 78 z m 421 92 l 421 97 l 411 97 l 411 109 l 403 107 l 403 97 l 397 97 l 397 92 l 403 92 l 403 70 b 403 65 405 62 406 60 b 408 58 411 57 414 57 b 417 57 419 57 421 58 l 420 63 b 420 63 418 62 416 62 b 412 62 411 65 411 70 l 411 92 z m 471 58 l 471 81 b 471 95 463 99 458 99 b 455 99 452 97 450 96 b 448 95 446 93 445 91 l 445 116 l 437 116 l 437 58 l 445 58 l 445 82 b 445 83 445 84 445 85 b 447 89 450 93 455 93 b 462 93 464 87 464 80 l 464 58 z m 504 99 b 499 99 494 97 491 95 l 493 90 b 496 92 499 93 503 93 b 511 93 512 87 512 83 b 497 83 488 77 488 68 b 488 62 493 57 500 57 b 506 57 510 59 512 62 l 513 62 l 514 58 l 520 58 b 520 61 519 64 519 67 l 519 82 b 519 90 516 99 504 99 z m 512 71 b 512 70 512 70 512 68 b 511 65 508 62 502 62 b 499 62 496 64 496 69 b 496 77 505 78 512 78 z m 541 107 l 541 97 l 534 97 l 534 92 l 541 92 l 541 70 b 541 65 541 62 543 60 b 545 58 548 57 551 57 b 554 57 556 57 558 58 l 557 63 b 556 63 555 62 553 62 b 549 62 547 65 547 70 l 547 92 l 558 92 l 558 97 l 547 97 l 547 109 z m 578 49 b 576 47 574 46 572 45 l 574 39 b 576 39 579 41 583 44 b 588 49 591 55 596 69 l 607 97 l 600 97 l 591 74 b 591 71 590 68 589 66 b 588 68 587 71 587 74 l 577 97 l 570 97 l 585 61 b 585 60 585 59 585 59 b 585 58 585 58 584 57 b 583 53 581 50 578 49 z m 629 41 l 629 63 b 632 59 637 57 641 57 b 651 57 659 64 659 78 b 659 90 652 99 643 99 b 637 99 632 96 629 91 l 628 97 l 621 97 b 622 94 622 89 622 85 l 622 41 z m 629 80 b 629 82 629 83 630 83 b 631 89 636 93 641 93 b 648 93 652 86 652 77 b 652 68 648 62 640 62 b 635 62 631 66 629 71 b 629 71 629 73 629 74 z m 709 79 b 709 87 706 99 693 99 b 681 99 674 89 674 77 b 674 65 682 57 694 57 b 700 57 705 58 707 59 l 706 64 b 703 63 700 62 695 62 b 688 62 681 67 681 76 l 709 76 b 709 77 709 78 709 79 z m 681 81 b 682 86 685 93 692 93 b 700 93 702 86 702 81 z m 734 62 b 734 65 732 67 729 67 b 726 67 724 65 724 62 b 724 59 726 57 729 57 b 732 57 734 59 734 62 z m 769 93 b 773 93 776 91 778 91 l 779 96 b 778 97 773 98 769 98 b 756 98 748 89 748 77 b 748 65 756 57 768 57 b 773 57 778 58 779 59 l 778 64 b 776 64 773 62 769 62 b 761 62 755 68 755 77 b 755 86 760 93 769 93 z m 831 78 b 831 90 824 99 813 99 b 801 99 793 91 793 77 b 793 65 801 57 811 57 b 821 57 831 63 831 78 z m 800 77 b 800 85 804 93 812 93 b 820 93 824 84 824 77 b 824 68 819 62 812 62 b 805 62 800 68 800 77 z m 906 58 l 906 81 b 906 95 898 99 893 99 b 889 99 886 97 884 96 b 882 94 881 93 879 90 b 878 95 873 99 868 99 b 861 99 858 95 855 91 l 855 97 l 849 97 b 849 94 849 91 849 86 l 849 58 l 856 58 l 856 82 b 856 83 856 84 857 85 b 858 89 861 93 866 93 b 871 93 874 88 874 82 l 874 58 l 881 58 l 881 82 b 881 83 881 85 881 86 b 882 89 886 93 890 93 b 896 93 899 88 899 80 l 899 58 z"},"p":{"x_min":0,"x_max":470,"ha":470,"o":"m 312 388 b 346 434 377 449 416 448 b 474 446 451 354 406 238 b 365 136 309 28 240 33 b 183 37 205 98 218 149 b 236 196 281 313 312 388 z m 337 445 b 344 458 325 477 309 479 b 307 479 305 479 302 479 b 275 479 258 454 218 454 b 203 454 184 458 161 467 b 146 473 118 417 143 417 b 160 417 182 423 196 423 b 209 423 216 419 211 404 b 195 357 140 169 129 144 b 74 -1 -17 -223 -43 -277 b -49 -291 -34 -315 -17 -315 b 72 -312 80 -284 90 -225 b 98 -181 136 -75 172 25 b 193 4 223 3 251 3 b 356 3 449 54 522 229 b 577 361 583 470 436 481 b 405 484 368 466 335 441 b 336 443 337 444 337 445 z"},"X":{"x_min":0,"x_max":621,"ha":621,"o":"m 138 84 b 116 46 120 2 161 2 b 166 2 172 2 179 4 b 264 25 361 125 437 232 b 436 115 459 0 561 1 b 601 1 675 37 699 69 b 707 80 692 93 678 93 b 673 93 667 90 664 85 b 652 65 635 39 609 39 b 597 39 586 44 579 50 b 550 74 557 255 566 389 b 633 485 761 586 843 586 b 854 586 864 584 873 580 b 897 618 893 663 847 663 b 842 663 836 662 829 661 b 738 642 639 545 569 445 b 571 479 573 506 574 521 b 580 639 525 661 432 663 b 329 664 240 604 200 494 b 164 397 242 355 275 355 b 300 355 305 352 320 355 b 343 359 347 400 326 392 b 313 388 304 378 289 375 b 259 369 230 392 267 494 b 300 586 348 639 404 639 b 465 639 463 596 459 464 b 458 442 444 367 438 284 b 363 182 238 79 164 79 b 154 79 146 81 138 84 z"},"*":{"x_min":0,"x_max":224,"ha":224,"o":"m 398 618 b 395 630 383 635 373 630 b 366 626 353 616 342 607 b 351 625 365 642 368 650 b 370 656 367 661 362 661 b 348 662 333 653 329 643 b 326 636 326 620 324 607 b 319 616 314 626 309 630 b 303 635 287 630 276 618 b 272 614 271 607 275 604 b 280 599 299 595 313 588 b 299 580 283 573 275 568 b 265 561 262 546 268 537 b 271 534 278 533 285 538 b 292 543 306 561 321 575 b 326 561 328 543 332 538 b 334 533 341 534 346 537 b 360 546 367 561 363 568 b 360 573 347 580 339 588 b 359 595 380 599 389 604 b 395 607 398 614 398 618 z"},"Y":{"x_min":0,"x_max":672,"ha":672,"o":"m 638 238 b 630 217 602 137 595 118 b 565 35 502 -19 426 -19 b 366 -19 316 -3 327 27 b 334 48 348 45 356 57 b 365 71 359 83 349 83 b 324 83 308 37 304 18 b 295 -13 321 -59 418 -59 b 517 -59 651 22 683 118 b 703 176 824 549 838 575 b 859 611 871 625 893 625 b 904 625 924 662 907 662 b 876 662 834 636 798 633 b 761 631 751 663 723 663 b 697 662 682 615 700 619 b 708 621 716 622 722 622 b 744 622 750 608 734 561 b 722 526 701 432 667 338 b 650 290 577 192 512 192 b 439 192 449 285 471 347 b 480 371 508 450 516 474 b 530 518 552 574 612 575 b 649 575 654 605 621 599 b 548 588 570 651 508 662 b 496 665 482 666 468 666 b 366 666 236 591 200 494 b 168 406 241 380 270 376 b 277 375 284 375 290 375 b 309 375 324 379 336 388 b 352 400 344 420 323 415 b 311 411 308 397 287 397 b 257 397 251 443 273 503 b 292 556 312 603 360 625 b 380 634 397 638 413 638 b 433 638 450 631 467 619 b 494 599 506 582 529 575 b 476 561 428 511 410 462 b 410 462 383 388 369 347 b 318 204 372 161 474 161 b 537 161 598 190 638 238 z"},"c":{"x_min":0,"x_max":379,"ha":379,"o":"m 118 240 b 73 107 90 1 235 1 b 311 1 344 24 389 49 b 413 62 405 92 392 92 b 390 92 387 91 385 89 b 354 59 322 32 288 32 b 279 32 269 34 260 38 b 199 64 187 99 238 240 b 287 373 346 451 410 451 b 447 451 468 403 469 375 b 462 348 454 341 440 328 b 432 320 447 313 462 313 b 475 313 487 317 490 328 b 498 355 508 382 529 415 b 541 435 482 480 423 480 b 288 480 185 431 118 240 z"},"!":{"x_min":0,"x_max":223,"ha":223,"o":"m 138 98 b 116 98 103 77 90 49 b 76 22 94 0 116 0 b 138 0 159 22 169 49 b 179 76 160 98 138 98 z m 278 626 b 269 596 164 274 131 167 b 126 151 141 142 156 142 b 167 142 179 147 182 157 b 248 371 348 498 380 571 b 396 607 407 661 350 661 b 333 661 283 644 278 626 z"},"/":{"x_min":0,"x_max":303,"ha":303,"o":"m 410 615 b 330 428 139 180 94 110 b 66 65 56 -1 83 0 b 100 0 144 31 154 49 b 174 85 360 459 472 615 b 524 688 433 669 410 615 z"},"[":{"x_min":0,"x_max":257,"ha":257,"o":"m 165 42 b 160 42 155 43 151 46 b 103 83 265 459 336 615 b 337 617 337 619 338 621 b 351 625 362 627 372 627 b 395 627 411 617 421 610 b 426 610 435 625 440 640 b 448 667 437 677 425 671 b 412 665 403 663 395 663 b 384 663 374 667 353 667 b 313 667 285 660 275 615 b 226 426 117 180 91 110 b 82 86 41 0 99 0 b 117 0 141 6 160 6 b 168 6 176 4 181 1 b 190 -4 207 6 219 32 b 225 48 227 62 222 62 b 211 57 185 42 165 42 z"},"6":{"x_min":0,"x_max":964,"ha":964,"o":"m 29 642 l 29 599 l 39 599 l 39 610 l 48 610 b 59 610 66 616 66 626 b 66 636 59 642 48 642 z m 56 626 b 56 621 53 619 47 619 l 39 619 l 39 634 l 47 634 b 53 634 56 631 56 626 z m 119 634 l 119 642 l 87 642 l 87 599 l 119 599 l 119 607 l 97 607 l 97 616 l 116 616 l 116 624 l 97 624 l 97 634 z m 178 626 b 178 636 171 642 160 642 l 142 642 l 142 599 l 151 599 l 151 611 l 160 611 l 168 599 l 178 599 l 169 613 b 175 615 178 619 178 626 z m 159 619 l 151 619 l 151 634 l 159 634 b 165 634 168 631 168 626 b 168 621 165 619 159 619 z m 214 606 b 209 606 203 608 200 610 l 197 603 b 200 600 207 598 213 598 b 226 598 232 604 232 611 b 232 627 207 622 207 630 b 207 632 209 634 215 634 b 219 634 223 633 227 631 l 230 639 b 226 641 221 642 215 642 b 203 642 198 636 198 629 b 198 613 222 619 222 610 b 222 608 219 606 214 606 z m 250 620 b 250 607 260 598 273 598 b 286 598 296 607 296 620 b 296 633 286 642 273 642 b 260 642 250 633 250 620 z m 286 620 b 286 612 280 607 273 607 b 265 607 260 612 260 620 b 260 628 265 634 273 634 b 280 634 286 628 286 620 z m 326 642 l 318 642 l 318 599 l 327 599 l 327 625 l 348 599 l 356 599 l 356 642 l 347 642 l 347 616 z m 375 599 l 385 599 l 388 608 l 408 608 l 412 599 l 422 599 l 403 642 l 394 642 z m 405 616 l 392 616 l 398 632 z m 441 642 l 441 599 l 471 599 l 471 607 l 450 607 l 450 642 z m 522 642 l 522 617 b 522 605 529 598 541 598 b 553 598 560 605 560 617 l 560 642 l 550 642 l 550 618 b 550 610 547 607 541 607 b 535 607 532 610 532 618 l 532 642 z m 598 606 b 593 606 588 608 584 610 l 581 603 b 585 600 591 598 598 598 b 610 598 615 604 615 611 b 615 627 591 622 591 630 b 591 632 594 634 599 634 b 603 634 607 633 611 631 l 614 639 b 610 641 605 642 599 642 b 587 642 582 636 582 629 b 582 613 606 619 606 610 b 606 608 604 606 598 606 z m 669 634 l 669 642 l 637 642 l 637 599 l 669 599 l 669 607 l 646 607 l 646 616 l 666 616 l 666 624 l 646 624 l 646 634 z m 720 620 b 720 607 730 598 743 598 b 756 598 766 607 766 620 b 766 633 756 642 743 642 b 730 642 720 633 720 620 z m 756 620 b 756 612 750 607 743 607 b 735 607 730 612 730 620 b 730 628 735 634 743 634 b 750 634 756 628 756 620 z m 796 642 l 788 642 l 788 599 l 797 599 l 797 625 l 818 599 l 826 599 l 826 642 l 817 642 l 817 616 z m 851 642 l 851 599 l 881 599 l 881 607 l 860 607 l 860 642 z m 917 599 l 917 614 l 933 642 l 923 642 l 913 622 l 901 642 l 891 642 l 907 614 l 907 599 z m 37 138 l 27 138 l 28 147 l 40 147 l 41 149 l 27 149 l 23 127 l 24 127 l 26 137 l 37 137 z m 43 133 b 43 130 45 127 50 127 b 55 127 59 131 59 137 b 59 141 56 143 52 143 b 47 143 43 139 43 133 z m 57 137 b 57 132 54 129 50 129 b 47 129 44 130 44 133 b 44 138 47 142 51 142 b 55 142 57 140 57 137 z m 67 143 l 64 127 l 65 127 l 67 135 b 68 140 70 141 74 141 b 74 141 74 141 74 141 l 74 143 b 71 143 69 142 68 140 l 68 143 z m 101 147 b 104 147 106 146 107 144 l 109 146 b 107 147 104 149 101 149 b 94 149 89 143 89 136 b 89 130 92 127 98 127 b 101 127 104 128 106 130 l 105 131 b 104 129 101 129 98 129 b 93 129 91 132 91 136 b 91 142 95 147 101 147 z m 127 137 b 127 141 124 143 120 143 b 115 143 111 139 111 133 b 111 130 114 127 118 127 b 123 127 127 131 127 137 z m 118 129 b 115 129 113 130 113 133 b 113 138 116 142 120 142 b 123 142 125 140 125 137 b 125 132 122 129 118 129 z m 135 143 l 132 127 l 134 127 l 135 136 b 136 140 139 142 142 142 b 145 142 146 140 146 138 b 146 137 146 137 146 137 l 144 127 l 145 127 l 147 136 b 148 140 150 142 154 142 b 156 142 158 140 158 138 b 158 137 158 137 158 137 l 156 127 l 157 127 l 159 137 b 159 137 159 138 159 138 b 159 141 157 143 154 143 b 151 143 149 142 147 140 b 147 142 145 143 142 143 b 140 143 138 142 136 140 l 137 143 z m 188 143 b 185 143 183 142 182 140 b 181 142 179 143 176 143 b 174 143 171 142 170 140 l 171 143 l 169 143 l 166 127 l 168 127 l 169 136 b 170 140 172 142 175 142 b 178 142 180 140 180 138 b 180 137 180 137 180 137 l 178 127 l 180 127 l 181 136 b 182 140 185 142 188 142 b 191 142 192 140 192 138 b 192 137 192 137 192 137 l 190 127 l 191 127 l 193 137 b 193 137 193 138 193 138 b 193 141 191 143 188 143 z m 215 135 b 215 135 215 136 215 137 b 215 141 212 143 208 143 b 203 143 200 139 200 133 b 200 129 203 127 207 127 b 209 127 212 128 213 129 l 212 130 b 211 129 209 129 207 129 b 203 129 201 130 201 133 b 201 134 201 134 201 135 z m 208 142 b 211 142 213 140 213 137 b 213 137 213 136 213 136 l 201 136 b 202 140 205 142 208 142 z m 223 143 l 220 127 l 222 127 l 223 135 b 224 140 226 141 230 141 b 230 141 230 141 230 141 l 230 143 b 227 143 226 142 224 140 l 225 143 z m 242 142 b 245 142 246 141 247 140 l 248 140 b 247 142 245 143 242 143 b 238 143 234 139 234 133 b 234 130 236 127 241 127 b 243 127 245 128 247 130 l 246 130 b 245 129 243 129 241 129 b 238 129 235 130 235 133 b 235 138 238 142 242 142 z m 259 148 b 259 149 259 149 258 149 b 257 149 256 149 256 148 b 256 147 257 147 257 147 b 259 147 259 147 259 148 z m 253 127 l 254 127 l 257 143 l 256 143 z m 277 127 l 280 143 l 279 143 l 278 139 b 277 141 275 143 272 143 b 266 143 263 139 263 133 b 263 129 266 127 270 127 b 273 127 275 128 276 130 l 276 127 z m 270 129 b 266 129 265 130 265 133 b 265 138 268 142 272 142 b 275 142 277 140 277 137 b 277 132 274 129 270 129 z m 287 127 l 292 150 l 290 150 l 286 127 z m 295 123 l 297 127 b 297 127 297 128 297 129 b 297 129 297 130 296 130 b 295 130 295 129 295 128 b 295 128 295 127 295 127 l 294 123 z m 324 134 b 330 134 334 137 334 143 b 334 146 331 149 327 149 l 320 149 l 315 127 l 317 127 l 318 134 z m 321 147 l 327 147 b 330 147 332 146 332 143 b 332 138 329 135 324 135 l 318 135 z m 340 127 l 344 150 l 343 150 l 338 127 z m 363 135 b 364 135 364 136 364 137 b 364 141 361 143 357 143 b 352 143 348 139 348 133 b 348 129 351 127 356 127 b 358 127 360 128 362 129 l 361 130 b 360 129 358 129 356 129 b 352 129 350 130 350 133 b 350 134 350 134 350 135 z m 357 142 b 360 142 362 140 362 137 b 362 137 362 136 362 136 l 350 136 b 351 140 353 142 357 142 z m 384 143 l 383 139 b 383 141 380 143 377 143 b 373 143 369 139 369 133 b 369 129 371 127 376 127 b 378 127 380 128 382 130 l 381 127 l 383 127 l 386 143 z m 376 129 b 372 129 370 130 370 133 b 370 138 373 142 377 142 b 381 142 383 140 383 137 b 383 132 380 129 376 129 z m 395 129 b 394 129 392 129 391 130 l 389 129 b 391 128 393 127 395 127 b 400 127 402 129 402 132 b 402 137 393 134 393 138 b 393 140 395 142 398 142 b 400 142 402 141 403 140 l 403 141 b 402 143 400 143 398 143 b 394 143 392 141 392 138 b 392 133 401 136 401 132 b 401 130 399 129 395 129 z m 423 135 b 423 135 423 136 423 137 b 423 141 420 143 416 143 b 411 143 408 139 408 133 b 408 129 411 127 415 127 b 417 127 420 128 421 129 l 420 130 b 419 129 417 129 415 129 b 411 129 409 130 409 133 b 409 134 409 134 409 135 z m 416 142 b 419 142 421 140 421 137 b 421 137 421 136 421 136 l 409 136 b 411 140 413 142 416 142 z m 446 127 l 459 149 l 458 149 l 446 129 l 441 149 l 439 149 l 445 127 z m 467 148 b 467 149 466 149 465 149 b 465 149 464 149 464 148 b 464 147 465 147 465 147 b 466 147 467 147 467 148 z m 461 127 l 462 127 l 465 143 l 464 143 z m 478 142 b 479 142 481 141 482 140 l 483 141 b 482 143 480 143 478 143 b 474 143 471 141 471 138 b 471 133 480 136 480 132 b 480 130 479 129 476 129 b 473 129 471 129 470 130 l 469 129 b 470 128 473 127 475 127 b 479 127 482 129 482 132 b 482 137 473 134 473 138 b 473 140 475 142 478 142 z m 488 127 l 489 127 l 493 143 l 491 143 z m 494 148 b 494 149 493 149 493 149 b 492 149 491 149 491 148 b 491 147 492 147 493 147 b 493 147 494 147 494 148 z m 502 146 l 502 143 l 499 143 l 499 141 l 501 141 l 499 132 b 499 131 499 131 499 130 b 499 128 500 127 503 127 b 504 127 505 127 506 128 l 505 129 b 505 129 504 128 503 128 b 502 128 500 129 500 130 b 500 131 500 131 501 132 l 503 141 l 508 141 l 508 143 l 503 143 l 503 146 z m 942 573 l 29 573 l 29 570 l 942 570 z m 942 671 l 29 671 l 29 668 l 942 668 z m 942 681 l 29 681 l 29 679 l 942 679 z m 30 25 l 943 25 l 943 27 l 30 27 z m 30 36 l 943 36 l 943 38 l 30 38 z m 517 135 l 517 133 l 943 133 l 943 135 z m 603 212 b 608 212 612 226 612 246 b 612 259 611 263 606 264 b 602 266 600 263 601 244 b 601 225 600 221 594 220 b 588 219 588 220 590 231 b 591 240 591 241 585 241 b 579 241 577 239 577 231 b 577 225 580 218 584 216 b 587 212 588 208 587 201 b 585 192 586 191 594 191 b 599 191 603 192 605 194 b 606 196 605 198 603 198 b 601 198 599 201 599 205 b 599 209 601 212 603 212 z m 569 255 b 573 256 576 256 577 253 b 579 245 585 249 585 258 b 585 265 584 267 579 265 b 576 264 566 264 557 264 b 543 264 541 262 541 256 b 541 250 543 249 549 251 b 556 253 556 252 555 222 b 554 191 554 191 562 191 b 570 191 573 196 567 200 b 565 201 563 213 563 228 b 563 248 564 253 569 255 z m 643 218 b 654 223 658 230 658 243 b 658 256 648 264 633 264 l 620 264 l 621 227 b 621 194 623 191 629 191 b 632 191 637 192 638 194 b 639 196 638 198 636 198 b 628 198 633 212 643 218 z m 631 235 b 628 252 628 256 635 256 b 649 256 656 238 646 228 b 639 220 634 223 631 235 z m 722 283 b 737 278 741 278 759 281 b 784 286 800 297 812 316 b 841 361 817 404 766 401 b 741 400 737 395 755 390 b 773 385 780 375 780 351 b 779 335 777 326 770 314 b 754 287 736 281 725 298 b 720 306 719 313 721 344 l 724 380 l 714 384 b 699 390 690 388 688 380 b 687 375 684 373 680 375 b 677 376 667 378 659 379 b 646 381 643 379 632 370 b 621 360 620 357 618 335 b 616 300 609 300 604 335 b 600 366 592 378 573 382 b 565 384 561 382 552 373 l 541 363 l 541 374 b 540 381 540 393 541 401 b 542 415 543 417 552 417 b 557 417 570 421 581 426 b 605 438 615 455 613 475 b 611 493 602 503 585 508 b 551 518 513 487 506 442 b 504 429 503 428 495 428 l 485 428 l 488 454 b 490 480 490 481 482 484 b 461 489 459 487 454 462 b 450 440 449 438 441 440 b 437 441 424 443 411 444 b 387 447 353 439 344 429 b 336 420 355 419 375 428 b 389 434 398 435 418 434 b 432 433 444 431 444 431 b 445 430 445 403 444 371 b 441 305 434 292 433 348 l 432 384 l 418 387 b 406 390 395 389 395 384 b 395 382 388 382 379 383 b 367 384 360 383 353 378 b 334 366 327 330 341 308 b 352 289 348 249 336 249 b 327 249 326 264 327 356 b 328 436 327 445 321 458 b 302 496 265 489 251 444 b 248 434 246 423 246 420 b 246 405 242 402 233 411 b 214 430 175 432 149 414 b 127 400 117 383 115 356 b 114 334 115 332 127 320 b 136 311 144 307 156 305 b 184 301 210 311 184 316 b 166 319 159 330 159 353 b 159 386 179 420 199 420 b 210 420 214 404 216 344 b 218 311 220 288 222 285 b 225 283 233 280 241 279 l 256 277 l 258 340 b 259 375 262 412 264 422 b 269 444 283 473 288 471 b 290 470 291 456 291 438 b 289 298 289 287 295 268 b 298 257 304 246 310 242 b 315 238 325 234 332 234 b 350 234 359 248 359 273 l 359 293 l 371 293 b 381 293 386 295 391 303 l 398 312 l 408 304 b 415 297 420 296 432 297 b 444 299 446 298 448 291 b 451 278 467 261 480 256 b 502 249 517 260 523 287 b 524 294 527 299 532 299 b 546 302 549 308 549 329 b 549 352 554 369 562 369 b 565 369 567 363 567 343 b 567 320 568 317 577 307 b 588 296 602 293 614 300 b 619 302 622 302 627 296 b 637 285 659 281 672 287 b 678 290 684 296 685 300 b 688 309 692 309 699 299 b 702 294 712 287 722 283 z m 551 464 b 562 499 584 513 591 490 b 599 469 587 447 562 434 b 539 422 538 425 551 464 z m 386 318 b 379 303 374 305 371 323 b 367 352 377 378 388 371 b 394 367 392 330 386 318 z m 496 275 b 488 288 483 326 483 376 b 483 420 484 425 496 417 b 499 416 501 397 502 376 b 503 355 506 323 507 305 b 509 270 506 260 496 275 z m 672 303 b 666 292 658 295 656 309 b 653 326 656 346 664 357 b 670 367 670 367 675 360 b 681 352 679 316 672 303 z m 697 252 b 698 251 700 255 700 259 b 702 267 700 268 693 265 b 689 264 680 264 674 264 l 663 264 l 663 227 b 663 192 664 190 670 192 b 675 193 683 194 690 194 b 699 194 700 196 699 202 b 697 207 696 208 693 205 b 691 203 685 202 681 202 b 673 202 672 203 672 215 b 672 228 673 228 684 226 b 693 224 694 225 694 232 b 694 241 689 244 685 238 b 681 231 672 234 672 244 b 672 256 681 259 697 252 z m 84 58 l 91 76 b 92 81 93 85 94 89 b 95 85 97 81 98 77 l 104 58 l 110 58 l 123 97 l 116 97 l 110 77 b 109 73 108 68 107 64 b 106 68 105 73 104 77 l 98 97 l 92 97 l 85 77 b 84 73 82 68 81 64 b 80 68 79 73 78 77 l 73 97 l 65 97 l 77 58 z m 154 58 l 160 76 b 162 81 163 85 164 89 b 165 85 166 81 168 77 l 174 58 l 180 58 l 193 97 l 186 97 l 180 77 b 179 73 178 68 177 64 b 176 68 175 73 174 77 l 167 97 l 161 97 l 155 77 b 153 73 152 68 151 64 b 150 68 149 73 148 77 l 143 97 l 135 97 l 147 58 z m 224 58 l 230 76 b 232 81 233 85 234 89 b 235 85 236 81 238 77 l 244 58 l 250 58 l 263 97 l 256 97 l 250 77 b 249 73 248 68 247 64 b 246 68 245 73 243 77 l 237 97 l 231 97 l 224 77 b 223 73 222 68 221 64 b 220 68 219 73 218 77 l 212 97 l 205 97 l 217 58 z m 279 57 b 282 57 283 59 283 62 b 283 65 281 67 279 67 b 276 67 274 65 274 62 b 274 59 276 57 279 57 z m 335 58 l 335 81 b 335 95 326 99 320 99 b 314 99 309 94 307 91 l 306 97 l 300 97 b 300 94 300 91 300 86 l 300 58 l 307 58 l 307 82 b 307 83 308 84 308 85 b 309 89 313 93 318 93 b 325 93 327 87 327 80 l 327 58 z m 351 68 b 351 62 355 57 364 57 b 369 57 373 59 376 62 l 376 58 l 383 58 b 382 61 382 64 382 67 l 382 82 b 382 90 379 99 367 99 b 362 99 358 97 354 95 l 356 90 b 359 92 362 93 366 93 b 374 93 375 87 375 83 b 360 83 351 77 351 68 z m 376 78 l 376 71 b 376 70 375 70 375 68 b 374 65 370 62 365 62 b 362 62 359 64 359 69 b 359 77 367 78 376 78 z m 421 92 l 421 97 l 411 97 l 411 109 l 403 107 l 403 97 l 397 97 l 397 92 l 403 92 l 403 70 b 403 65 405 62 406 60 b 408 58 411 57 414 57 b 417 57 419 57 421 58 l 420 63 b 420 63 418 62 416 62 b 412 62 411 65 411 70 l 411 92 z m 471 58 l 471 81 b 471 95 463 99 458 99 b 455 99 452 97 450 96 b 448 95 446 93 445 91 l 445 116 l 437 116 l 437 58 l 445 58 l 445 82 b 445 83 445 84 445 85 b 447 89 450 93 455 93 b 462 93 464 87 464 80 l 464 58 z m 504 99 b 499 99 494 97 491 95 l 493 90 b 496 92 499 93 503 93 b 511 93 512 87 512 83 b 497 83 488 77 488 68 b 488 62 493 57 500 57 b 506 57 510 59 512 62 l 513 62 l 514 58 l 520 58 b 520 61 519 64 519 67 l 519 82 b 519 90 516 99 504 99 z m 512 71 b 512 70 512 70 512 68 b 511 65 508 62 502 62 b 499 62 496 64 496 69 b 496 77 505 78 512 78 z m 541 107 l 541 97 l 534 97 l 534 92 l 541 92 l 541 70 b 541 65 541 62 543 60 b 545 58 548 57 551 57 b 554 57 556 57 558 58 l 557 63 b 556 63 555 62 553 62 b 549 62 547 65 547 70 l 547 92 l 558 92 l 558 97 l 547 97 l 547 109 z m 578 49 b 576 47 574 46 572 45 l 574 39 b 576 39 579 41 583 44 b 588 49 591 55 596 69 l 607 97 l 600 97 l 591 74 b 591 71 590 68 589 66 b 588 68 587 71 587 74 l 577 97 l 570 97 l 585 61 b 585 60 585 59 585 59 b 585 58 585 58 584 57 b 583 53 581 50 578 49 z m 629 41 l 629 63 b 632 59 637 57 641 57 b 651 57 659 64 659 78 b 659 90 652 99 643 99 b 637 99 632 96 629 91 l 628 97 l 621 97 b 622 94 622 89 622 85 l 622 41 z m 629 80 b 629 82 629 83 630 83 b 631 89 636 93 641 93 b 648 93 652 86 652 77 b 652 68 648 62 640 62 b 635 62 631 66 629 71 b 629 71 629 73 629 74 z m 709 79 b 709 87 706 99 693 99 b 681 99 674 89 674 77 b 674 65 682 57 694 57 b 700 57 705 58 707 59 l 706 64 b 703 63 700 62 695 62 b 688 62 681 67 681 76 l 709 76 b 709 77 709 78 709 79 z m 681 81 b 682 86 685 93 692 93 b 700 93 702 86 702 81 z m 734 62 b 734 65 732 67 729 67 b 726 67 724 65 724 62 b 724 59 726 57 729 57 b 732 57 734 59 734 62 z m 769 93 b 773 93 776 91 778 91 l 779 96 b 778 97 773 98 769 98 b 756 98 748 89 748 77 b 748 65 756 57 768 57 b 773 57 778 58 779 59 l 778 64 b 776 64 773 62 769 62 b 761 62 755 68 755 77 b 755 86 760 93 769 93 z m 831 78 b 831 90 824 99 813 99 b 801 99 793 91 793 77 b 793 65 801 57 811 57 b 821 57 831 63 831 78 z m 800 77 b 800 85 804 93 812 93 b 820 93 824 84 824 77 b 824 68 819 62 812 62 b 805 62 800 68 800 77 z m 906 58 l 906 81 b 906 95 898 99 893 99 b 889 99 886 97 884 96 b 882 94 881 93 879 90 b 878 95 873 99 868 99 b 861 99 858 95 855 91 l 855 97 l 849 97 b 849 94 849 91 849 86 l 849 58 l 856 58 l 856 82 b 856 83 856 84 857 85 b 858 89 861 93 866 93 b 871 93 874 88 874 82 l 874 58 l 881 58 l 881 82 b 881 83 881 85 881 86 b 882 89 886 93 890 93 b 896 93 899 88 899 80 l 899 58 z"},"r":{"x_min":0,"x_max":379,"ha":379,"o":"m 331 396 b 339 413 347 430 354 445 b 361 458 342 477 326 479 b 324 479 322 479 319 479 b 292 479 275 454 235 454 b 220 454 201 458 178 467 b 163 473 135 417 160 417 b 177 417 199 423 213 423 b 226 423 233 419 228 404 b 212 357 202 325 177 255 b 144 162 118 108 88 28 b 81 10 108 1 137 1 b 164 1 193 9 199 26 b 225 93 263 221 306 333 b 329 371 363 423 418 423 b 447 423 450 381 442 361 b 441 359 443 357 446 357 b 463 357 538 395 545 416 b 556 445 510 480 468 480 b 427 480 373 443 331 396 z"},"2":{"x_min":0,"x_max":964,"ha":964,"o":"m 29 642 l 29 599 l 39 599 l 39 610 l 48 610 b 59 610 66 616 66 626 b 66 636 59 642 48 642 z m 56 626 b 56 621 53 619 47 619 l 39 619 l 39 634 l 47 634 b 53 634 56 631 56 626 z m 119 634 l 119 642 l 87 642 l 87 599 l 119 599 l 119 607 l 97 607 l 97 616 l 116 616 l 116 624 l 97 624 l 97 634 z m 178 626 b 178 636 171 642 160 642 l 142 642 l 142 599 l 151 599 l 151 611 l 160 611 l 168 599 l 178 599 l 169 613 b 175 615 178 619 178 626 z m 159 619 l 151 619 l 151 634 l 159 634 b 165 634 168 631 168 626 b 168 621 165 619 159 619 z m 214 606 b 209 606 203 608 200 610 l 197 603 b 200 600 207 598 213 598 b 226 598 232 604 232 611 b 232 627 207 622 207 630 b 207 632 209 634 215 634 b 219 634 223 633 227 631 l 230 639 b 226 641 221 642 215 642 b 203 642 198 636 198 629 b 198 613 222 619 222 610 b 222 608 219 606 214 606 z m 250 620 b 250 607 260 598 273 598 b 286 598 296 607 296 620 b 296 633 286 642 273 642 b 260 642 250 633 250 620 z m 286 620 b 286 612 280 607 273 607 b 265 607 260 612 260 620 b 260 628 265 634 273 634 b 280 634 286 628 286 620 z m 326 642 l 318 642 l 318 599 l 327 599 l 327 625 l 348 599 l 356 599 l 356 642 l 347 642 l 347 616 z m 375 599 l 385 599 l 388 608 l 408 608 l 412 599 l 422 599 l 403 642 l 394 642 z m 405 616 l 392 616 l 398 632 z m 441 642 l 441 599 l 471 599 l 471 607 l 450 607 l 450 642 z m 522 642 l 522 617 b 522 605 529 598 541 598 b 553 598 560 605 560 617 l 560 642 l 550 642 l 550 618 b 550 610 547 607 541 607 b 535 607 532 610 532 618 l 532 642 z m 598 606 b 593 606 588 608 584 610 l 581 603 b 585 600 591 598 598 598 b 610 598 615 604 615 611 b 615 627 591 622 591 630 b 591 632 594 634 599 634 b 603 634 607 633 611 631 l 614 639 b 610 641 605 642 599 642 b 587 642 582 636 582 629 b 582 613 606 619 606 610 b 606 608 604 606 598 606 z m 669 634 l 669 642 l 637 642 l 637 599 l 669 599 l 669 607 l 646 607 l 646 616 l 666 616 l 666 624 l 646 624 l 646 634 z m 720 620 b 720 607 730 598 743 598 b 756 598 766 607 766 620 b 766 633 756 642 743 642 b 730 642 720 633 720 620 z m 756 620 b 756 612 750 607 743 607 b 735 607 730 612 730 620 b 730 628 735 634 743 634 b 750 634 756 628 756 620 z m 796 642 l 788 642 l 788 599 l 797 599 l 797 625 l 818 599 l 826 599 l 826 642 l 817 642 l 817 616 z m 851 642 l 851 599 l 881 599 l 881 607 l 860 607 l 860 642 z m 917 599 l 917 614 l 933 642 l 923 642 l 913 622 l 901 642 l 891 642 l 907 614 l 907 599 z m 37 138 l 27 138 l 28 147 l 40 147 l 41 149 l 27 149 l 23 127 l 24 127 l 26 137 l 37 137 z m 43 133 b 43 130 45 127 50 127 b 55 127 59 131 59 137 b 59 141 56 143 52 143 b 47 143 43 139 43 133 z m 57 137 b 57 132 54 129 50 129 b 47 129 44 130 44 133 b 44 138 47 142 51 142 b 55 142 57 140 57 137 z m 67 143 l 64 127 l 65 127 l 67 135 b 68 140 70 141 74 141 b 74 141 74 141 74 141 l 74 143 b 71 143 69 142 68 140 l 68 143 z m 101 147 b 104 147 106 146 107 144 l 109 146 b 107 147 104 149 101 149 b 94 149 89 143 89 136 b 89 130 92 127 98 127 b 101 127 104 128 106 130 l 105 131 b 104 129 101 129 98 129 b 93 129 91 132 91 136 b 91 142 95 147 101 147 z m 127 137 b 127 141 124 143 120 143 b 115 143 111 139 111 133 b 111 130 114 127 118 127 b 123 127 127 131 127 137 z m 118 129 b 115 129 113 130 113 133 b 113 138 116 142 120 142 b 123 142 125 140 125 137 b 125 132 122 129 118 129 z m 135 143 l 132 127 l 134 127 l 135 136 b 136 140 139 142 142 142 b 145 142 146 140 146 138 b 146 137 146 137 146 137 l 144 127 l 145 127 l 147 136 b 148 140 150 142 154 142 b 156 142 158 140 158 138 b 158 137 158 137 158 137 l 156 127 l 157 127 l 159 137 b 159 137 159 138 159 138 b 159 141 157 143 154 143 b 151 143 149 142 147 140 b 147 142 145 143 142 143 b 140 143 138 142 136 140 l 137 143 z m 188 143 b 185 143 183 142 182 140 b 181 142 179 143 176 143 b 174 143 171 142 170 140 l 171 143 l 169 143 l 166 127 l 168 127 l 169 136 b 170 140 172 142 175 142 b 178 142 180 140 180 138 b 180 137 180 137 180 137 l 178 127 l 180 127 l 181 136 b 182 140 185 142 188 142 b 191 142 192 140 192 138 b 192 137 192 137 192 137 l 190 127 l 191 127 l 193 137 b 193 137 193 138 193 138 b 193 141 191 143 188 143 z m 215 135 b 215 135 215 136 215 137 b 215 141 212 143 208 143 b 203 143 200 139 200 133 b 200 129 203 127 207 127 b 209 127 212 128 213 129 l 212 130 b 211 129 209 129 207 129 b 203 129 201 130 201 133 b 201 134 201 134 201 135 z m 208 142 b 211 142 213 140 213 137 b 213 137 213 136 213 136 l 201 136 b 202 140 205 142 208 142 z m 223 143 l 220 127 l 222 127 l 223 135 b 224 140 226 141 230 141 b 230 141 230 141 230 141 l 230 143 b 227 143 226 142 224 140 l 225 143 z m 242 142 b 245 142 246 141 247 140 l 248 140 b 247 142 245 143 242 143 b 238 143 234 139 234 133 b 234 130 236 127 241 127 b 243 127 245 128 247 130 l 246 130 b 245 129 243 129 241 129 b 238 129 235 130 235 133 b 235 138 238 142 242 142 z m 259 148 b 259 149 259 149 258 149 b 257 149 256 149 256 148 b 256 147 257 147 257 147 b 259 147 259 147 259 148 z m 253 127 l 254 127 l 257 143 l 256 143 z m 277 127 l 280 143 l 279 143 l 278 139 b 277 141 275 143 272 143 b 266 143 263 139 263 133 b 263 129 266 127 270 127 b 273 127 275 128 276 130 l 276 127 z m 270 129 b 266 129 265 130 265 133 b 265 138 268 142 272 142 b 275 142 277 140 277 137 b 277 132 274 129 270 129 z m 287 127 l 292 150 l 290 150 l 286 127 z m 295 123 l 297 127 b 297 127 297 128 297 129 b 297 129 297 130 296 130 b 295 130 295 129 295 128 b 295 128 295 127 295 127 l 294 123 z m 324 134 b 330 134 334 137 334 143 b 334 146 331 149 327 149 l 320 149 l 315 127 l 317 127 l 318 134 z m 321 147 l 327 147 b 330 147 332 146 332 143 b 332 138 329 135 324 135 l 318 135 z m 340 127 l 344 150 l 343 150 l 338 127 z m 363 135 b 364 135 364 136 364 137 b 364 141 361 143 357 143 b 352 143 348 139 348 133 b 348 129 351 127 356 127 b 358 127 360 128 362 129 l 361 130 b 360 129 358 129 356 129 b 352 129 350 130 350 133 b 350 134 350 134 350 135 z m 357 142 b 360 142 362 140 362 137 b 362 137 362 136 362 136 l 350 136 b 351 140 353 142 357 142 z m 384 143 l 383 139 b 383 141 380 143 377 143 b 373 143 369 139 369 133 b 369 129 371 127 376 127 b 378 127 380 128 382 130 l 381 127 l 383 127 l 386 143 z m 376 129 b 372 129 370 130 370 133 b 370 138 373 142 377 142 b 381 142 383 140 383 137 b 383 132 380 129 376 129 z m 395 129 b 394 129 392 129 391 130 l 389 129 b 391 128 393 127 395 127 b 400 127 402 129 402 132 b 402 137 393 134 393 138 b 393 140 395 142 398 142 b 400 142 402 141 403 140 l 403 141 b 402 143 400 143 398 143 b 394 143 392 141 392 138 b 392 133 401 136 401 132 b 401 130 399 129 395 129 z m 423 135 b 423 135 423 136 423 137 b 423 141 420 143 416 143 b 411 143 408 139 408 133 b 408 129 411 127 415 127 b 417 127 420 128 421 129 l 420 130 b 419 129 417 129 415 129 b 411 129 409 130 409 133 b 409 134 409 134 409 135 z m 416 142 b 419 142 421 140 421 137 b 421 137 421 136 421 136 l 409 136 b 411 140 413 142 416 142 z m 446 127 l 459 149 l 458 149 l 446 129 l 441 149 l 439 149 l 445 127 z m 467 148 b 467 149 466 149 465 149 b 465 149 464 149 464 148 b 464 147 465 147 465 147 b 466 147 467 147 467 148 z m 461 127 l 462 127 l 465 143 l 464 143 z m 478 142 b 479 142 481 141 482 140 l 483 141 b 482 143 480 143 478 143 b 474 143 471 141 471 138 b 471 133 480 136 480 132 b 480 130 479 129 476 129 b 473 129 471 129 470 130 l 469 129 b 470 128 473 127 475 127 b 479 127 482 129 482 132 b 482 137 473 134 473 138 b 473 140 475 142 478 142 z m 488 127 l 489 127 l 493 143 l 491 143 z m 494 148 b 494 149 493 149 493 149 b 492 149 491 149 491 148 b 491 147 492 147 493 147 b 493 147 494 147 494 148 z m 502 146 l 502 143 l 499 143 l 499 141 l 501 141 l 499 132 b 499 131 499 131 499 130 b 499 128 500 127 503 127 b 504 127 505 127 506 128 l 505 129 b 505 129 504 128 503 128 b 502 128 500 129 500 130 b 500 131 500 131 501 132 l 503 141 l 508 141 l 508 143 l 503 143 l 503 146 z m 942 573 l 29 573 l 29 570 l 942 570 z m 942 671 l 29 671 l 29 668 l 942 668 z m 942 681 l 29 681 l 29 679 l 942 679 z m 30 25 l 943 25 l 943 27 l 30 27 z m 30 36 l 943 36 l 943 38 l 30 38 z m 517 135 l 517 133 l 943 133 l 943 135 z m 603 212 b 608 212 612 226 612 246 b 612 259 611 263 606 264 b 602 266 600 263 601 244 b 601 225 600 221 594 220 b 588 219 588 220 590 231 b 591 240 591 241 585 241 b 579 241 577 239 577 231 b 577 225 580 218 584 216 b 587 212 588 208 587 201 b 585 192 586 191 594 191 b 599 191 603 192 605 194 b 606 196 605 198 603 198 b 601 198 599 201 599 205 b 599 209 601 212 603 212 z m 569 255 b 573 256 576 256 577 253 b 579 245 585 249 585 258 b 585 265 584 267 579 265 b 576 264 566 264 557 264 b 543 264 541 262 541 256 b 541 250 543 249 549 251 b 556 253 556 252 555 222 b 554 191 554 191 562 191 b 570 191 573 196 567 200 b 565 201 563 213 563 228 b 563 248 564 253 569 255 z m 643 218 b 654 223 658 230 658 243 b 658 256 648 264 633 264 l 620 264 l 621 227 b 621 194 623 191 629 191 b 632 191 637 192 638 194 b 639 196 638 198 636 198 b 628 198 633 212 643 218 z m 631 235 b 628 252 628 256 635 256 b 649 256 656 238 646 228 b 639 220 634 223 631 235 z m 722 283 b 737 278 741 278 759 281 b 784 286 800 297 812 316 b 841 361 817 404 766 401 b 741 400 737 395 755 390 b 773 385 780 375 780 351 b 779 335 777 326 770 314 b 754 287 736 281 725 298 b 720 306 719 313 721 344 l 724 380 l 714 384 b 699 390 690 388 688 380 b 687 375 684 373 680 375 b 677 376 667 378 659 379 b 646 381 643 379 632 370 b 621 360 620 357 618 335 b 616 300 609 300 604 335 b 600 366 592 378 573 382 b 565 384 561 382 552 373 l 541 363 l 541 374 b 540 381 540 393 541 401 b 542 415 543 417 552 417 b 557 417 570 421 581 426 b 605 438 615 455 613 475 b 611 493 602 503 585 508 b 551 518 513 487 506 442 b 504 429 503 428 495 428 l 485 428 l 488 454 b 490 480 490 481 482 484 b 461 489 459 487 454 462 b 450 440 449 438 441 440 b 437 441 424 443 411 444 b 387 447 353 439 344 429 b 336 420 355 419 375 428 b 389 434 398 435 418 434 b 432 433 444 431 444 431 b 445 430 445 403 444 371 b 441 305 434 292 433 348 l 432 384 l 418 387 b 406 390 395 389 395 384 b 395 382 388 382 379 383 b 367 384 360 383 353 378 b 334 366 327 330 341 308 b 352 289 348 249 336 249 b 327 249 326 264 327 356 b 328 436 327 445 321 458 b 302 496 265 489 251 444 b 248 434 246 423 246 420 b 246 405 242 402 233 411 b 214 430 175 432 149 414 b 127 400 117 383 115 356 b 114 334 115 332 127 320 b 136 311 144 307 156 305 b 184 301 210 311 184 316 b 166 319 159 330 159 353 b 159 386 179 420 199 420 b 210 420 214 404 216 344 b 218 311 220 288 222 285 b 225 283 233 280 241 279 l 256 277 l 258 340 b 259 375 262 412 264 422 b 269 444 283 473 288 471 b 290 470 291 456 291 438 b 289 298 289 287 295 268 b 298 257 304 246 310 242 b 315 238 325 234 332 234 b 350 234 359 248 359 273 l 359 293 l 371 293 b 381 293 386 295 391 303 l 398 312 l 408 304 b 415 297 420 296 432 297 b 444 299 446 298 448 291 b 451 278 467 261 480 256 b 502 249 517 260 523 287 b 524 294 527 299 532 299 b 546 302 549 308 549 329 b 549 352 554 369 562 369 b 565 369 567 363 567 343 b 567 320 568 317 577 307 b 588 296 602 293 614 300 b 619 302 622 302 627 296 b 637 285 659 281 672 287 b 678 290 684 296 685 300 b 688 309 692 309 699 299 b 702 294 712 287 722 283 z m 551 464 b 562 499 584 513 591 490 b 599 469 587 447 562 434 b 539 422 538 425 551 464 z m 386 318 b 379 303 374 305 371 323 b 367 352 377 378 388 371 b 394 367 392 330 386 318 z m 496 275 b 488 288 483 326 483 376 b 483 420 484 425 496 417 b 499 416 501 397 502 376 b 503 355 506 323 507 305 b 509 270 506 260 496 275 z m 672 303 b 666 292 658 295 656 309 b 653 326 656 346 664 357 b 670 367 670 367 675 360 b 681 352 679 316 672 303 z m 697 252 b 698 251 700 255 700 259 b 702 267 700 268 693 265 b 689 264 680 264 674 264 l 663 264 l 663 227 b 663 192 664 190 670 192 b 675 193 683 194 690 194 b 699 194 700 196 699 202 b 697 207 696 208 693 205 b 691 203 685 202 681 202 b 673 202 672 203 672 215 b 672 228 673 228 684 226 b 693 224 694 225 694 232 b 694 241 689 244 685 238 b 681 231 672 234 672 244 b 672 256 681 259 697 252 z m 84 58 l 91 76 b 92 81 93 85 94 89 b 95 85 97 81 98 77 l 104 58 l 110 58 l 123 97 l 116 97 l 110 77 b 109 73 108 68 107 64 b 106 68 105 73 104 77 l 98 97 l 92 97 l 85 77 b 84 73 82 68 81 64 b 80 68 79 73 78 77 l 73 97 l 65 97 l 77 58 z m 154 58 l 160 76 b 162 81 163 85 164 89 b 165 85 166 81 168 77 l 174 58 l 180 58 l 193 97 l 186 97 l 180 77 b 179 73 178 68 177 64 b 176 68 175 73 174 77 l 167 97 l 161 97 l 155 77 b 153 73 152 68 151 64 b 150 68 149 73 148 77 l 143 97 l 135 97 l 147 58 z m 224 58 l 230 76 b 232 81 233 85 234 89 b 235 85 236 81 238 77 l 244 58 l 250 58 l 263 97 l 256 97 l 250 77 b 249 73 248 68 247 64 b 246 68 245 73 243 77 l 237 97 l 231 97 l 224 77 b 223 73 222 68 221 64 b 220 68 219 73 218 77 l 212 97 l 205 97 l 217 58 z m 279 57 b 282 57 283 59 283 62 b 283 65 281 67 279 67 b 276 67 274 65 274 62 b 274 59 276 57 279 57 z m 335 58 l 335 81 b 335 95 326 99 320 99 b 314 99 309 94 307 91 l 306 97 l 300 97 b 300 94 300 91 300 86 l 300 58 l 307 58 l 307 82 b 307 83 308 84 308 85 b 309 89 313 93 318 93 b 325 93 327 87 327 80 l 327 58 z m 351 68 b 351 62 355 57 364 57 b 369 57 373 59 376 62 l 376 58 l 383 58 b 382 61 382 64 382 67 l 382 82 b 382 90 379 99 367 99 b 362 99 358 97 354 95 l 356 90 b 359 92 362 93 366 93 b 374 93 375 87 375 83 b 360 83 351 77 351 68 z m 376 78 l 376 71 b 376 70 375 70 375 68 b 374 65 370 62 365 62 b 362 62 359 64 359 69 b 359 77 367 78 376 78 z m 421 92 l 421 97 l 411 97 l 411 109 l 403 107 l 403 97 l 397 97 l 397 92 l 403 92 l 403 70 b 403 65 405 62 406 60 b 408 58 411 57 414 57 b 417 57 419 57 421 58 l 420 63 b 420 63 418 62 416 62 b 412 62 411 65 411 70 l 411 92 z m 471 58 l 471 81 b 471 95 463 99 458 99 b 455 99 452 97 450 96 b 448 95 446 93 445 91 l 445 116 l 437 116 l 437 58 l 445 58 l 445 82 b 445 83 445 84 445 85 b 447 89 450 93 455 93 b 462 93 464 87 464 80 l 464 58 z m 504 99 b 499 99 494 97 491 95 l 493 90 b 496 92 499 93 503 93 b 511 93 512 87 512 83 b 497 83 488 77 488 68 b 488 62 493 57 500 57 b 506 57 510 59 512 62 l 513 62 l 514 58 l 520 58 b 520 61 519 64 519 67 l 519 82 b 519 90 516 99 504 99 z m 512 71 b 512 70 512 70 512 68 b 511 65 508 62 502 62 b 499 62 496 64 496 69 b 496 77 505 78 512 78 z m 541 107 l 541 97 l 534 97 l 534 92 l 541 92 l 541 70 b 541 65 541 62 543 60 b 545 58 548 57 551 57 b 554 57 556 57 558 58 l 557 63 b 556 63 555 62 553 62 b 549 62 547 65 547 70 l 547 92 l 558 92 l 558 97 l 547 97 l 547 109 z m 578 49 b 576 47 574 46 572 45 l 574 39 b 576 39 579 41 583 44 b 588 49 591 55 596 69 l 607 97 l 600 97 l 591 74 b 591 71 590 68 589 66 b 588 68 587 71 587 74 l 577 97 l 570 97 l 585 61 b 585 60 585 59 585 59 b 585 58 585 58 584 57 b 583 53 581 50 578 49 z m 629 41 l 629 63 b 632 59 637 57 641 57 b 651 57 659 64 659 78 b 659 90 652 99 643 99 b 637 99 632 96 629 91 l 628 97 l 621 97 b 622 94 622 89 622 85 l 622 41 z m 629 80 b 629 82 629 83 630 83 b 631 89 636 93 641 93 b 648 93 652 86 652 77 b 652 68 648 62 640 62 b 635 62 631 66 629 71 b 629 71 629 73 629 74 z m 709 79 b 709 87 706 99 693 99 b 681 99 674 89 674 77 b 674 65 682 57 694 57 b 700 57 705 58 707 59 l 706 64 b 703 63 700 62 695 62 b 688 62 681 67 681 76 l 709 76 b 709 77 709 78 709 79 z m 681 81 b 682 86 685 93 692 93 b 700 93 702 86 702 81 z m 734 62 b 734 65 732 67 729 67 b 726 67 724 65 724 62 b 724 59 726 57 729 57 b 732 57 734 59 734 62 z m 769 93 b 773 93 776 91 778 91 l 779 96 b 778 97 773 98 769 98 b 756 98 748 89 748 77 b 748 65 756 57 768 57 b 773 57 778 58 779 59 l 778 64 b 776 64 773 62 769 62 b 761 62 755 68 755 77 b 755 86 760 93 769 93 z m 831 78 b 831 90 824 99 813 99 b 801 99 793 91 793 77 b 793 65 801 57 811 57 b 821 57 831 63 831 78 z m 800 77 b 800 85 804 93 812 93 b 820 93 824 84 824 77 b 824 68 819 62 812 62 b 805 62 800 68 800 77 z m 906 58 l 906 81 b 906 95 898 99 893 99 b 889 99 886 97 884 96 b 882 94 881 93 879 90 b 878 95 873 99 868 99 b 861 99 858 95 855 91 l 855 97 l 849 97 b 849 94 849 91 849 86 l 849 58 l 856 58 l 856 82 b 856 83 856 84 857 85 b 858 89 861 93 866 93 b 871 93 874 88 874 82 l 874 58 l 881 58 l 881 82 b 881 83 881 85 881 86 b 882 89 886 93 890 93 b 896 93 899 88 899 80 l 899 58 z"},"{":{"x_min":0,"x_max":290,"ha":290,"o":"m 244 57 b 232 57 208 31 187 31 b 181 31 175 33 170 39 b 158 54 203 102 218 130 b 277 243 304 314 249 336 b 320 358 343 422 365 533 b 370 561 359 608 383 623 b 392 629 399 631 405 631 b 426 631 432 605 443 605 b 466 606 488 661 461 661 b 424 661 401 658 375 643 b 348 628 315 590 309 523 b 300 408 246 348 216 354 b 212 357 208 358 204 358 b 176 358 152 308 184 308 b 188 308 194 309 200 311 b 234 317 249 262 170 141 b 126 72 131 34 148 18 b 163 3 183 0 220 0 b 247 0 265 56 244 57 z"}}}
